<svg xmlns="http://www.w3.org/2000/svg" viewBox="0 0 265.03 80.33">
  <defs>
    <style>
      .cls-1{fill:#c81d3a}
    </style>
  </defs>
  <g id="Capa_2" data-name="Capa 2">
    <g id="Capa_1-2" data-name="Capa 1">
      <g id="interactivo">
        <path class="cls-3" d="M0 40.9V0h4.25v40.9zM31 40.9V23.76c0-3.31-1.87-5.47-5-5.47-4.61 0-7.63 4.25-8.21 5V40.9H13.9V15.48h3.88v3.6a11.27 11.27 0 0 1 8.79-4.39c4.61 0 8.35 3.1 8.35 8.78V40.9zM51.34 41.69c-3.68 0-7.42-1.94-7.42-9V18.43h-5.4l1.08-2.95h4.32v-10h3.89v10h9.36l-1.08 2.95h-8.28v14.4c0 4 1.58 5.26 4.39 5.26 2.23 0 4.39-1.3 5.18-1.65V40a11.61 11.61 0 0 1-6.04 1.69zM64.51 28.59c.36 6.48 5 9.65 9.79 9.65a18.31 18.31 0 0 0 9.65-3v3.6a18.06 18.06 0 0 1-10.08 2.81 13 13 0 0 1-13.25-13.42 13.2 13.2 0 0 1 13.32-13.54c5.84 0 10.73 4.68 10.73 12v1.88zm9.07-10.44c-5.83 0-8.13 4.46-8.85 7.41h16.2a7.21 7.21 0 0 0-7.35-7.41zM102.53 18.36c-3.24 0-6.27 3-7 3.75V40.9h-3.88V15.48h3.89v3.67c.79-.86 3.39-4.46 7.56-4.46a6.73 6.73 0 0 1 2.24.29v3.67a24.13 24.13 0 0 0-2.81-.29zM123.55 40.9l-.36-2.16a10.47 10.47 0 0 1-7.56 2.88 7.91 7.91 0 0 1-8.14-8.14c0-5.54 4.25-8.64 10.73-9.36l4.76-.5v-4.83h-13.9l.72-3.31h17V40.9zM123 26.57l-4.18.5c-4.75.58-7.42 2.67-7.42 6.2a5.11 5.11 0 0 0 5.33 5.18c3.24 0 5.4-2.3 6.27-3.17zM147 41.69c-7.56 0-13.68-5.54-13.68-13.39A13.33 13.33 0 0 1 147 14.76a19.54 19.54 0 0 1 8.86 2.45V21a18.12 18.12 0 0 0-8.86-2.57 9.5 9.5 0 0 0-9.72 9.87A9.42 9.42 0 0 0 147 38a18.46 18.46 0 0 0 9-2.5v3.6a15.82 15.82 0 0 1-9 2.59zM170.93 41.69c-3.68 0-7.42-1.94-7.42-9V18.43h-5.4l1.08-2.95h4.32v-10h3.89v10h9.36l-1.08 2.95h-8.28v14.4c0 4 1.58 5.26 4.39 5.26 2.23 0 4.39-1.3 5.19-1.65V40a11.69 11.69 0 0 1-6.05 1.69zM184.32 10.51L181 7.27 184.25 4l3.31 3.24zm-1.95 30.39V15.48h3.89V40.9zM204.41 40.9h-4l-9.11-25.42h4.18l6.91 20.31 7-20.31h4.18zM229.82 41.69a13.29 13.29 0 0 1-13.39-13.46 13.39 13.39 0 1 1 26.78 0 13.29 13.29 0 0 1-13.39 13.46zm0-23.4c-5.26 0-9.43 4.32-9.43 9.94a9.44 9.44 0 1 0 18.86 0c0-5.62-4.17-9.94-9.43-9.94zM255.88 41.69a15.5 15.5 0 0 1-7.41-1.87v-3.89c.93.43 4.24 2.38 7.41 2.38 2.81 0 5.33-1.23 5.33-3.75s-3.74-3.81-5.9-5c-2.52-1.36-7.06-3.52-7.06-7.7 0-4.46 3.67-7.2 8.79-7.2a13.92 13.92 0 0 1 7 1.87v3.67a14.8 14.8 0 0 0-6.79-2.2c-3.24 0-5.18 1.59-5.18 3.53 0 2.38 3.17 3.67 5.33 4.68 2.37 1.15 7.63 3.38 7.63 8.14s-4.18 7.34-9.15 7.34zM4 76.09v-.72a2.12 2.12 0 0 1-1.81.9 1.91 1.91 0 0 1-1.93-2.15v-3.68h.87V74a1.24 1.24 0 0 0 1.26 1.41A1.92 1.92 0 0 0 4 74.31v-3.87h.86v5.65zM10.23 76.09l-1.67-2.22-1.68 2.22H5.81l2.27-2.85-2.22-2.8h1.07l1.63 2.18 1.62-2.18h1.07L9 73.24l2.26 2.85zM12.28 76.28h-.74l4.53-9.71h.72zM21.56 76.09v-.72a2.12 2.12 0 0 1-1.81.9 1.91 1.91 0 0 1-1.92-2.15v-3.68h.86V74A1.24 1.24 0 0 0 20 75.45a1.92 1.92 0 0 0 1.6-1.14v-3.87h.86v5.65zM24.77 69.34l-.77-.72.72-.72.73.72zm-.43 6.75v-5.65h.86v5.65zM27.28 78.6v-.25a1.39 1.39 0 0 0 .93-1.35 2.27 2.27 0 0 0-.89-1.54l.8-.8.19.18a2.26 2.26 0 0 1 .77 1.63 2.16 2.16 0 0 1-1.8 2.13zM38.18 76.09v-.77l-1.76 1a3.3 3.3 0 0 1-2.74-3.17 2.86 2.86 0 0 1 2.82-2.83 3.12 3.12 0 0 1 1.68.46V67h.87v9.09zm0-4.51a2.54 2.54 0 0 0-1.46-.51 2.11 2.11 0 0 0-2.14 2.06 2.41 2.41 0 0 0 1.82 2.29l1.78-.88zM41.35 73.35a2.12 2.12 0 0 0 2.17 2.15 4 4 0 0 0 2.15-.66v.8a4 4 0 0 1-2.24.63 3 3 0 0 1 0-6 2.46 2.46 0 0 1 2.39 2.67v.41zm2-2.32a2 2 0 0 0-2 1.65H45A1.61 1.61 0 0 0 43.36 71zM48.76 76.27a3.42 3.42 0 0 1-1.65-.42V75a4.09 4.09 0 0 0 1.65.53c.62 0 1.18-.28 1.18-.84s-.83-.85-1.31-1.1-1.57-.79-1.57-1.71.82-1.6 1.95-1.6a3.19 3.19 0 0 1 1.57.41v.82a3.26 3.26 0 0 0-1.52-.5c-.72 0-1.15.35-1.15.79s.7.81 1.18 1 1.7.75 1.7 1.81-.93 1.66-2.03 1.66zM55.4 76.09l-.08-.48a2.32 2.32 0 0 1-1.68.64 1.75 1.75 0 0 1-1.81-1.81c0-1.23.94-1.92 2.38-2.08l1.06-.11v-1.07h-3.09l.16-.74h3.78v5.65zm-.13-3.18l-.93.11c-1.06.13-1.65.59-1.65 1.38a1.14 1.14 0 0 0 1.19 1.15 2 2 0 0 0 1.39-.71zM60.29 71.08a2.54 2.54 0 0 0-1.55.83v4.18h-.86v-5.65h.86v.82a2.34 2.34 0 0 1 1.68-1 1.65 1.65 0 0 1 .5.06v.82a5.15 5.15 0 0 0-.63-.06zM64.21 71.08a2.54 2.54 0 0 0-1.55.83v4.18h-.87v-5.65h.87v.82a2.34 2.34 0 0 1 1.68-1 1.65 1.65 0 0 1 .5.06v.82a5.15 5.15 0 0 0-.63-.06zM68.37 76.27a3 3 0 1 1 3-3 3 3 0 0 1-3 3zm0-5.2a2.2 2.2 0 1 0 2.1 2.2 2.12 2.12 0 0 0-2.1-2.2zM75.06 76a2 2 0 0 1-1 .26c-.73 0-1.29-.5-1.29-1.51V67h.86v7.72c0 .54.32.76.64.76a1.87 1.87 0 0 0 .77-.2zM78.61 76a2 2 0 0 1-1 .26c-.74 0-1.3-.5-1.3-1.51V67h.86v7.72c0 .54.32.76.64.76a1.87 1.87 0 0 0 .77-.2zM82.55 76.27a3 3 0 1 1 3-3 3 3 0 0 1-3 3zm0-5.2a2.2 2.2 0 1 0 2.1 2.2 2.13 2.13 0 0 0-2.1-2.2zM93 76.09l-.08-.48a2.28 2.28 0 0 1-1.68.64 1.76 1.76 0 0 1-1.81-1.81c0-1.23 1-1.92 2.39-2.08l1-.11v-1.07h-3.03l.17-.74h3.77v5.65zm-.13-3.18L92 73c-1.06.13-1.65.59-1.65 1.38a1.13 1.13 0 0 0 1.18 1.15 2 2 0 0 0 1.39-.71zM99.3 76.09v-3.81a1.09 1.09 0 0 0-1.12-1.21 2.48 2.48 0 0 0-1.82 1.1v3.92h-.87v-5.65h.87v.8a2.49 2.49 0 0 1 2-1 1.8 1.8 0 0 1 1.86 2v3.87zM102.51 69.34l-.73-.72.72-.72.74.72zm-.43 6.75v-5.65h.92v5.65zM112.2 76.09v-3.86a1 1 0 0 0-1-1.16 2.47 2.47 0 0 0-1.76 1.05v4h-.87v-3.89a1 1 0 0 0-1-1.16 2.49 2.49 0 0 0-1.76 1.05v4h-.86v-5.68h.86v.77a2.4 2.4 0 0 1 1.87-.94 1.66 1.66 0 0 1 1.65 1.07 2.61 2.61 0 0 1 2-1.07 1.71 1.71 0 0 1 1.78 1.87v4zM118 76.09l-.08-.48a2.32 2.32 0 0 1-1.68.64 1.76 1.76 0 0 1-1.81-1.81c0-1.23.94-1.92 2.38-2.08l1.06-.11v-1.07h-3.09l.16-.74h3.78v5.65zm-.13-3.18l-.93.11c-1.06.13-1.65.59-1.65 1.38a1.14 1.14 0 0 0 1.19 1.15 2 2 0 0 0 1.39-.71zM123.19 76.27a3 3 0 1 1 0-6 4.31 4.31 0 0 1 2 .55v.83a4.09 4.09 0 0 0-2-.56 2.18 2.18 0 0 0 0 4.35 4.08 4.08 0 0 0 2-.56v.8a3.53 3.53 0 0 1-2 .59zM127.22 69.34l-.74-.72.72-.72.74.72zm-.43 6.75v-5.65h.86v5.65zM132.23 76.27a3 3 0 1 1 3-3 3 3 0 0 1-3 3zm0-5.2a2.2 2.2 0 1 0 2.09 2.2 2.13 2.13 0 0 0-2.09-2.2zM140.45 76.09v-3.81a1.09 1.09 0 0 0-1.12-1.21 2.48 2.48 0 0 0-1.82 1.1v3.92h-.87v-5.65h.87v.8a2.49 2.49 0 0 1 2-1 1.8 1.8 0 0 1 1.86 2v3.87zM151.46 76.09h-.8l-1.33-3.81-1.33 3.81h-.8l-2-5.65h.91l1.51 4.56 1.5-4.52h.42L151 75l1.56-4.52h.91zM155 73.35a2.12 2.12 0 0 0 2.18 2.15 4 4 0 0 0 2.14-.66v.8a4 4 0 0 1-2.24.63 3 3 0 0 1 0-6 2.46 2.46 0 0 1 2.38 2.67v.41zm2-2.35a2 2 0 0 0-2 1.65h3.6A1.6 1.6 0 0 0 157 71zM163.55 76.27a2.69 2.69 0 0 1-1.72-.61l-.13.43h-.7V67h.87v3.78a2.8 2.8 0 0 1 1.71-.51 3 3 0 0 1-.07 6zm-.14-5.2a2.38 2.38 0 0 0-1.5.56v3.25a2.44 2.44 0 0 0 1.5.59 2.2 2.2 0 0 0 0-4.4zM172.85 76.09l-1.28 3.64h-.87l1.3-3.64-2-5.65h.93l1.49 4.56 1.58-4.56h.93zM182.82 71.11a2.31 2.31 0 0 1 .61 1.56 2.57 2.57 0 0 1-3.4 2.27l-.59.78a1.33 1.33 0 0 1 .3.07l2 .65a2.06 2.06 0 0 1 1.7 1.92 2.24 2.24 0 0 1-2.48 2c-1.65 0-2.72-1-2.72-2.11a2.17 2.17 0 0 1 1.09-1.74l-1-.34 1.1-1.49a2.38 2.38 0 0 1-1.07-2 2.47 2.47 0 0 1 2.53-2.41 2.58 2.58 0 0 1 1.76.67l.49-.5h1.14v.67zm-1.24 6l-1.47-.46a2.46 2.46 0 0 0-.56.45 1.62 1.62 0 0 0-.45 1c0 .76.77 1.4 1.91 1.4s1.66-.64 1.66-1.24-.44-.89-1.09-1.1zM180.9 71a1.66 1.66 0 1 0 1.71 1.66A1.67 1.67 0 0 0 180.9 71zM188.13 76.09l-.08-.48a2.32 2.32 0 0 1-1.68.64 1.76 1.76 0 0 1-1.81-1.81c0-1.23.94-1.92 2.38-2.08l1.06-.11v-1.07h-3.09l.16-.74h3.78v5.65zm-.13-3.18l-.93.11c-1 .13-1.65.59-1.65 1.38a1.14 1.14 0 0 0 1.19 1.15 2 2 0 0 0 1.39-.71zM197.94 76.09v-3.86a1 1 0 0 0-1-1.16 2.49 2.49 0 0 0-1.76 1.05v4h-.87v-3.89c0-.7-.36-1.16-1-1.16a2.51 2.51 0 0 0-1.76 1.05v4h-.86v-5.68h.86v.77a2.4 2.4 0 0 1 1.87-.94 1.66 1.66 0 0 1 1.58 1.07 2.61 2.61 0 0 1 2-1.07 1.71 1.71 0 0 1 1.77 1.87v4zM201.1 73.35a2.13 2.13 0 0 0 2.18 2.15 4 4 0 0 0 2.15-.66v.8a4 4 0 0 1-2.24.63 3 3 0 0 1 0-6 2.46 2.46 0 0 1 2.39 2.67v.41zm2-2.32a2 2 0 0 0-2 1.65h3.6a1.6 1.6 0 0 0-1.58-1.68zM214.19 76.09v-.77l-1.76 1a3.3 3.3 0 0 1-2.73-3.17 2.85 2.85 0 0 1 2.81-2.83 3.12 3.12 0 0 1 1.68.46V67h.87v9.09zm0-4.51a2.53 2.53 0 0 0-1.45-.51 2.12 2.12 0 0 0-2.15 2.06 2.42 2.42 0 0 0 1.83 2.29l1.77-.88zM217.36 73.35a2.12 2.12 0 0 0 2.18 2.15 4 4 0 0 0 2.14-.66v.8a4 4 0 0 1-2.24.63 3 3 0 0 1 0-6 2.46 2.46 0 0 1 2.38 2.67v.41zm2-2.32a2 2 0 0 0-2 1.65H221a1.6 1.6 0 0 0-1.62-1.68zM224.77 76.27a3.42 3.42 0 0 1-1.65-.42V75a4.09 4.09 0 0 0 1.65.53c.62 0 1.18-.28 1.18-.84s-.83-.85-1.31-1.1-1.57-.79-1.57-1.71.82-1.6 2-1.6a3.16 3.16 0 0 1 1.57.41v.82a3.22 3.22 0 0 0-1.52-.5c-.72 0-1.15.35-1.15.79s.71.81 1.18 1 1.7.75 1.7 1.81-.98 1.66-2.08 1.66zM228.83 69.34l-.73-.72.72-.72.73.72zm-.43 6.75v-5.65h.86v5.65zM235.27 71.11a2.3 2.3 0 0 1 .6 1.56 2.56 2.56 0 0 1-3.39 2.27l-.59.78a1.33 1.33 0 0 1 .3.07l2.05.65a2.06 2.06 0 0 1 1.7 1.92 2.24 2.24 0 0 1-2.48 2c-1.65 0-2.72-1-2.72-2.11a2.19 2.19 0 0 1 1.08-1.74l-1-.34 1.11-1.49a2.38 2.38 0 0 1-1.07-2 2.47 2.47 0 0 1 2.52-2.41 2.59 2.59 0 0 1 1.77.67l.49-.5h1.14v.67zm-1.24 6l-1.47-.46a2.46 2.46 0 0 0-.56.45 1.62 1.62 0 0 0-.45 1c0 .76.77 1.4 1.91 1.4s1.66-.64 1.66-1.24-.45-.89-1.12-1.1zm-.69-6.11a1.66 1.66 0 1 0 1.72 1.66 1.67 1.67 0 0 0-1.72-1.66zM241.22 76.09v-3.81a1.09 1.09 0 0 0-1.12-1.21 2.51 2.51 0 0 0-1.83 1.1v3.92h-.86v-5.65h.86v.8a2.51 2.51 0 0 1 1.95-1 1.79 1.79 0 0 1 1.86 2v3.87z"/>
      </g>
    </g>
  </g>
</svg>
