<svg id="Capa_1" data-name="Capa 1" xmlns="http://www.w3.org/2000/svg" viewBox="0 0 730 579"><title>panel2sin</title><g id="soporte"><path d="M551,517s2,36,15,49c0,0,18.31,14.79,23,21,1.35,1.78,4,8,4,8h16" transform="translate(-110 -17)" style="fill:none;stroke:#263680;stroke-miterlimit:10;stroke-width:2px"/><path d="M388,517s-2,36-15,49c0,0-18.31,14.79-23,21-1.35,1.78-4,8-4,8H330" transform="translate(-110 -17)" style="fill:none;stroke:#263680;stroke-miterlimit:10;stroke-width:2px"/><rect x="1" y="1" width="728" height="500" rx="32.5" ry="32.5" style="fill:none;stroke:#263680;stroke-miterlimit:10;stroke-width:2px"/></g><g id="imagen"><rect x="62.41" y="99.5" width="253.75" height="290" rx="33" ry="33" style="fill:none;stroke:#263680;stroke-miterlimit:10;stroke-width:2px"/><polyline points="272 284 118 284 158 215 209 284 271 284 205 183 173 230 208 214 230 221" style="fill:none;stroke:#263680;stroke-miterlimit:10;stroke-width:2px"/></g><g id="secciones"><rect x="364" y="146" width="306" height="61" rx="11.75" ry="11.75" style="fill:none;stroke:#263680;stroke-miterlimit:10;stroke-width:2px"/><rect x="364" y="110" width="306" height="14" rx="3.42" ry="3.42" style="fill:none;stroke:#263680;stroke-miterlimit:10;stroke-width:2px"/><rect x="364" y="303" width="306" height="84" rx="11.75" ry="11.75" style="fill:none;stroke:#263680;stroke-miterlimit:10;stroke-width:2px"/><rect x="525" y="227" width="143" height="61" rx="11.75" ry="11.75" style="fill:none;stroke:#263680;stroke-miterlimit:10;stroke-width:2px"/><rect x="364" y="227" width="152" height="61" rx="11.75" ry="11.75" style="fill:none;stroke:#263680;stroke-miterlimit:10;stroke-width:2px"/></g><rect id="pantalla" x="34" y="47" width="661" height="373" style="fill:none;stroke:#263680;stroke-miterlimit:10;stroke-width:2px"/></svg>