<svg  d="Capa_1" data-name="Capa 1" xmlns="http://www.w3.org/2000/svg" viewBox="0 0 128 128">

        <style>
            
            .cls-1{fill:none;stroke:#3a297b;stroke-miterlimit:10;}
        
    .cls-1:before
{fill:none;stroke:#3a297b;stroke-miterlimit:10;}

.cls-1:hover
{fill:#3a297b;stroke:#3a297b;stroke-miterlimit:10;}


        </style>

    <path class="cls-1" d="M87.18 47.13a3.48 3.48 0 1 1 3.45 3.47 3.44 3.44 0 0 1-3.45-3.47zm14.54 8.09a3.48 3.48 0 1 1-3.45-3.47 3.45 3.45 0 0 1 3.45 3.47zM79.48 55a3.48 3.48 0 1 1 3.45 3.47A3.44 3.44 0 0 1 79.48 55zm15.23 7a3.48 3.48 0 1 1-3.45-3.48A3.45 3.45 0 0 1 94.71 62zm15.67 18.33a7.42 7.42 0 1 1-7.38-7.39 7.34 7.34 0 0 1 7.38 7.41zm-80.17 1.6a7.42 7.42 0 1 1-7.37-7.41 7.35 7.35 0 0 1 7.37 7.41zm52-47.44c12.63-5.39 38.08-6.64 37.73 39.82-.06 8.77-6.82 44.32-31.22 16.53 0 0-19.21-28.12-46.33-2.69-3 2.77-12.68 10.12-12.68 10.12S8.75 112.65 7.09 74.52c-.57-13.1.75-47.66 33.22-40.78C46.9 35.14 53.38 47.26 63 47.36c9.81.11 10.76-9.27 19.18-12.86z"/><path class="cls-1" d="M33.14 48.72L33 63.39l.07-7.33-6.35-.05 12.92.1"/></svg>