<svg id="Capa_1" data-name="Capa 1" xmlns="http://www.w3.org/2000/svg" viewBox="0 0 128 128"><defs><style>.cls-1{fill:none;stroke:#3a297b;stroke-miterlimit:10;}.cls-2{fill:#3a297b;opacity:0.22;}</style></defs><title>juegoshov</title><path class="cls-1" d="M87.18,47.13a3.48,3.48,0,1,1,3.45,3.47A3.44,3.44,0,0,1,87.18,47.13Z"/><path class="cls-1" d="M101.72,55.22a3.48,3.48,0,1,1-3.45-3.47A3.45,3.45,0,0,1,101.72,55.22Z"/><path class="cls-1" d="M79.48,55a3.48,3.48,0,1,1,3.45,3.47A3.44,3.44,0,0,1,79.48,55Z"/><path class="cls-1" d="M94.71,62a3.48,3.48,0,1,1-3.45-3.48A3.45,3.45,0,0,1,94.71,62Z"/><path class="cls-1" d="M110.38,80.35A7.42,7.42,0,1,1,103,72.94,7.34,7.34,0,0,1,110.38,80.35Z"/><path class="cls-1" d="M30.21,81.93a7.42,7.42,0,1,1-7.37-7.41A7.35,7.35,0,0,1,30.21,81.93Z"/><path class="cls-1" d="M82.18,34.5c12.63-5.39,38.08-6.64,37.73,39.82-.06,8.77-6.82,44.32-31.22,16.53,0,0-19.21-28.12-46.33-2.69-3,2.77-12.68,10.12-12.68,10.12S8.75,112.65,7.09,74.52c-.57-13.1.75-47.66,33.22-40.78C46.9,35.14,53.38,47.26,63,47.36,72.81,47.47,73.76,38.09,82.18,34.5Z"/><polyline class="cls-1" points="33.14 48.72 33 63.39 33.07 56.06 26.72 56.01 39.64 56.11"/><path class="cls-2" d="M83.18,34.5c12.63-5.39,38.08-6.64,37.73,39.82-.06,8.77-6.82,44.32-31.22,16.53,0,0-19.21-28.12-46.33-2.69-3,2.77-12.68,10.12-12.68,10.12S9.75,112.65,8.09,74.52c-.57-13.1.75-47.66,33.22-40.78C47.9,35.14,54.38,47.26,64,47.36,73.81,47.47,74.76,38.09,83.18,34.5Z"/></svg>