<!-- Generator: Adobe Illustrator 21.1.0, SVG Export Plug-In  -->
<svg version="1.1"
	 xmlns="http://www.w3.org/2000/svg" xmlns:xlink="http://www.w3.org/1999/xlink" xmlns:a="http://ns.adobe.com/AdobeSVGViewerExtensions/3.0/"
	 x="0px" y="0px" width="47.09px" height="3.788px" viewBox="0 0 47.09 3.788"
	 style="overflow:scroll;enable-background:new 0 0 47.09 3.788;" xml:space="preserve">
<style type="text/css">
	.st0{fill:none;stroke:#4F517E;stroke-width:0.5;}
	.st1{fill:none;stroke:#BE0D2A;stroke-width:0.374;stroke-miterlimit:10;}
</style>
<defs>
</defs>
<line class="st0" x1="0.337" y1="3.284" x2="3.37" y2="0.25"/>
<line class="st0" x1="3.244" y1="0.25" x2="47.09" y2="0.25"/>
<line class="st0" x1="0" y1="3.538" x2="43.846" y2="3.538"/>
<path class="st1" d="M1.865,2.878l1.032-1.032 M2.462,2.878l1.032-1.032 M3.058,2.878l1.032-1.032 M3.655,2.878l1.032-1.032
	 M4.252,2.878l1.032-1.032 M4.849,2.878L5.88,1.845 M5.445,2.878l1.032-1.032 M6.042,2.878l1.032-1.032 M6.639,2.878l1.032-1.032
	 M7.236,2.878l1.032-1.032 M7.832,2.878l1.032-1.032 M8.429,2.878l1.032-1.032 M9.025,2.878l1.032-1.032 M9.622,2.878l1.032-1.032
	 M10.219,2.878l1.032-1.032 M10.816,2.878l1.032-1.032 M11.412,2.878l1.032-1.032 M12.009,2.878l1.032-1.032 M12.606,2.878
	l1.032-1.032 M13.203,2.878l1.032-1.032 M13.799,2.878l1.032-1.032 M14.396,2.878l1.032-1.032 M14.993,2.878l1.032-1.032
	 M15.59,2.878l1.032-1.032 M16.186,2.878l1.032-1.032 M16.783,2.878l1.032-1.032 M17.38,2.878l1.032-1.032 M17.977,2.878
	l1.032-1.032 M18.573,2.878l1.032-1.032 M19.17,2.878l1.032-1.032 M19.766,2.878l1.032-1.032 M20.363,2.878l1.032-1.032
	 M20.96,2.878l1.032-1.032 M21.557,2.878l1.032-1.032 M22.153,2.878l1.032-1.032 M22.75,2.878l1.032-1.032 M23.347,2.878
	l1.032-1.032 M23.944,2.878l1.032-1.032 M24.54,2.878l1.032-1.032 M25.137,2.878l1.032-1.032 M25.734,2.878l1.032-1.032
	 M26.331,2.878l1.032-1.032 M26.927,2.878l1.032-1.032 M27.524,2.878l1.032-1.032 M28.121,2.878l1.032-1.032 M28.718,2.878
	l1.032-1.032 M29.314,2.878l1.032-1.032 M29.911,2.878l1.032-1.032 M30.507,2.878l1.032-1.032 M31.104,2.878l1.032-1.032
	 M31.701,2.878l1.032-1.032 M32.298,2.878l1.032-1.032 M32.894,2.878l1.032-1.032 M33.491,2.878l1.032-1.032 M34.088,2.878
	l1.032-1.032 M34.685,2.878l1.032-1.032"/>
<path class="st1" d="M2.829,1.876l1.032-1.032 M3.424,1.876l1.032-1.032 M4.019,1.876l1.032-1.032 M4.615,1.876l1.032-1.032
	 M5.21,1.876l1.032-1.032 M5.806,1.876l1.032-1.032 M6.401,1.876l1.032-1.032 M6.996,1.876l1.032-1.032 M7.591,1.876l1.032-1.032
	 M8.186,1.876l1.032-1.032 M8.782,1.876l1.032-1.032 M9.377,1.876l1.032-1.032 M9.972,1.876l1.032-1.032 M10.567,1.876l1.032-1.032
	 M11.163,1.876l1.032-1.032 M11.758,1.876l1.032-1.032 M12.353,1.876l1.032-1.032 M12.948,1.876l1.032-1.032 M13.544,1.876
	l1.032-1.032 M14.139,1.876l1.032-1.032 M14.734,1.876l1.032-1.032 M15.329,1.876l1.032-1.032 M15.924,1.876l1.032-1.032
	 M16.52,1.876l1.032-1.032 M17.115,1.876l1.032-1.032 M17.71,1.876l1.032-1.032 M18.305,1.876l1.032-1.032 M18.901,1.876
	l1.032-1.032 M19.496,1.876l1.032-1.032 M20.091,1.876l1.032-1.032 M20.686,1.876l1.032-1.032 M21.282,1.876l1.032-1.032
	 M21.877,1.876l1.032-1.032 M22.472,1.876l1.032-1.032 M23.067,1.876L24.1,0.843 M23.662,1.876l1.032-1.032 M24.258,1.876
	l1.032-1.032 M24.853,1.876l1.032-1.032 M25.449,1.876l1.032-1.032 M26.044,1.876l1.032-1.032 M26.639,1.876l1.032-1.032
	 M27.235,1.876l1.032-1.032 M27.83,1.876l1.032-1.032 M28.425,1.876l1.032-1.032 M29.02,1.876l1.032-1.032 M29.615,1.876
	l1.032-1.032 M30.211,1.876l1.032-1.032 M30.806,1.876l1.032-1.032 M31.401,1.876l1.032-1.032 M31.996,1.876l1.032-1.032
	 M32.592,1.876l1.032-1.032 M33.187,1.876l1.032-1.032 M33.782,1.876l1.032-1.032 M34.377,1.876l1.032-1.032 M34.973,1.876
	l1.032-1.032 M35.568,1.876L36.6,0.843"/>
</svg>