<!-- Generator: Adobe Illustrator 21.1.0, SVG Export Plug-In  -->
<svg version="1.1"
	 xmlns="http://www.w3.org/2000/svg" xmlns:xlink="http://www.w3.org/1999/xlink" xmlns:a="http://ns.adobe.com/AdobeSVGViewerExtensions/3.0/"
	 x="0px" y="0px" width="125.164px" height="47.931px" viewBox="0 0 125.164 47.931"
	 style="overflow:scroll;enable-background:new 0 0 125.164 47.931;" xml:space="preserve">
<style type="text/css">
	.st0{fill:#1B1863;}
	.st1{font-family:'PrioriSanRegular';}
	.st2{font-size:7.1357px;}
</style>
<defs>
</defs>
<g>
	<path class="st0" d="M0.564,5.595V1.538h0.421v4.057H0.564z"/>
	<path class="st0" d="M2.955,5.559C2.884,5.595,2.74,5.673,2.52,5.673c-0.328,0-0.578-0.221-0.578-0.671V1.538h0.385V4.98
		c0,0.243,0.144,0.343,0.286,0.343c0.149,0,0.286-0.064,0.343-0.093V5.559z"/>
	<path class="st0" d="M4.539,5.559C4.468,5.595,4.324,5.673,4.104,5.673c-0.328,0-0.578-0.221-0.578-0.671V1.538H3.91V4.98
		c0,0.243,0.144,0.343,0.286,0.343c0.149,0,0.286-0.064,0.343-0.093V5.559z"/>
	<path class="st0" d="M6.773,5.595V5.273C6.701,5.366,6.48,5.673,5.966,5.673c-0.499,0-0.856-0.35-0.856-0.956V3.074h0.385v1.606
		c0,0.407,0.236,0.629,0.564,0.629c0.45,0,0.664-0.422,0.715-0.508V3.074h0.385v2.521H6.773z"/>
	<path class="st0" d="M8.557,5.673c-0.387,0-0.636-0.135-0.736-0.186V5.102c0.094,0.043,0.422,0.236,0.736,0.236
		c0.278,0,0.527-0.122,0.527-0.372c0-0.242-0.371-0.378-0.585-0.492c-0.25-0.136-0.7-0.35-0.7-0.764
		c0-0.443,0.365-0.715,0.871-0.715c0.372,0,0.629,0.143,0.7,0.186v0.364C9.185,3.431,8.906,3.324,8.691,3.324
		c-0.32,0-0.514,0.157-0.514,0.35c0,0.235,0.314,0.364,0.528,0.464c0.235,0.114,0.757,0.336,0.757,0.808
		C9.463,5.431,9.049,5.673,8.557,5.673z"/>
	<path class="st0" d="M10.947,5.673c-0.365,0-0.736-0.192-0.736-0.893V3.366H9.676l0.107-0.292h0.428V2.081h0.386v0.993h0.929
		l-0.107,0.292h-0.821v1.429c0,0.393,0.157,0.521,0.437,0.521c0.221,0,0.436-0.129,0.514-0.164v0.35
		C11.482,5.538,11.268,5.673,10.947,5.673z"/>
	<path class="st0" d="M13.088,3.359c-0.322,0-0.622,0.3-0.693,0.371v1.864h-0.386V3.074h0.386v0.364
		c0.078-0.086,0.336-0.443,0.75-0.443c0.114,0,0.178,0.015,0.221,0.029v0.363C13.322,3.388,13.23,3.359,13.088,3.359z"/>
	<path class="st0" d="M15.172,5.595l-0.036-0.214c-0.079,0.063-0.293,0.285-0.75,0.285c-0.429,0-0.807-0.307-0.807-0.807
		c0-0.55,0.421-0.857,1.063-0.929l0.472-0.05V3.402h-1.378l0.071-0.328h1.685v2.521H15.172z M15.114,4.174L14.7,4.224
		c-0.472,0.057-0.735,0.265-0.735,0.614c0,0.293,0.221,0.514,0.528,0.514c0.321,0,0.536-0.229,0.621-0.313V4.174z"/>
	<path class="st0" d="M17.119,5.673c-0.365,0-0.736-0.192-0.736-0.893V3.366h-0.535l0.107-0.292h0.428V2.081h0.386v0.993h0.929
		L17.59,3.366h-0.821v1.429c0,0.393,0.157,0.521,0.437,0.521c0.221,0,0.436-0.129,0.514-0.164v0.35
		C17.654,5.538,17.439,5.673,17.119,5.673z"/>
	<path class="st0" d="M19.367,5.673c-0.736,0-1.328-0.578-1.328-1.335s0.592-1.343,1.328-1.343c0.735,0,1.328,0.586,1.328,1.343
		S20.103,5.673,19.367,5.673z M19.367,3.353c-0.521,0-0.936,0.429-0.936,0.985s0.414,0.979,0.936,0.979s0.936-0.422,0.936-0.979
		S19.889,3.353,19.367,3.353z"/>
	<path class="st0" d="M22.414,3.359c-0.322,0-0.622,0.3-0.693,0.371v1.864h-0.386V3.074h0.386v0.364
		c0.078-0.086,0.336-0.443,0.75-0.443c0.114,0,0.178,0.015,0.221,0.029v0.363C22.648,3.388,22.557,3.359,22.414,3.359z"/>
</g>
<g>
	<path class="st0" d="M1.55,13.949H0.949v1.757H0.528v-4.057h1.007c0.85,0,1.343,0.443,1.343,1.143
		C2.878,13.6,2.178,13.949,1.55,13.949z M1.507,12.021H0.949v1.585h0.529c0.457,0,0.964-0.207,0.964-0.821
		C2.442,12.278,2.121,12.021,1.507,12.021z"/>
	<path class="st0" d="M5.146,15.706v-1.807c0-0.229-0.15-0.436-0.422-0.436c-0.399,0-0.656,0.235-0.893,0.514v1.729H3.447v-4.057
		h0.385v1.922c0.122-0.122,0.45-0.465,0.943-0.465c0.385,0,0.757,0.25,0.757,0.778v1.821H5.146z"/>
	<path class="st0" d="M7.5,15.784c-0.734,0-1.328-0.578-1.328-1.335s0.594-1.343,1.328-1.343c0.736,0,1.328,0.586,1.328,1.343
		S8.236,15.784,7.5,15.784z M7.5,13.464c-0.521,0-0.936,0.429-0.936,0.985s0.415,0.979,0.936,0.979c0.521,0,0.936-0.422,0.936-0.979
		S8.021,13.464,7.5,13.464z"/>
	<path class="st0" d="M10.312,15.784c-0.364,0-0.735-0.192-0.735-0.893v-1.414H9.041l0.106-0.292h0.429v-0.993h0.386v0.993h0.929
		l-0.107,0.292H9.962v1.429c0,0.393,0.157,0.521,0.436,0.521c0.222,0,0.436-0.129,0.515-0.164v0.35
		C10.848,15.649,10.633,15.784,10.312,15.784z"/>
	<path class="st0" d="M12.56,15.784c-0.735,0-1.328-0.578-1.328-1.335s0.593-1.343,1.328-1.343s1.328,0.586,1.328,1.343
		S13.295,15.784,12.56,15.784z M12.56,13.464c-0.521,0-0.936,0.429-0.936,0.985s0.414,0.979,0.936,0.979s0.936-0.422,0.936-0.979
		S13.081,13.464,12.56,13.464z"/>
	<path class="st0" d="M15.143,15.784c-0.387,0-0.636-0.135-0.736-0.186v-0.386c0.094,0.043,0.422,0.236,0.736,0.236
		c0.278,0,0.527-0.122,0.527-0.372c0-0.242-0.371-0.378-0.585-0.492c-0.25-0.136-0.7-0.35-0.7-0.764
		c0-0.443,0.365-0.715,0.871-0.715c0.372,0,0.629,0.143,0.7,0.186v0.364c-0.186-0.114-0.464-0.221-0.679-0.221
		c-0.32,0-0.514,0.157-0.514,0.35c0,0.235,0.314,0.364,0.528,0.464c0.235,0.114,0.757,0.336,0.757,0.808
		C16.049,15.542,15.635,15.784,15.143,15.784z"/>
	<path class="st0" d="M18.39,15.706v-1.807c0-0.229-0.149-0.436-0.421-0.436c-0.4,0-0.657,0.235-0.893,0.514v1.729h-0.387v-4.057
		h0.387v1.922c0.121-0.122,0.449-0.465,0.942-0.465c0.386,0,0.757,0.25,0.757,0.778v1.821H18.39z"/>
	<path class="st0" d="M20.744,15.784c-0.735,0-1.328-0.578-1.328-1.335s0.593-1.343,1.328-1.343s1.328,0.586,1.328,1.343
		S21.479,15.784,20.744,15.784z M20.744,13.464c-0.521,0-0.936,0.429-0.936,0.985s0.414,0.979,0.936,0.979s0.936-0.422,0.936-0.979
		S21.266,13.464,20.744,13.464z"/>
	<path class="st0" d="M23.848,15.784c-0.428,0-0.664-0.164-0.75-0.207v1.75h-0.385v-4.142h0.385v0.343l0.786-0.422
		c0.278,0.079,1.222,0.351,1.222,1.414C25.105,15.213,24.526,15.784,23.848,15.784z M23.891,13.485l-0.793,0.393v1.321
		c0.072,0.043,0.314,0.229,0.65,0.229c0.514,0,0.957-0.407,0.957-0.921C24.705,13.8,24.119,13.571,23.891,13.485z"/>
</g>
<g>
	<path class="st0" d="M0.564,25.818v-4.056h0.421v4.056H0.564z"/>
	<path class="st0" d="M3.641,25.818v-1.699c0-0.329-0.186-0.543-0.5-0.543c-0.457,0-0.757,0.421-0.814,0.492v1.75H1.941v-2.521
		h0.385v0.356c0.058-0.063,0.336-0.436,0.871-0.436c0.457,0,0.829,0.308,0.829,0.871v1.729H3.641z"/>
	<path class="st0" d="M6.674,25.818v-0.343l-0.785,0.421c-0.279-0.078-1.222-0.35-1.222-1.413c0-0.693,0.578-1.265,1.257-1.265
		c0.428,0,0.664,0.164,0.75,0.207v-1.663h0.385v4.056H6.674z M6.674,23.805c-0.064-0.043-0.314-0.229-0.65-0.229
		c-0.514,0-0.957,0.407-0.957,0.921c0,0.707,0.586,0.936,0.814,1.021l0.793-0.393V23.805z"/>
	<path class="st0" d="M8.085,24.598c0.036,0.643,0.493,0.956,0.972,0.956c0.521,0,0.856-0.242,0.956-0.292v0.356
		c-0.071,0.043-0.414,0.278-0.999,0.278c-0.679,0-1.314-0.499-1.314-1.335c0-0.821,0.636-1.343,1.321-1.343
		c0.578,0,1.063,0.465,1.063,1.192v0.187H8.085z M8.984,23.562c-0.578,0-0.807,0.443-0.878,0.735h1.606
		C9.713,23.904,9.428,23.562,8.984,23.562z"/>
	<path class="st0" d="M11.389,25.896c-0.385,0-0.635-0.136-0.734-0.186v-0.386c0.092,0.043,0.421,0.236,0.734,0.236
		c0.279,0,0.529-0.122,0.529-0.371c0-0.243-0.371-0.379-0.586-0.493c-0.25-0.136-0.699-0.35-0.699-0.765
		c0-0.442,0.363-0.714,0.871-0.714c0.371,0,0.628,0.144,0.699,0.186v0.364c-0.186-0.114-0.464-0.221-0.678-0.221
		c-0.322,0-0.515,0.156-0.515,0.35c0,0.235,0.314,0.364,0.528,0.464c0.236,0.114,0.757,0.336,0.757,0.808
		C12.296,25.654,11.882,25.896,11.389,25.896z"/>
	<path class="st0" d="M13.201,22.805l-0.328-0.321l0.321-0.321l0.329,0.321L13.201,22.805z M13.009,25.818v-2.521h0.386v2.521
		H13.009z"/>
	<path class="st0" d="M15.949,25.818v-1.699c0-0.329-0.186-0.543-0.5-0.543c-0.457,0-0.757,0.421-0.814,0.492v1.75H14.25v-2.521
		h0.385v0.356c0.058-0.063,0.336-0.436,0.871-0.436c0.457,0,0.829,0.308,0.829,0.871v1.729H15.949z"/>
	<path class="st0" d="M18.939,23.598c0.172,0.186,0.271,0.429,0.271,0.692c0,0.593-0.5,1.078-1.129,1.078
		c-0.135,0-0.264-0.021-0.385-0.064l-0.265,0.351c0.064,0.007,0.101,0.014,0.136,0.028l0.914,0.293
		c0.386,0.121,0.757,0.364,0.757,0.856c0,0.521-0.515,0.879-1.106,0.879c-0.736,0-1.215-0.457-1.215-0.942
		c0-0.45,0.387-0.715,0.486-0.779l-0.465-0.149l0.493-0.664c-0.293-0.2-0.479-0.521-0.479-0.879c0-0.593,0.507-1.078,1.128-1.078
		c0.308,0,0.586,0.114,0.786,0.3l0.222-0.221h0.506v0.3H18.939z M18.39,26.297l-0.657-0.207c-0.093,0.057-0.179,0.121-0.25,0.2
		c-0.1,0.114-0.199,0.271-0.199,0.471c0,0.336,0.342,0.621,0.85,0.621c0.507,0,0.742-0.285,0.742-0.55
		C18.875,26.568,18.676,26.39,18.39,26.297z M18.082,23.555c-0.414,0-0.757,0.321-0.757,0.742c0,0.415,0.343,0.736,0.757,0.736
		c0.422,0,0.765-0.321,0.765-0.736C18.847,23.876,18.504,23.555,18.082,23.555z"/>
</g>
<g>
	<path class="st0" d="M1.199,36.043c-0.57,0-0.878-0.243-1.057-0.414l0.229-0.278c0.143,0.143,0.429,0.343,0.793,0.343
		c0.479,0,0.979-0.351,0.979-0.985c0-0.593-0.479-0.864-0.9-0.864c-0.135,0-0.293,0.043-0.399,0.085l-0.136-0.186
		c0.422-0.235,1.086-0.628,1.342-1.492H0.25v-0.379h2.242v0.208c-0.136,0.914-0.771,1.363-0.949,1.478
		c0.299,0.043,1.035,0.329,1.035,1.136C2.578,35.515,1.936,36.043,1.199,36.043z"/>
	<path class="st0" d="M4.725,35.929H3.461v-4.057h1.229c1.164,0,2.277,0.736,2.277,2.043C6.967,35.236,5.882,35.929,4.725,35.929z
		 M4.711,32.251H3.883v3.285h0.863c0.986,0,1.785-0.586,1.785-1.621C6.531,32.887,5.696,32.251,4.711,32.251z"/>
	<path class="st0" d="M10.928,35.929v-1.721c0-0.314-0.164-0.521-0.465-0.521c-0.436,0-0.729,0.407-0.785,0.471v1.771H9.292v-1.721
		c0-0.314-0.164-0.521-0.464-0.521c-0.436,0-0.729,0.407-0.785,0.471v1.771H7.656v-2.521h0.387v0.343
		c0.057-0.064,0.32-0.422,0.835-0.422c0.336,0,0.614,0.164,0.735,0.479c0.186-0.192,0.414-0.479,0.907-0.479
		c0.442,0,0.792,0.293,0.792,0.836v1.764H10.928z"/>
	<path class="st0" d="M13.509,35.929l-0.036-0.214C13.395,35.778,13.18,36,12.723,36c-0.428,0-0.807-0.307-0.807-0.807
		c0-0.55,0.422-0.857,1.064-0.929l0.471-0.05v-0.479h-1.378l0.071-0.328h1.686v2.521H13.509z M13.451,34.508l-0.414,0.05
		c-0.471,0.057-0.735,0.265-0.735,0.614c0,0.293,0.222,0.514,0.528,0.514c0.322,0,0.536-0.229,0.621-0.313V34.508z"/>
	<path class="st0" d="M16.229,35.929l-0.743-0.992l-0.75,0.992h-0.479l1.015-1.271l-0.993-1.249h0.479l0.729,0.971l0.722-0.971
		h0.479l-0.986,1.249l1.007,1.271H16.229z"/>
	<path class="st0" d="M19.031,36.007c-0.386,0-0.636-0.135-0.735-0.186v-0.386c0.093,0.043,0.421,0.236,0.735,0.236
		c0.278,0,0.528-0.122,0.528-0.372c0-0.242-0.371-0.378-0.585-0.492c-0.25-0.136-0.7-0.35-0.7-0.764
		c0-0.443,0.364-0.715,0.871-0.715c0.372,0,0.628,0.143,0.7,0.186v0.364c-0.186-0.114-0.465-0.221-0.679-0.221
		c-0.321,0-0.515,0.157-0.515,0.35c0,0.235,0.314,0.364,0.529,0.464c0.235,0.114,0.757,0.336,0.757,0.808
		C19.938,35.765,19.523,36.007,19.031,36.007z"/>
	<path class="st0" d="M21.422,36.007c-0.364,0-0.735-0.192-0.735-0.893V33.7H20.15l0.107-0.292h0.429v-0.993h0.386v0.993H22
		L21.893,33.7h-0.82v1.429c0,0.393,0.156,0.521,0.436,0.521c0.221,0,0.436-0.129,0.514-0.164v0.35
		C21.957,35.872,21.743,36.007,21.422,36.007z"/>
	<path class="st0" d="M24.148,35.929v-0.321c-0.071,0.093-0.293,0.399-0.807,0.399c-0.5,0-0.857-0.35-0.857-0.956v-1.643h0.386
		v1.606c0,0.407,0.235,0.629,0.564,0.629c0.45,0,0.664-0.422,0.714-0.508v-1.728h0.386v2.521H24.148z"/>
	<path class="st0" d="M27.181,35.929v-0.343l-0.785,0.421c-0.278-0.078-1.222-0.35-1.222-1.413c0-0.693,0.579-1.265,1.258-1.265
		c0.428,0,0.664,0.164,0.749,0.207v-1.664h0.386v4.057H27.181z M27.181,33.915c-0.063-0.043-0.313-0.229-0.649-0.229
		c-0.514,0-0.957,0.407-0.957,0.921c0,0.707,0.586,0.936,0.814,1.021l0.792-0.393V33.915z"/>
	<path class="st0" d="M28.614,32.915l-0.329-0.321l0.322-0.321l0.328,0.321L28.614,32.915z M28.422,35.929v-2.521h0.385v2.521
		H28.422z"/>
	<path class="st0" d="M30.848,36.007c-0.734,0-1.328-0.578-1.328-1.335s0.594-1.343,1.328-1.343c0.736,0,1.328,0.586,1.328,1.343
		S31.584,36.007,30.848,36.007z M30.848,33.687c-0.521,0-0.936,0.429-0.936,0.985s0.415,0.979,0.936,0.979
		c0.521,0,0.936-0.422,0.936-0.979S31.369,33.687,30.848,33.687z"/>
</g>
<g>
	<path class="st0" d="M3.178,46.04v-1.864H0.949v1.864H0.528v-4.057h0.421v1.821h2.229v-1.821H3.6v4.057H3.178z"/>
	<path class="st0" d="M5.359,46.118c-0.363,0-0.734-0.192-0.734-0.893v-1.414H4.089l0.106-0.292h0.43v-0.993H5.01v0.993h0.929
		l-0.107,0.292H5.01v1.429c0,0.393,0.157,0.521,0.436,0.521c0.222,0,0.436-0.129,0.515-0.164v0.35
		C5.896,45.983,5.682,46.118,5.359,46.118z"/>
	<path class="st0" d="M9.693,46.04v-1.721c0-0.314-0.165-0.521-0.465-0.521c-0.436,0-0.729,0.407-0.785,0.471v1.771H8.058v-1.721
		c0-0.314-0.165-0.521-0.464-0.521c-0.436,0-0.729,0.407-0.786,0.471v1.771H6.422V43.52h0.386v0.343
		c0.058-0.064,0.321-0.422,0.835-0.422c0.336,0,0.615,0.164,0.736,0.479c0.186-0.192,0.414-0.479,0.906-0.479
		c0.443,0,0.793,0.293,0.793,0.836v1.764H9.693z"/>
	<path class="st0" d="M11.875,46.004c-0.072,0.036-0.215,0.114-0.436,0.114c-0.329,0-0.579-0.221-0.579-0.671v-3.464h0.386v3.442
		c0,0.243,0.143,0.343,0.285,0.343c0.15,0,0.286-0.064,0.344-0.093V46.004z"/>
	<path class="st0" d="M14.664,46.161c-0.399,0-0.756-0.136-1.057-0.378c-0.057-0.043-0.1-0.079-0.128-0.107l0.229-0.293
		c0.085,0.093,0.179,0.172,0.285,0.236c0.157,0.1,0.364,0.186,0.622,0.186c0.542,0,0.999-0.443,0.999-1.043
		c0-0.571-0.45-0.985-1.035-0.985c-0.149,0-0.278,0.035-0.378,0.078c-0.101,0.036-0.172,0.079-0.208,0.107l-0.106-0.028l0.135-1.95
		h1.914v0.379h-1.592l-0.079,1.128c0.101-0.028,0.207-0.063,0.407-0.063c0.714,0,1.371,0.55,1.371,1.363
		C16.043,45.576,15.393,46.161,14.664,46.161z"/>
	<path class="st0" d="M16.797,46.126h-0.328l2.021-4.335h0.32L16.797,46.126z"/>
	<path class="st0" d="M20.487,46.118c-0.75,0-1.356-0.55-1.356-1.328c0-0.771,0.592-1.342,1.356-1.342
		c0.414,0,0.771,0.186,0.878,0.242v0.371c-0.093-0.05-0.428-0.25-0.871-0.25c-0.571,0-0.964,0.429-0.964,0.979
		c0,0.579,0.429,0.965,0.964,0.965c0.457,0,0.807-0.208,0.886-0.25v0.356C21.287,45.919,20.994,46.118,20.487,46.118z"/>
	<path class="st0" d="M22.635,46.118c-0.387,0-0.636-0.135-0.736-0.186v-0.386c0.094,0.043,0.422,0.236,0.736,0.236
		c0.278,0,0.527-0.122,0.527-0.372c0-0.242-0.371-0.378-0.585-0.492c-0.25-0.136-0.7-0.35-0.7-0.764
		c0-0.443,0.365-0.715,0.871-0.715c0.372,0,0.629,0.143,0.7,0.186v0.364c-0.186-0.114-0.464-0.221-0.679-0.221
		c-0.32,0-0.514,0.157-0.514,0.35c0,0.235,0.314,0.364,0.528,0.464c0.235,0.114,0.757,0.336,0.757,0.808
		C23.541,45.876,23.127,46.118,22.635,46.118z"/>
	<path class="st0" d="M24.797,46.118c-0.387,0-0.636-0.135-0.736-0.186v-0.386c0.094,0.043,0.422,0.236,0.736,0.236
		c0.278,0,0.527-0.122,0.527-0.372c0-0.242-0.371-0.378-0.585-0.492c-0.25-0.136-0.7-0.35-0.7-0.764
		c0-0.443,0.365-0.715,0.871-0.715c0.372,0,0.629,0.143,0.7,0.186v0.364c-0.186-0.114-0.464-0.221-0.679-0.221
		c-0.32,0-0.514,0.157-0.514,0.35c0,0.235,0.314,0.364,0.528,0.464c0.235,0.114,0.757,0.336,0.757,0.808
		C25.703,45.876,25.289,46.118,24.797,46.118z"/>
</g>
<g>
	<path class="st0" d="M99.307,3.838h-0.601v1.757h-0.421V1.538h1.006c0.851,0,1.344,0.443,1.344,1.143
		C100.635,3.488,99.935,3.838,99.307,3.838z M99.264,1.91h-0.558v1.585h0.528c0.457,0,0.965-0.207,0.965-0.821
		C100.199,2.167,99.877,1.91,99.264,1.91z"/>
	<path class="st0" d="M102.281,3.359c-0.32,0-0.621,0.3-0.692,0.371v1.864h-0.386V3.074h0.386v0.364
		c0.079-0.086,0.336-0.443,0.75-0.443c0.114,0,0.179,0.015,0.222,0.029v0.363C102.518,3.388,102.424,3.359,102.281,3.359z"/>
	<path class="st0" d="M103.194,4.374c0.036,0.643,0.493,0.956,0.972,0.956c0.521,0,0.856-0.242,0.956-0.292v0.356
		c-0.071,0.043-0.414,0.278-0.999,0.278c-0.679,0-1.314-0.499-1.314-1.335c0-0.821,0.636-1.343,1.321-1.343
		c0.578,0,1.063,0.465,1.063,1.192v0.187H103.194z M104.094,3.338c-0.578,0-0.807,0.443-0.878,0.735h1.606
		C104.822,3.681,104.537,3.338,104.094,3.338z"/>
	<path class="st0" d="M109.154,5.595V3.874c0-0.314-0.164-0.521-0.464-0.521c-0.436,0-0.729,0.407-0.786,0.471v1.771h-0.385V3.874
		c0-0.314-0.164-0.521-0.465-0.521c-0.436,0-0.729,0.407-0.785,0.471v1.771h-0.386V3.074h0.386v0.343
		c0.057-0.064,0.321-0.422,0.836-0.422c0.336,0,0.613,0.164,0.735,0.479c0.186-0.192,0.414-0.479,0.907-0.479
		c0.442,0,0.792,0.293,0.792,0.836v1.764H109.154z"/>
	<path class="st0" d="M110.587,2.581l-0.329-0.321l0.322-0.321l0.328,0.321L110.587,2.581z M110.395,5.595V3.074h0.385v2.521
		H110.395z"/>
	<path class="st0" d="M111.879,4.374c0.035,0.643,0.492,0.956,0.971,0.956c0.521,0,0.857-0.242,0.957-0.292v0.356
		c-0.072,0.043-0.414,0.278-1,0.278c-0.679,0-1.314-0.499-1.314-1.335c0-0.821,0.636-1.343,1.321-1.343
		c0.579,0,1.064,0.465,1.064,1.192v0.187H111.879z M112.777,3.338c-0.578,0-0.807,0.443-0.878,0.735h1.606
		C113.506,3.681,113.221,3.338,112.777,3.338z"/>
	<path class="st0" d="M115.646,3.359c-0.321,0-0.621,0.3-0.693,0.371v1.864h-0.385V3.074h0.385v0.364
		c0.079-0.086,0.336-0.443,0.75-0.443c0.115,0,0.179,0.015,0.222,0.029v0.363C115.882,3.388,115.789,3.359,115.646,3.359z"/>
	<path class="st0" d="M116.559,4.374c0.036,0.643,0.493,0.956,0.972,0.956c0.521,0,0.856-0.242,0.956-0.292v0.356
		c-0.07,0.043-0.414,0.278-0.999,0.278c-0.679,0-1.313-0.499-1.313-1.335c0-0.821,0.635-1.343,1.32-1.343
		c0.578,0,1.064,0.465,1.064,1.192v0.187H116.559z M117.459,3.338c-0.578,0-0.807,0.443-0.879,0.735h1.607
		C118.188,3.681,117.901,3.338,117.459,3.338z"/>
</g>
<g>
	<path class="st0" d="M101.17,25.79c-0.229,0.078-0.543,0.149-0.957,0.149c-1.129,0-2.156-0.885-2.156-2.142
		s1.049-2.157,2.156-2.157c0.657,0,1.192,0.243,1.385,0.343l-0.006,0.436c-0.201-0.106-0.715-0.407-1.371-0.407
		c-0.9,0-1.729,0.75-1.729,1.778c0,1.015,0.785,1.778,1.729,1.778c0.691,0,1.178-0.285,1.392-0.407v0.422
		C101.534,25.626,101.391,25.711,101.17,25.79z"/>
	<path class="st0" d="M103.487,25.896c-0.735,0-1.328-0.578-1.328-1.335s0.593-1.343,1.328-1.343s1.328,0.586,1.328,1.343
		S104.223,25.896,103.487,25.896z M103.487,23.576c-0.521,0-0.936,0.429-0.936,0.985s0.414,0.979,0.936,0.979
		s0.936-0.422,0.936-0.979S104.009,23.576,103.487,23.576z"/>
	<path class="st0" d="M107.155,25.818v-1.699c0-0.329-0.186-0.543-0.5-0.543c-0.457,0-0.757,0.421-0.813,0.492v1.75h-0.387v-2.521
		h0.387v0.356c0.057-0.063,0.335-0.436,0.871-0.436c0.457,0,0.828,0.308,0.828,0.871v1.729H107.155z"/>
	<path class="st0" d="M108.938,25.896c-0.386,0-0.636-0.136-0.735-0.186v-0.386c0.093,0.043,0.422,0.236,0.735,0.236
		c0.278,0,0.528-0.122,0.528-0.371c0-0.243-0.371-0.379-0.586-0.493c-0.25-0.136-0.699-0.35-0.699-0.765
		c0-0.442,0.364-0.714,0.871-0.714c0.371,0,0.629,0.144,0.699,0.186v0.364c-0.186-0.114-0.463-0.221-0.678-0.221
		c-0.321,0-0.514,0.156-0.514,0.35c0,0.235,0.313,0.364,0.527,0.464c0.236,0.114,0.758,0.336,0.758,0.808
		C109.846,25.654,109.432,25.896,108.938,25.896z"/>
	<path class="st0" d="M111.329,25.896c-0.364,0-0.735-0.192-0.735-0.893v-1.413h-0.535l0.106-0.293h0.429v-0.993h0.386v0.993h0.929
		l-0.107,0.293h-0.821v1.428c0,0.393,0.157,0.521,0.436,0.521c0.222,0,0.436-0.129,0.515-0.164v0.35
		C111.865,25.761,111.65,25.896,111.329,25.896z"/>
	<path class="st0" d="M113.471,23.583c-0.322,0-0.622,0.3-0.693,0.371v1.864h-0.386v-2.521h0.386v0.364
		c0.078-0.086,0.336-0.443,0.75-0.443c0.114,0,0.178,0.015,0.221,0.028v0.364C113.705,23.611,113.613,23.583,113.471,23.583z"/>
	<path class="st0" d="M115.804,25.818v-0.321c-0.071,0.093-0.293,0.399-0.808,0.399c-0.499,0-0.856-0.35-0.856-0.956v-1.643h0.386
		v1.606c0,0.407,0.236,0.628,0.564,0.628c0.449,0,0.664-0.421,0.714-0.507v-1.728h0.386v2.521H115.804z"/>
	<path class="st0" d="M118.187,25.896c-0.75,0-1.356-0.55-1.356-1.328c0-0.771,0.592-1.342,1.356-1.342
		c0.414,0,0.771,0.186,0.878,0.242v0.371c-0.093-0.05-0.428-0.249-0.871-0.249c-0.571,0-0.964,0.428-0.964,0.978
		c0,0.579,0.429,0.964,0.964,0.964c0.457,0,0.807-0.207,0.886-0.249v0.356C118.986,25.697,118.693,25.896,118.187,25.896z"/>
	<path class="st0" d="M120.563,25.896c-0.364,0-0.735-0.192-0.735-0.893v-1.413h-0.536l0.107-0.293h0.429v-0.993h0.386v0.993h0.928
		l-0.107,0.293h-0.82v1.428c0,0.393,0.156,0.521,0.436,0.521c0.221,0,0.436-0.129,0.514-0.164v0.35
		C121.098,25.761,120.884,25.896,120.563,25.896z"/>
	<path class="st0" d="M121.504,25.818v-0.129l1.342-1.499c0.364-0.407,0.693-0.85,0.693-1.314c0-0.507-0.336-0.864-0.836-0.864
		c-0.45,0-0.85,0.321-0.886,0.793h-0.371c0.036-0.657,0.593-1.178,1.264-1.178c0.729,0,1.257,0.485,1.257,1.242
		c0,0.586-0.464,1.157-0.75,1.471l-1,1.1h1.771v0.379H121.504z"/>
</g>
<g>
	<path class="st0" d="M100.684,35.929l-0.506-1.464h-1.393l-0.508,1.464h-0.449l1.442-4.057h0.421l1.443,4.057H100.684z
		 M99.663,32.937l-0.179-0.571l-0.186,0.571l-0.4,1.186h1.164L99.663,32.937z"/>
	<path class="st0" d="M103.166,32.337c-0.106-0.101-0.285-0.236-0.5-0.236c-0.285,0-0.542,0.229-0.542,0.657v0.65h0.8L102.81,33.7
		h-0.686v2.229h-0.386V33.7h-0.443l0.107-0.292h0.336v-0.643c0-0.644,0.471-1.015,0.921-1.015c0.372,0,0.622,0.222,0.75,0.343
		L103.166,32.337z"/>
	<path class="st0" d="M104.207,36.007c-0.363,0-0.734-0.192-0.734-0.893V33.7h-0.536l0.106-0.292h0.43v-0.993h0.385v0.993h0.929
		l-0.107,0.292h-0.821v1.429c0,0.393,0.157,0.521,0.436,0.521c0.222,0,0.436-0.129,0.515-0.164v0.35
		C104.743,35.872,104.529,36.007,104.207,36.007z"/>
	<path class="st0" d="M105.514,34.708c0.035,0.643,0.492,0.956,0.971,0.956c0.521,0,0.857-0.242,0.957-0.292v0.356
		c-0.072,0.043-0.414,0.278-1,0.278c-0.679,0-1.314-0.499-1.314-1.335c0-0.821,0.636-1.343,1.321-1.343
		c0.579,0,1.064,0.465,1.064,1.192v0.187H105.514z M106.412,33.672c-0.578,0-0.807,0.443-0.878,0.735h1.606
		C107.141,34.015,106.855,33.672,106.412,33.672z"/>
	<path class="st0" d="M109.281,33.693c-0.321,0-0.621,0.3-0.693,0.371v1.864h-0.385v-2.521h0.385v0.364
		c0.079-0.086,0.336-0.443,0.75-0.443c0.115,0,0.179,0.015,0.222,0.029v0.363C109.517,33.722,109.424,33.693,109.281,33.693z"/>
	<path class="st0" d="M111.371,35.929v-4.057h2.278v0.379h-1.856v1.442h1.428v0.371h-1.428v1.485h1.949v0.379H111.371z"/>
	<path class="st0" d="M116.004,32.337c-0.107-0.101-0.286-0.236-0.5-0.236c-0.286,0-0.543,0.229-0.543,0.657v0.65h0.8l-0.114,0.292
		h-0.686v2.229h-0.386V33.7h-0.442l0.106-0.292h0.336v-0.643c0-0.644,0.472-1.015,0.921-1.015c0.371,0,0.621,0.222,0.75,0.343
		L116.004,32.337z"/>
	<path class="st0" d="M117.773,32.337c-0.107-0.101-0.286-0.236-0.5-0.236c-0.286,0-0.543,0.229-0.543,0.657v0.65h0.8l-0.114,0.292
		h-0.686v2.229h-0.386V33.7h-0.442l0.106-0.292h0.336v-0.643c0-0.644,0.472-1.015,0.921-1.015c0.371,0,0.621,0.222,0.75,0.343
		L117.773,32.337z"/>
	<path class="st0" d="M118.215,34.708c0.035,0.643,0.492,0.956,0.971,0.956c0.521,0,0.857-0.242,0.957-0.292v0.356
		c-0.072,0.043-0.414,0.278-1,0.278c-0.679,0-1.314-0.499-1.314-1.335c0-0.821,0.636-1.343,1.321-1.343
		c0.579,0,1.064,0.465,1.064,1.192v0.187H118.215z M119.113,33.672c-0.578,0-0.807,0.443-0.878,0.735h1.606
		C119.842,34.015,119.557,33.672,119.113,33.672z"/>
	<path class="st0" d="M122.118,36.007c-0.75,0-1.356-0.55-1.356-1.328c0-0.771,0.592-1.342,1.356-1.342
		c0.414,0,0.771,0.186,0.878,0.242v0.371c-0.093-0.05-0.428-0.25-0.871-0.25c-0.571,0-0.964,0.429-0.964,0.979
		c0,0.579,0.429,0.965,0.964,0.965c0.457,0,0.807-0.208,0.886-0.25v0.356C122.918,35.808,122.625,36.007,122.118,36.007z"/>
	<path class="st0" d="M124.494,36.007c-0.365,0-0.736-0.192-0.736-0.893V33.7h-0.535l0.107-0.292h0.428v-0.993h0.386v0.993h0.929
		l-0.107,0.292h-0.821v1.429c0,0.393,0.157,0.521,0.437,0.521c0.221,0,0.436-0.129,0.514-0.164v0.35
		C125.029,35.872,124.814,36.007,124.494,36.007z"/>
</g>
<g>
	<path class="st0" d="M98.285,47.875v-5.892h0.421v5.471L98.285,47.875z"/>
	<path class="st0" d="M101.04,46.04l-0.036-0.214c-0.078,0.063-0.293,0.285-0.75,0.285c-0.428,0-0.807-0.307-0.807-0.807
		c0-0.55,0.422-0.857,1.064-0.929l0.471-0.05v-0.479h-1.378l0.071-0.328h1.686v2.521H101.04z M100.982,44.619l-0.414,0.05
		c-0.471,0.057-0.735,0.265-0.735,0.614c0,0.293,0.222,0.514,0.528,0.514c0.322,0,0.536-0.229,0.621-0.313V44.619z"/>
	<path class="st0" d="M103.088,46.04h-0.394l-0.907-2.521h0.414l0.686,2.014l0.693-2.014h0.414L103.088,46.04z"/>
	<path class="st0" d="M105.835,46.04l-0.036-0.214c-0.078,0.063-0.293,0.285-0.75,0.285c-0.428,0-0.807-0.307-0.807-0.807
		c0-0.55,0.422-0.857,1.064-0.929l0.471-0.05v-0.479h-1.378l0.071-0.328h1.686v2.521H105.835z M105.777,44.619l-0.414,0.05
		c-0.471,0.057-0.735,0.265-0.735,0.614c0,0.293,0.222,0.514,0.528,0.514c0.322,0,0.536-0.229,0.621-0.313V44.619z"/>
	<path class="st0" d="M107.939,46.154c-0.378,0-0.764-0.114-1.092-0.293v-0.464c0.178,0.107,0.664,0.378,1.092,0.378
		c0.472,0,0.844-0.249,0.844-0.671c0-0.328-0.336-0.593-0.586-0.757l-0.621-0.407c-0.308-0.2-0.679-0.5-0.679-1.014
		c0-0.693,0.507-1.057,1.149-1.057c0.429,0,0.742,0.143,0.929,0.235v0.429c-0.222-0.129-0.571-0.293-0.929-0.293
		c-0.442,0-0.735,0.271-0.735,0.649c0,0.336,0.286,0.543,0.563,0.729l0.594,0.393c0.299,0.2,0.742,0.515,0.742,1.078
		C109.211,45.747,108.676,46.154,107.939,46.154z"/>
	<path class="st0" d="M111.115,46.118c-0.75,0-1.357-0.55-1.357-1.328c0-0.771,0.594-1.342,1.357-1.342
		c0.414,0,0.771,0.186,0.878,0.242v0.371c-0.093-0.05-0.429-0.25-0.871-0.25c-0.571,0-0.964,0.429-0.964,0.979
		c0,0.579,0.428,0.965,0.964,0.965c0.457,0,0.808-0.208,0.886-0.25v0.356C111.915,45.919,111.622,46.118,111.115,46.118z"/>
	<path class="st0" d="M113.727,43.805c-0.32,0-0.621,0.3-0.692,0.371v1.864h-0.386V43.52h0.386v0.364
		c0.079-0.086,0.336-0.443,0.75-0.443c0.114,0,0.179,0.015,0.222,0.029v0.363C113.963,43.833,113.869,43.805,113.727,43.805z"/>
	<path class="st0" d="M114.661,43.026l-0.329-0.321l0.322-0.321l0.328,0.321L114.661,43.026z M114.469,46.04V43.52h0.385v2.521
		H114.469z"/>
	<path class="st0" d="M116.846,46.118c-0.43,0-0.664-0.164-0.75-0.207v1.75h-0.387V43.52h0.387v0.343l0.785-0.422
		c0.278,0.079,1.221,0.351,1.221,1.414C118.102,45.547,117.523,46.118,116.846,46.118z M116.888,43.819l-0.792,0.393v1.321
		c0.07,0.043,0.314,0.229,0.649,0.229c0.515,0,0.957-0.407,0.957-0.921C117.702,44.134,117.116,43.905,116.888,43.819z"/>
	<path class="st0" d="M119.584,46.118c-0.363,0-0.734-0.192-0.734-0.893v-1.414h-0.536l0.106-0.292h0.43v-0.993h0.385v0.993h0.929
		l-0.107,0.292h-0.821v1.429c0,0.393,0.157,0.521,0.436,0.521c0.222,0,0.436-0.129,0.515-0.164v0.35
		C120.12,45.983,119.906,46.118,119.584,46.118z"/>
</g>
<g>
	<path class="st0" d="M100.684,15.595l-0.506-1.464h-1.393l-0.508,1.464h-0.449l1.442-4.057h0.421l1.443,4.057H100.684z
		 M99.663,12.603l-0.179-0.571l-0.186,0.571l-0.4,1.186h1.164L99.663,12.603z"/>
	<path class="st0" d="M103.26,15.595v-0.321c-0.072,0.093-0.293,0.399-0.808,0.399c-0.499,0-0.856-0.35-0.856-0.956v-1.643h0.385
		v1.606c0,0.407,0.236,0.629,0.564,0.629c0.45,0,0.664-0.422,0.715-0.508v-1.728h0.385v2.521H103.26z"/>
	<path class="st0" d="M106.292,15.595v-0.343l-0.785,0.421c-0.278-0.078-1.222-0.35-1.222-1.413c0-0.693,0.579-1.265,1.258-1.265
		c0.428,0,0.664,0.164,0.749,0.207v-1.664h0.386v4.057H106.292z M106.292,13.581c-0.063-0.043-0.313-0.229-0.649-0.229
		c-0.514,0-0.957,0.407-0.957,0.921c0,0.707,0.586,0.936,0.814,1.021l0.792-0.393V13.581z"/>
	<path class="st0" d="M107.725,12.581l-0.328-0.321l0.321-0.321l0.329,0.321L107.725,12.581z M107.532,15.595v-2.521h0.386v2.521
		H107.532z"/>
	<path class="st0" d="M109.616,15.673c-0.364,0-0.735-0.192-0.735-0.893v-1.414h-0.535l0.106-0.292h0.429v-0.993h0.386v0.993h0.929
		l-0.107,0.292h-0.821v1.429c0,0.393,0.157,0.521,0.436,0.521c0.222,0,0.436-0.129,0.515-0.164v0.35
		C110.152,15.538,109.938,15.673,109.616,15.673z"/>
	<path class="st0" d="M110.943,12.581l-0.328-0.321l0.32-0.321l0.329,0.321L110.943,12.581z M110.75,15.595v-2.521h0.386v2.521
		H110.75z"/>
	<path class="st0" d="M113.178,15.673c-0.736,0-1.328-0.578-1.328-1.335s0.592-1.343,1.328-1.343c0.735,0,1.328,0.586,1.328,1.343
		S113.913,15.673,113.178,15.673z M113.178,13.353c-0.521,0-0.936,0.429-0.936,0.985s0.414,0.979,0.936,0.979
		s0.936-0.422,0.936-0.979S113.699,13.353,113.178,13.353z"/>
	<path class="st0" d="M116.846,15.595v-1.699c0-0.329-0.186-0.543-0.5-0.543c-0.457,0-0.758,0.421-0.814,0.492v1.75h-0.386v-2.521
		h0.386v0.356c0.057-0.064,0.336-0.436,0.871-0.436c0.457,0,0.828,0.308,0.828,0.871v1.729H116.846z"/>
</g>
</svg>