<!-- Generator: Adobe Illustrator 21.1.0, SVG Export Plug-In  -->
<svg version="1.1"
	 xmlns="http://www.w3.org/2000/svg" xmlns:xlink="http://www.w3.org/1999/xlink" xmlns:a="http://ns.adobe.com/AdobeSVGViewerExtensions/3.0/"
	 x="0px" y="0px" width="110.333px" height="98.815px" viewBox="0 0 110.333 98.815"
	 style="overflow:scroll;enable-background:new 0 0 110.333 98.815;" xml:space="preserve">
<style type="text/css">
	.st0{fill:#29196E;}
	.st1{font-family:'PrioriSanRegular';}
	.st2{font-size:5.7937px;}
</style>
<defs>
</defs>
<g>
	<path class="st0" d="M2.975,4.542V3.145c0-0.255-0.134-0.423-0.377-0.423c-0.354,0-0.591,0.33-0.638,0.383v1.438H1.646V3.145
		c0-0.255-0.134-0.423-0.376-0.423c-0.354,0-0.592,0.33-0.639,0.383v1.438H0.319V2.495h0.313v0.278
		c0.047-0.052,0.262-0.342,0.679-0.342c0.272,0,0.499,0.133,0.597,0.389c0.151-0.157,0.337-0.389,0.736-0.389
		c0.359,0,0.645,0.237,0.645,0.678v1.433H2.975z"/>
	<path class="st0" d="M5.07,4.542L5.042,4.368C4.978,4.42,4.804,4.6,4.433,4.6c-0.348,0-0.655-0.249-0.655-0.655
		c0-0.446,0.343-0.695,0.864-0.753L5.024,3.15V2.762H3.905l0.058-0.267h1.368v2.047H5.07z M5.024,3.388L4.688,3.429
		C4.306,3.476,4.091,3.644,4.091,3.928c0,0.237,0.18,0.417,0.429,0.417c0.261,0,0.435-0.186,0.505-0.255V3.388z"/>
	<path class="st0" d="M6.843,2.728c-0.26,0-0.504,0.243-0.563,0.301v1.514H5.968V2.495H6.28v0.296
		C6.345,2.722,6.554,2.432,6.89,2.432c0.093,0,0.145,0.012,0.18,0.022V2.75C7.034,2.75,6.96,2.728,6.843,2.728z"/>
	<path class="st0" d="M8.698,4.542L8.002,3.551L7.7,3.857v0.685H7.388V1.249H7.7v2.255l0.986-1.009h0.377L8.216,3.336l0.87,1.206
		H8.698z"/>
	<path class="st0" d="M9.63,3.551c0.028,0.521,0.399,0.776,0.788,0.776c0.423,0,0.696-0.197,0.776-0.237v0.29
		c-0.058,0.034-0.336,0.226-0.811,0.226c-0.552,0-1.067-0.405-1.067-1.084c0-0.667,0.516-1.09,1.072-1.09
		c0.47,0,0.864,0.377,0.864,0.968v0.151H9.63z M10.36,2.71c-0.471,0-0.656,0.359-0.714,0.597h1.305
		C10.951,2.988,10.72,2.71,10.36,2.71z"/>
	<path class="st0" d="M12.497,4.605c-0.295,0-0.597-0.156-0.597-0.725V2.733h-0.435l0.087-0.238H11.9V1.689h0.313v0.806h0.754
		L12.88,2.733h-0.666v1.159c0,0.319,0.127,0.423,0.354,0.423c0.18,0,0.354-0.104,0.418-0.133v0.284
		C12.933,4.495,12.759,4.605,12.497,4.605z"/>
	<path class="st0" d="M13.575,2.095l-0.268-0.261l0.262-0.261l0.267,0.261L13.575,2.095z M13.419,4.542V2.495h0.313v2.047H13.419z"
		/>
	<path class="st0" d="M15.806,4.542v-1.38c0-0.267-0.15-0.44-0.405-0.44c-0.371,0-0.614,0.342-0.661,0.399v1.421h-0.313V2.495h0.313
		v0.29c0.047-0.052,0.272-0.354,0.707-0.354c0.371,0,0.674,0.249,0.674,0.707v1.403H15.806z"/>
	<path class="st0" d="M18.233,2.738c0.14,0.151,0.221,0.349,0.221,0.563c0,0.481-0.406,0.876-0.916,0.876
		c-0.109,0-0.215-0.018-0.313-0.053l-0.215,0.284c0.052,0.006,0.081,0.012,0.109,0.023l0.742,0.238
		c0.313,0.099,0.615,0.295,0.615,0.695c0,0.424-0.418,0.713-0.898,0.713c-0.598,0-0.986-0.371-0.986-0.765
		c0-0.365,0.313-0.58,0.395-0.633L16.61,4.56l0.4-0.539c-0.238-0.163-0.389-0.424-0.389-0.714c0-0.481,0.412-0.875,0.916-0.875
		c0.25,0,0.476,0.093,0.638,0.243l0.181-0.18h0.411v0.243H18.233z M17.788,4.931l-0.534-0.168c-0.075,0.046-0.145,0.099-0.202,0.162
		c-0.082,0.093-0.163,0.221-0.163,0.383c0,0.272,0.278,0.504,0.69,0.504c0.411,0,0.603-0.231,0.603-0.446S18.02,5.006,17.788,4.931z
		 M17.538,2.704c-0.336,0-0.614,0.261-0.614,0.603c0,0.337,0.278,0.598,0.614,0.598c0.342,0,0.621-0.261,0.621-0.598
		C18.159,2.965,17.88,2.704,17.538,2.704z"/>
</g>
<g>
	<path class="st0" d="M71.036,94.363c-0.087-0.081-0.232-0.19-0.406-0.19c-0.232,0-0.44,0.186-0.44,0.533v0.527h0.649l-0.093,0.238
		h-0.557v1.809h-0.313v-1.809h-0.359l0.087-0.238h0.272v-0.521c0-0.522,0.383-0.823,0.748-0.823c0.302,0,0.505,0.18,0.609,0.278
		L71.036,94.363z"/>
	<path class="st0" d="M72.159,97.344c-0.598,0-1.078-0.47-1.078-1.084s0.48-1.09,1.078-1.09s1.078,0.476,1.078,1.09
		S72.757,97.344,72.159,97.344z M72.159,95.46c-0.423,0-0.76,0.348-0.76,0.8s0.337,0.794,0.76,0.794c0.424,0,0.76-0.342,0.76-0.794
		S72.583,95.46,72.159,95.46z"/>
	<path class="st0" d="M74.442,97.344c-0.296,0-0.598-0.156-0.598-0.725v-1.147H73.41l0.087-0.238h0.348v-0.806h0.313v0.806h0.753
		l-0.086,0.238h-0.667v1.159c0,0.319,0.128,0.423,0.354,0.423c0.18,0,0.354-0.104,0.417-0.133v0.284
		C74.877,97.233,74.703,97.344,74.442,97.344z"/>
	<path class="st0" d="M76.267,97.344c-0.597,0-1.078-0.47-1.078-1.084s0.481-1.09,1.078-1.09c0.598,0,1.079,0.476,1.079,1.09
		S76.864,97.344,76.267,97.344z M76.267,95.46c-0.423,0-0.759,0.348-0.759,0.8s0.336,0.794,0.759,0.794
		c0.424,0,0.76-0.342,0.76-0.794S76.69,95.46,76.267,95.46z"/>
	<path class="st0" d="M79.344,95.477c0.14,0.151,0.221,0.349,0.221,0.563c0,0.481-0.406,0.876-0.917,0.876
		c-0.109,0-0.214-0.018-0.313-0.053l-0.215,0.284c0.053,0.006,0.082,0.012,0.11,0.023l0.742,0.238
		c0.313,0.099,0.614,0.295,0.614,0.695c0,0.424-0.417,0.713-0.898,0.713c-0.598,0-0.985-0.371-0.985-0.765
		c0-0.365,0.313-0.58,0.394-0.633l-0.377-0.121l0.4-0.539c-0.237-0.163-0.389-0.424-0.389-0.714c0-0.481,0.412-0.875,0.916-0.875
		c0.25,0,0.477,0.093,0.639,0.243l0.18-0.18h0.412v0.243H79.344z M78.897,97.669l-0.533-0.168c-0.076,0.046-0.146,0.099-0.203,0.162
		c-0.081,0.093-0.162,0.221-0.162,0.383c0,0.272,0.277,0.504,0.689,0.504s0.604-0.231,0.604-0.446S79.13,97.744,78.897,97.669z
		 M78.647,95.442c-0.336,0-0.614,0.261-0.614,0.603c0,0.337,0.278,0.598,0.614,0.598c0.343,0,0.621-0.261,0.621-0.598
		C79.269,95.703,78.99,95.442,78.647,95.442z"/>
	<path class="st0" d="M80.995,95.466c-0.262,0-0.505,0.243-0.563,0.301v1.514h-0.313v-2.047h0.313v0.296
		c0.063-0.069,0.272-0.359,0.608-0.359c0.093,0,0.146,0.012,0.18,0.022v0.296C81.187,95.488,81.11,95.466,80.995,95.466z"/>
	<path class="st0" d="M82.687,97.28l-0.029-0.174c-0.063,0.052-0.237,0.231-0.608,0.231c-0.348,0-0.655-0.249-0.655-0.655
		c0-0.446,0.342-0.695,0.864-0.753l0.382-0.041V95.5h-1.118l0.058-0.267h1.369v2.047H82.687z M82.64,96.126l-0.336,0.041
		c-0.383,0.047-0.597,0.215-0.597,0.499c0,0.237,0.18,0.417,0.429,0.417c0.262,0,0.436-0.186,0.504-0.255V96.126z"/>
	<path class="st0" d="M84.859,94.363c-0.087-0.081-0.231-0.19-0.406-0.19c-0.231,0-0.44,0.186-0.44,0.533v0.527h0.649l-0.093,0.238
		h-0.557v1.809H83.7v-1.809h-0.36l0.087-0.238H83.7v-0.521c0-0.522,0.382-0.823,0.747-0.823c0.302,0,0.505,0.18,0.608,0.278
		L84.859,94.363z"/>
	<path class="st0" d="M85.235,94.833l-0.268-0.261l0.262-0.261l0.267,0.261L85.235,94.833z M85.079,97.28v-2.047h0.313v2.047H85.079
		z"/>
	<path class="st0" d="M87.234,97.28l-0.028-0.174c-0.064,0.052-0.238,0.231-0.609,0.231c-0.348,0-0.655-0.249-0.655-0.655
		c0-0.446,0.343-0.695,0.864-0.753l0.383-0.041V95.5h-1.119l0.058-0.267h1.368v2.047H87.234z M87.188,96.126l-0.336,0.041
		c-0.383,0.047-0.598,0.215-0.598,0.499c0,0.237,0.18,0.417,0.429,0.417c0.261,0,0.435-0.186,0.505-0.255V96.126z"/>
</g>
<g>
	<path class="st0" d="M96.753,48.927c0.029,0.521,0.4,0.776,0.789,0.776c0.424,0,0.695-0.197,0.777-0.237v0.29
		c-0.059,0.034-0.337,0.226-0.813,0.226c-0.551,0-1.066-0.405-1.066-1.084c0-0.667,0.516-1.09,1.072-1.09
		c0.47,0,0.864,0.377,0.864,0.968v0.151H96.753z M97.483,48.086c-0.469,0-0.654,0.359-0.713,0.597h1.305
		C98.075,48.364,97.843,48.086,97.483,48.086z"/>
	<path class="st0" d="M100.451,49.918V49.64l-0.638,0.342c-0.227-0.063-0.992-0.284-0.992-1.147c0-0.563,0.47-1.026,1.021-1.026
		c0.348,0,0.539,0.133,0.608,0.168v-1.352h0.313v3.294H100.451z M100.451,48.283c-0.052-0.035-0.255-0.186-0.528-0.186
		c-0.417,0-0.776,0.33-0.776,0.748c0,0.573,0.476,0.759,0.661,0.829l0.644-0.319V48.283z"/>
	<path class="st0" d="M101.614,47.471l-0.268-0.261l0.262-0.261l0.267,0.261L101.614,47.471z M101.458,49.918v-2.047h0.313v2.047
		H101.458z"/>
	<path class="st0" d="M103.451,49.981c-0.608,0-1.102-0.446-1.102-1.078c0-0.626,0.481-1.09,1.102-1.09
		c0.337,0,0.626,0.15,0.713,0.197v0.301c-0.075-0.04-0.348-0.203-0.707-0.203c-0.464,0-0.782,0.349-0.782,0.795
		c0,0.47,0.348,0.783,0.782,0.783c0.371,0,0.655-0.169,0.719-0.203v0.29C104.101,49.819,103.862,49.981,103.451,49.981z"/>
	<path class="st0" d="M104.911,47.471l-0.268-0.261l0.262-0.261l0.267,0.261L104.911,47.471z M104.755,49.918v-2.047h0.313v2.047
		H104.755z"/>
	<path class="st0" d="M106.725,49.981c-0.597,0-1.078-0.47-1.078-1.084s0.481-1.09,1.078-1.09c0.598,0,1.079,0.476,1.079,1.09
		S107.322,49.981,106.725,49.981z M106.725,48.098c-0.423,0-0.759,0.348-0.759,0.8s0.336,0.794,0.759,0.794s0.76-0.342,0.76-0.794
		S107.147,48.098,106.725,48.098z"/>
	<path class="st0" d="M109.702,49.918v-1.38c0-0.267-0.15-0.44-0.405-0.44c-0.371,0-0.614,0.342-0.661,0.399v1.421h-0.313v-2.047
		h0.313v0.29c0.047-0.053,0.272-0.354,0.707-0.354c0.371,0,0.674,0.249,0.674,0.707v1.403H109.702z"/>
</g>
</svg>