<!-- Generator: Adobe Illustrator 21.1.0, SVG Export Plug-In  -->
<svg version="1.1"
	 xmlns="http://www.w3.org/2000/svg" xmlns:xlink="http://www.w3.org/1999/xlink" xmlns:a="http://ns.adobe.com/AdobeSVGViewerExtensions/3.0/"
	 x="0px" y="0px" width="148.535px" height="43.006px" viewBox="0 0 148.535 43.006"
	 style="overflow:scroll;enable-background:new 0 0 148.535 43.006;" xml:space="preserve">
<style type="text/css">
	.st0{fill:#29196E;}
	.st1{fill:none;stroke:#4F517E;stroke-width:0.5;}
	.st2{fill:none;stroke:#BE0D2A;stroke-width:0.374;stroke-miterlimit:10;}
	.st3{font-family:'PrioriSanRegular';}
	.st4{font-size:5.7937px;}
</style>
<defs>
</defs>
<g>
	<path class="st0" d="M0.975,4.635c-0.465,0-0.714-0.197-0.858-0.336l0.186-0.227c0.116,0.116,0.348,0.278,0.644,0.278
		c0.389,0,0.794-0.284,0.794-0.8c0-0.481-0.388-0.702-0.73-0.702c-0.11,0-0.237,0.035-0.325,0.07L0.574,2.768
		c0.342-0.191,0.881-0.51,1.09-1.212H0.203V1.249h1.82v0.168c-0.109,0.742-0.626,1.107-0.771,1.2
		c0.244,0.034,0.842,0.267,0.842,0.922C2.094,4.206,1.571,4.635,0.975,4.635z"/>
	<path class="st0" d="M3.837,4.542H2.811V1.249h0.997c0.945,0,1.85,0.597,1.85,1.658C5.657,3.979,4.775,4.542,3.837,4.542z
		 M3.825,1.556H3.152v2.667h0.701c0.801,0,1.45-0.475,1.45-1.315C5.304,2.072,4.625,1.556,3.825,1.556z"/>
</g>
<line class="st1" x1="101.71" y1="42.502" x2="104.744" y2="39.468"/>
<line class="st1" x1="145.324" y1="42.502" x2="148.358" y2="39.468"/>
<path class="st2" d="M103.238,42.096l1.032-1.032 M103.834,42.096l1.032-1.032 M104.43,42.096l1.032-1.032 M105.027,42.096
	l1.032-1.032 M105.623,42.096l1.032-1.032 M106.219,42.096l1.032-1.032 M106.815,42.096l1.032-1.032 M107.411,42.096l1.032-1.032
	 M108.008,42.096l1.032-1.032 M108.603,42.096l1.032-1.032 M109.2,42.096l1.032-1.032 M109.796,42.096l1.032-1.032 M110.392,42.096
	l1.032-1.032 M110.988,42.096l1.032-1.032 M111.584,42.096l1.032-1.032 M112.181,42.096l1.032-1.032 M112.777,42.096l1.032-1.032
	 M113.373,42.096l1.032-1.032 M113.969,42.096l1.032-1.032 M114.565,42.096l1.032-1.032 M115.162,42.096l1.032-1.032
	 M115.757,42.096l1.032-1.032 M116.354,42.096l1.032-1.032 M116.95,42.096l1.032-1.032 M117.546,42.096l1.032-1.032 M118.143,42.096
	l1.032-1.032 M118.738,42.096l1.032-1.032 M119.335,42.096l1.032-1.032 M119.931,42.096l1.032-1.032 M120.527,42.096l1.032-1.032
	 M121.123,42.096l1.032-1.032 M121.719,42.096l1.032-1.032 M122.316,42.096l1.032-1.032 M122.912,42.096l1.032-1.032
	 M123.508,42.096l1.032-1.032 M124.104,42.096l1.032-1.032 M124.7,42.096l1.032-1.032 M125.297,42.096l1.032-1.032 M125.892,42.096
	l1.032-1.032 M126.489,42.096l1.032-1.032 M127.085,42.096l1.032-1.032 M127.681,42.096l1.032-1.032 M128.278,42.096l1.032-1.032
	 M128.873,42.096l1.032-1.032 M129.47,42.096l1.032-1.032"/>
<line class="st1" x1="104.617" y1="39.468" x2="148.463" y2="39.468"/>
<line class="st1" x1="101.373" y1="42.756" x2="145.219" y2="42.756"/>
<path class="st2" d="M104.118,41.19l1.032-1.032 M104.715,41.19l1.032-1.032 M105.311,41.19l1.032-1.032 M105.907,41.19l1.032-1.032
	 M106.503,41.19l1.032-1.032 M107.099,41.19l1.032-1.032 M107.696,41.19l1.032-1.032 M108.292,41.19l1.032-1.032 M108.888,41.19
	l1.032-1.032 M109.484,41.19l1.032-1.032 M110.08,41.19l1.032-1.032 M110.677,41.19l1.032-1.032 M111.272,41.19l1.032-1.032
	 M111.869,41.19l1.032-1.032 M112.465,41.19l1.032-1.032 M113.061,41.19l1.032-1.032 M113.658,41.19l1.032-1.032 M114.253,41.19
	l1.032-1.032 M114.85,41.19l1.032-1.032 M115.446,41.19l1.032-1.032 M116.042,41.19l1.032-1.032 M116.638,41.19l1.032-1.032
	 M117.234,41.19l1.032-1.032 M117.831,41.19l1.032-1.032 M118.427,41.19l1.032-1.032 M119.023,41.19l1.032-1.032 M119.619,41.19
	l1.032-1.032 M120.215,41.19l1.032-1.032 M120.812,41.19l1.032-1.032 M121.407,41.19l1.032-1.032 M122.004,41.19l1.032-1.032
	 M122.6,41.19l1.032-1.032 M123.196,41.19l1.032-1.032 M123.793,41.19l1.032-1.032 M124.388,41.19l1.032-1.032 M124.985,41.19
	l1.032-1.032 M125.581,41.19l1.032-1.032 M126.177,41.19l1.032-1.032 M126.773,41.19l1.032-1.032 M127.369,41.19l1.032-1.032
	 M127.966,41.19l1.032-1.032 M128.562,41.19l1.032-1.032 M129.158,41.19l1.032-1.032 M129.754,41.19l1.032-1.032 M130.35,41.19
	l1.032-1.032"/>
</svg>