<!-- Generator: Adobe Illustrator 21.1.0, SVG Export Plug-In  -->
<svg version="1.1"
	 xmlns="http://www.w3.org/2000/svg" xmlns:xlink="http://www.w3.org/1999/xlink" xmlns:a="http://ns.adobe.com/AdobeSVGViewerExtensions/3.0/"
	 x="0px" y="0px" width="409.569px" height="410.862px" viewBox="0 0 409.569 410.862"
	 style="overflow:scroll;enable-background:new 0 0 409.569 410.862;" xml:space="preserve">
<style type="text/css">
	.st0{fill:none;stroke:#C71C39;stroke-miterlimit:10;}
</style>
<defs>
</defs>
<path class="st0" d="M0.458,285.39c32.398,73.62,108.184,125.181,196.397,124.971c117.472-0.279,212.483-92.256,212.214-205.436
	C408.8,91.746,313.352,0.221,195.88,0.501c-2.089,0.005-4.155,0.104-6.229,0.167"/>
<path class="st0" d="M220.156,370.325c63.935-12.008,117.686-61.177,132.429-128.929"/>
<path class="st0" d="M11.976,191.79C20.558,127.307,66.791,71.01,133.66,52.675"/>
<path class="st0" d="M150.13,107.348c-1.276,0.433-2.55,0.88-3.82,1.361c-58.912,22.292-88.219,87.687-65.461,146.064
	c22.759,58.377,88.965,87.629,147.877,65.336c38.333-14.505,64.125-47.262,71.201-84.459"/>
</svg>