<!-- Generator: Adobe Illustrator 21.1.0, SVG Export Plug-In  -->
<svg version="1.1"
	 xmlns="http://www.w3.org/2000/svg" xmlns:xlink="http://www.w3.org/1999/xlink" xmlns:a="http://ns.adobe.com/AdobeSVGViewerExtensions/3.0/"
	 x="0px" y="0px" width="167px" height="74.756px" viewBox="0 0 167 74.756"
	 style="overflow:scroll;enable-background:new 0 0 167 74.756;" xml:space="preserve">
<style type="text/css">
	.st0{fill:none;}
	.st1{fill:#BE0D2A;}
	.st2{fill:#192577;}
	.st3{fill:#1B1863;}
	.st4{font-family:'PrioriSanRegular';}
	.st5{font-size:16.3859px;}
	.st6{font-size:7px;}
</style>
<defs>
</defs>
<g>
	<rect y="3.54" class="st0" width="76" height="32.216"/>
	<path class="st1" d="M38.034,13.108c-0.868,0-1.753-0.263-2.507-0.672v-1.065c0.409,0.246,1.523,0.869,2.507,0.869
		c1.082,0,1.935-0.574,1.935-1.541c0-0.754-0.771-1.359-1.345-1.736l-1.425-0.935c-0.705-0.459-1.558-1.147-1.558-2.327
		c0-1.59,1.164-2.426,2.639-2.426c0.983,0,1.704,0.328,2.131,0.541V4.8C39.902,4.505,39.1,4.128,38.28,4.128
		c-1.016,0-1.688,0.622-1.688,1.491c0,0.77,0.655,1.246,1.294,1.672l1.36,0.9c0.688,0.459,1.704,1.181,1.704,2.475
		C40.951,12.174,39.723,13.108,38.034,13.108z"/>
	<path class="st1" d="M47.358,13.125c-2.885,0-5.031-2.213-5.031-4.934c0-2.72,2.146-4.932,5.031-4.932
		c2.884,0,5.03,2.212,5.03,4.932C52.389,10.912,50.242,13.125,47.358,13.125z M47.358,4.111c-2.312,0-4.032,1.836-4.032,4.08
		c0,2.246,1.721,4.081,4.032,4.081c2.311,0,4.031-1.835,4.031-4.081C51.39,5.947,49.669,4.111,47.358,4.111z"/>
	<path class="st1" d="M57.238,12.846h-2.949V3.538h2.557c1.885,0,2.818,1.212,2.818,2.474c0,0.705-0.295,1.345-0.819,1.787
		c-0.099,0.098-0.181,0.147-0.278,0.229c1.032,0.476,1.523,1.312,1.523,2.261C60.09,11.879,58.878,12.846,57.238,12.846z
		 M56.682,4.357h-1.426v3.262h1.852c0.164,0,0.459,0.016,0.655,0.049c0.066-0.049,0.132-0.099,0.229-0.164
		c0.459-0.361,0.672-0.869,0.672-1.442C58.664,4.98,57.943,4.357,56.682,4.357z M56.813,8.422h-1.557v3.572h1.835
		c1.131,0,2-0.672,2-1.787C59.091,9.208,58.271,8.422,56.813,8.422z"/>
	<path class="st1" d="M67.628,13.01c-0.787,0-1.099-0.409-1.442-0.918L64.055,8.93h-1.098v3.916H61.99V3.538h2.163
		c1.982,0,3.146,1.049,3.146,2.688c0,1.475-1.049,2.327-2.18,2.605l1.934,2.819c0.263,0.377,0.508,0.59,0.787,0.59
		c0.312,0,0.508-0.181,0.622-0.312l0.361,0.36C68.742,12.42,68.414,13.01,67.628,13.01z M64.055,4.391h-1.098v3.769h1.032
		c1.098,0,2.311-0.476,2.311-1.95C66.3,4.996,65.546,4.391,64.055,4.391z"/>
	<path class="st1" d="M69.872,12.846V3.538H75.1v0.868h-4.261v3.311h3.277v0.852h-3.277v3.409h4.474v0.868H69.872z"/>
	<path class="st1" d="M70.3,32.51v-6.769l-3.36,6.769h-0.605l-3.36-6.769v6.769H62.04v-9.309h0.639l3.966,7.883l3.95-7.883h0.639
		v9.309H70.3z"/>
	<path class="st1" d="M73.739,32.51v-9.309h0.967v9.309H73.739z"/>
</g>
<g>
</g>
<g>
	<rect x="84" y="5.423" class="st0" width="83" height="69.333"/>
	<path class="st2" d="M85.365,9.511c-0.371,0-0.749-0.112-1.071-0.287V8.769c0.175,0.104,0.651,0.371,1.071,0.371
		c0.463,0,0.827-0.245,0.827-0.659c0-0.321-0.329-0.581-0.575-0.742l-0.608-0.399c-0.302-0.195-0.665-0.49-0.665-0.994
		c0-0.68,0.496-1.036,1.127-1.036c0.42,0,0.729,0.14,0.91,0.23V5.96c-0.217-0.126-0.561-0.287-0.91-0.287
		c-0.434,0-0.721,0.266-0.721,0.637c0,0.329,0.279,0.532,0.553,0.715l0.581,0.385c0.294,0.196,0.729,0.505,0.729,1.058
		C86.612,9.111,86.087,9.511,85.365,9.511z"/>
	<path class="st2" d="M88.453,9.476c-0.722,0-1.303-0.567-1.303-1.31s0.581-1.317,1.303-1.317c0.721,0,1.303,0.575,1.303,1.317
		S89.174,9.476,88.453,9.476z M88.453,7.199c-0.512,0-0.918,0.42-0.918,0.967c0,0.546,0.406,0.959,0.918,0.959
		c0.511,0,0.917-0.413,0.917-0.959C89.37,7.619,88.964,7.199,88.453,7.199z"/>
	<path class="st2" d="M91.301,9.398l-0.561,1.59h-0.377l0.56-1.59l-0.89-2.473h0.406l0.673,1.976l0.679-1.976h0.406L91.301,9.398z"
		/>
	<path class="st2" d="M95.249,9.398H94.01V5.42h1.205c1.141,0,2.233,0.722,2.233,2.004C97.448,8.719,96.384,9.398,95.249,9.398z
		 M95.235,5.791h-0.813v3.223h0.847c0.967,0,1.752-0.575,1.752-1.59C97.021,6.415,96.201,5.791,95.235,5.791z"/>
	<path class="st2" d="M99.512,9.398l-0.035-0.21c-0.076,0.063-0.287,0.28-0.734,0.28c-0.42,0-0.792-0.302-0.792-0.792
		c0-0.539,0.413-0.84,1.044-0.91l0.462-0.049v-0.47h-1.352l0.069-0.322h1.653v2.473H99.512z M99.456,8.005L99.05,8.054
		c-0.462,0.056-0.722,0.259-0.722,0.603c0,0.287,0.218,0.504,0.519,0.504c0.315,0,0.525-0.224,0.609-0.308V8.005z"/>
	<path class="st2" d="M102.264,9.398V7.731c0-0.322-0.182-0.532-0.49-0.532c-0.448,0-0.742,0.413-0.799,0.483v1.716h-0.378V6.926
		h0.378v0.351c0.057-0.063,0.33-0.428,0.854-0.428c0.448,0,0.813,0.302,0.813,0.854v1.695H102.264z"/>
	<path class="st2" d="M103.67,6.442l-0.322-0.314l0.314-0.315l0.322,0.315L103.67,6.442z M103.48,9.398V6.926h0.379v2.473H103.48z"
		/>
	<path class="st2" d="M104.938,8.201c0.034,0.63,0.482,0.938,0.951,0.938c0.512,0,0.842-0.238,0.939-0.287v0.35
		c-0.07,0.042-0.406,0.273-0.98,0.273c-0.666,0-1.289-0.49-1.289-1.31c0-0.806,0.623-1.317,1.296-1.317
		c0.567,0,1.044,0.456,1.044,1.17v0.183H104.938z M105.819,7.186c-0.567,0-0.792,0.434-0.861,0.721h1.575
		C106.533,7.521,106.254,7.186,105.819,7.186z"/>
	<path class="st2" d="M108.57,9.363c-0.07,0.035-0.211,0.112-0.428,0.112c-0.322,0-0.566-0.217-0.566-0.658V5.42h0.377v3.376
		c0,0.238,0.141,0.336,0.281,0.336c0.146,0,0.279-0.063,0.336-0.091V9.363z"/>
	<path class="st2" d="M110.516,9.398l-0.035-0.21c-0.076,0.063-0.287,0.28-0.734,0.28c-0.42,0-0.792-0.302-0.792-0.792
		c0-0.539,0.413-0.84,1.044-0.91l0.462-0.049v-0.47h-1.352l0.069-0.322h1.653v2.473H110.516z M110.46,8.005l-0.406,0.049
		c-0.462,0.056-0.722,0.259-0.722,0.603c0,0.287,0.218,0.504,0.519,0.504c0.315,0,0.525-0.224,0.609-0.308V8.005z"/>
	<path class="st2" d="M115.367,9.398l-1.449-2.066l-0.512,0.512v1.555h-0.413V5.42h0.413v1.919l1.905-1.919h0.519l-1.618,1.618
		l1.667,2.36H115.367z"/>
	<path class="st2" d="M117.999,9.398V7.731c0-0.322-0.183-0.532-0.49-0.532c-0.448,0-0.743,0.413-0.799,0.483v1.716h-0.378V6.926
		h0.378v0.351c0.056-0.063,0.329-0.428,0.854-0.428c0.448,0,0.813,0.302,0.813,0.854v1.695H117.999z"/>
	<path class="st2" d="M120.309,9.476c-0.721,0-1.303-0.567-1.303-1.31s0.582-1.317,1.303-1.317s1.303,0.575,1.303,1.317
		S121.029,9.476,120.309,9.476z M120.309,7.199c-0.512,0-0.918,0.42-0.918,0.967c0,0.546,0.406,0.959,0.918,0.959
		s0.918-0.413,0.918-0.959C121.227,7.619,120.82,7.199,120.309,7.199z"/>
	<path class="st2" d="M122.842,9.476c-0.378,0-0.623-0.133-0.721-0.183V8.915c0.091,0.042,0.412,0.231,0.721,0.231
		c0.273,0,0.519-0.119,0.519-0.364c0-0.238-0.364-0.371-0.574-0.483c-0.245-0.133-0.687-0.343-0.687-0.749
		c0-0.435,0.357-0.701,0.854-0.701c0.364,0,0.616,0.141,0.687,0.183v0.357c-0.182-0.112-0.455-0.218-0.666-0.218
		c-0.314,0-0.504,0.154-0.504,0.344c0,0.23,0.309,0.357,0.519,0.455c0.231,0.112,0.742,0.329,0.742,0.791
		C123.731,9.237,123.325,9.476,122.842,9.476z"/>
	<path class="st2" d="M125.943,9.398l-0.84-1.197l-0.365,0.371v0.826h-0.377V5.42h0.377v2.725l1.191-1.219h0.455l-1.022,1.016
		l1.051,1.457H125.943z"/>
	<path class="st2" d="M128.219,9.398l-0.035-0.21c-0.077,0.063-0.287,0.28-0.735,0.28c-0.42,0-0.792-0.302-0.792-0.792
		c0-0.539,0.414-0.84,1.045-0.91l0.461-0.049v-0.47h-1.352l0.07-0.322h1.652v2.473H128.219z M128.162,8.005l-0.406,0.049
		c-0.461,0.056-0.721,0.259-0.721,0.603c0,0.287,0.217,0.504,0.518,0.504c0.316,0,0.525-0.224,0.609-0.308V8.005z"/>
	<path class="st2" d="M130.633,10.498v-0.112c0.182-0.069,0.406-0.245,0.406-0.595c0-0.329-0.259-0.54-0.393-0.673l0.351-0.35
		l0.084,0.076c0.084,0.084,0.337,0.322,0.337,0.715C131.418,10.028,131.081,10.421,130.633,10.498z"/>
	<path class="st2" d="M133.237,9.398h-0.386l-0.889-2.473h0.406l0.672,1.976l0.68-1.976h0.406L133.237,9.398z"/>
	<path class="st2" d="M134.805,6.442l-0.322-0.314l0.315-0.315l0.322,0.315L134.805,6.442z M134.615,9.398V6.926h0.379v2.473
		H134.615z"/>
	<path class="st2" d="M136.758,9.398h-0.385l-0.889-2.473h0.406l0.672,1.976l0.68-1.976h0.406L136.758,9.398z"/>
	<path class="st2" d="M139.229,9.476c-0.722,0-1.303-0.567-1.303-1.31s0.581-1.317,1.303-1.317s1.303,0.575,1.303,1.317
		S139.951,9.476,139.229,9.476z M139.229,7.199c-0.511,0-0.917,0.42-0.917,0.967c0,0.546,0.406,0.959,0.917,0.959
		s0.917-0.413,0.917-0.959C140.146,7.619,139.74,7.199,139.229,7.199z"/>
	<path class="st2" d="M142.658,8.201c0.035,0.63,0.483,0.938,0.953,0.938c0.511,0,0.84-0.238,0.938-0.287v0.35
		c-0.069,0.042-0.406,0.273-0.98,0.273c-0.664,0-1.288-0.49-1.288-1.31c0-0.806,0.624-1.317,1.296-1.317
		c0.566,0,1.043,0.456,1.043,1.17v0.183H142.658z M143.541,7.186c-0.567,0-0.791,0.434-0.861,0.721h1.576
		C144.256,7.521,143.975,7.186,143.541,7.186z"/>
	<path class="st2" d="M146.965,9.398V7.731c0-0.322-0.183-0.532-0.49-0.532c-0.449,0-0.743,0.413-0.799,0.483v1.716h-0.379V6.926
		h0.379v0.351c0.056-0.063,0.329-0.428,0.854-0.428c0.449,0,0.813,0.302,0.813,0.854v1.695H146.965z"/>
	<path class="st2" d="M86.871,17.799l-0.496-1.436h-1.366l-0.497,1.436H84.07l1.414-3.979h0.414l1.414,3.979H86.871z M85.87,14.864
		l-0.175-0.561l-0.183,0.561l-0.392,1.163h1.141L85.87,14.864z"/>
	<path class="st2" d="M88.824,15.606c-0.316,0-0.609,0.294-0.68,0.364v1.828h-0.379v-2.473h0.379v0.357
		c0.076-0.084,0.329-0.435,0.735-0.435c0.112,0,0.175,0.015,0.217,0.028v0.357C89.055,15.635,88.964,15.606,88.824,15.606z"/>
	<path class="st2" d="M91.268,15.621c0.168,0.182,0.266,0.42,0.266,0.679c0,0.581-0.49,1.058-1.107,1.058
		c-0.133,0-0.258-0.021-0.377-0.063l-0.26,0.343c0.063,0.007,0.098,0.014,0.133,0.028l0.896,0.287
		c0.379,0.119,0.742,0.357,0.742,0.84c0,0.512-0.504,0.862-1.085,0.862c-0.722,0-1.19-0.448-1.19-0.925
		c0-0.441,0.378-0.7,0.477-0.764l-0.456-0.146l0.483-0.651c-0.287-0.196-0.469-0.512-0.469-0.862c0-0.581,0.496-1.058,1.105-1.058
		c0.302,0,0.575,0.112,0.771,0.295l0.217-0.218h0.497v0.295H91.268z M90.728,18.269l-0.645-0.203
		c-0.091,0.056-0.175,0.118-0.245,0.195c-0.098,0.112-0.195,0.267-0.195,0.463c0,0.329,0.336,0.609,0.833,0.609
		s0.728-0.28,0.728-0.54C91.203,18.534,91.008,18.359,90.728,18.269z M90.426,15.579c-0.406,0-0.742,0.314-0.742,0.728
		c0,0.406,0.336,0.722,0.742,0.722c0.414,0,0.75-0.315,0.75-0.722C91.176,15.894,90.84,15.579,90.426,15.579z"/>
	<path class="st2" d="M92.442,16.602c0.034,0.63,0.483,0.938,0.952,0.938c0.512,0,0.841-0.238,0.938-0.287v0.35
		c-0.069,0.042-0.406,0.273-0.98,0.273c-0.665,0-1.288-0.49-1.288-1.31c0-0.806,0.623-1.317,1.295-1.317
		c0.567,0,1.044,0.456,1.044,1.17v0.183H92.442z M93.324,15.586c-0.566,0-0.791,0.434-0.861,0.721h1.576
		C94.039,15.922,93.759,15.586,93.324,15.586z"/>
	<path class="st2" d="M96.748,17.799v-1.667c0-0.322-0.182-0.532-0.49-0.532c-0.448,0-0.742,0.413-0.799,0.483v1.716h-0.378v-2.473
		h0.378v0.351c0.057-0.063,0.33-0.428,0.854-0.428c0.448,0,0.813,0.302,0.813,0.854v1.695H96.748z"/>
	<path class="st2" d="M98.721,17.876C98.364,17.876,98,17.687,98,17v-1.387h-0.525l0.105-0.287H98v-0.974h0.379v0.974h0.91
		l-0.105,0.287h-0.805v1.401c0,0.385,0.153,0.511,0.427,0.511c0.217,0,0.427-0.126,0.504-0.161v0.344
		C99.246,17.743,99.037,17.876,98.721,17.876z"/>
	<path class="st2" d="M100.023,14.843l-0.322-0.314l0.314-0.315l0.322,0.315L100.023,14.843z M99.834,17.799v-2.473h0.379v2.473
		H99.834z"/>
	<path class="st2" d="M102.719,17.799v-1.667c0-0.322-0.182-0.532-0.49-0.532c-0.447,0-0.742,0.413-0.799,0.483v1.716h-0.377v-2.473
		h0.377v0.351c0.057-0.063,0.33-0.428,0.855-0.428c0.447,0,0.813,0.302,0.813,0.854v1.695H102.719z"/>
	<path class="st2" d="M105.253,17.799l-0.035-0.21c-0.077,0.063-0.287,0.28-0.735,0.28c-0.42,0-0.791-0.302-0.791-0.792
		c0-0.539,0.413-0.84,1.043-0.91l0.463-0.049v-0.47h-1.352l0.069-0.322h1.653v2.473H105.253z M105.197,16.405l-0.406,0.049
		c-0.463,0.056-0.722,0.259-0.722,0.603c0,0.287,0.218,0.504,0.519,0.504c0.314,0,0.525-0.224,0.609-0.308V16.405z"/>
	<path class="st2" d="M106.407,18.898v-0.112c0.183-0.069,0.406-0.245,0.406-0.595c0-0.329-0.259-0.54-0.392-0.673l0.35-0.35
		l0.084,0.076c0.084,0.084,0.336,0.322,0.336,0.715C107.191,18.429,106.855,18.821,106.407,18.898z"/>
	<path class="st2" d="M109.916,17.799v-0.336l-0.771,0.413c-0.273-0.077-1.197-0.344-1.197-1.387c0-0.68,0.567-1.24,1.232-1.24
		c0.42,0,0.651,0.161,0.736,0.203V13.82h0.377v3.979H109.916z M109.916,15.824c-0.063-0.043-0.309-0.225-0.639-0.225
		c-0.504,0-0.938,0.399-0.938,0.903c0,0.693,0.574,0.918,0.798,1.002l0.778-0.386V15.824z"/>
	<path class="st2" d="M111.322,14.843L111,14.528l0.314-0.315l0.322,0.315L111.322,14.843z M111.133,17.799v-2.473h0.378v2.473
		H111.133z"/>
	<path class="st2" d="M112.953,17.876c-0.379,0-0.623-0.133-0.722-0.183v-0.378c0.091,0.042,0.413,0.231,0.722,0.231
		c0.273,0,0.518-0.119,0.518-0.364c0-0.238-0.363-0.371-0.574-0.483c-0.244-0.133-0.686-0.343-0.686-0.749
		c0-0.435,0.357-0.701,0.854-0.701c0.365,0,0.617,0.141,0.688,0.183v0.357c-0.183-0.112-0.456-0.218-0.666-0.218
		c-0.314,0-0.504,0.154-0.504,0.344c0,0.23,0.308,0.357,0.518,0.455c0.231,0.112,0.742,0.329,0.742,0.791
		C113.842,17.638,113.436,17.876,112.953,17.876z"/>
	<path class="st2" d="M114.71,16.602c0.034,0.63,0.483,0.938,0.952,0.938c0.512,0,0.841-0.238,0.938-0.287v0.35
		c-0.069,0.042-0.406,0.273-0.98,0.273c-0.665,0-1.288-0.49-1.288-1.31c0-0.806,0.623-1.317,1.295-1.317
		c0.567,0,1.044,0.456,1.044,1.17v0.183H114.71z M115.592,15.586c-0.566,0-0.791,0.434-0.861,0.721h1.576
		C116.307,15.922,116.026,15.586,115.592,15.586z"/>
	<path class="st2" d="M119.016,17.799v-1.667c0-0.322-0.182-0.532-0.49-0.532c-0.448,0-0.742,0.413-0.799,0.483v1.716h-0.378v-2.473
		h0.378v0.351c0.057-0.063,0.33-0.428,0.854-0.428c0.448,0,0.813,0.302,0.813,0.854v1.695H119.016z M118.826,14.885
		c-0.378,0-0.686-0.314-0.861-0.314c-0.119,0-0.23,0.077-0.252,0.314l-0.315-0.007c0.021-0.329,0.218-0.644,0.574-0.644
		c0.351,0,0.616,0.308,0.854,0.308c0.112,0,0.231-0.084,0.238-0.294h0.315C119.373,14.57,119.177,14.885,118.826,14.885z"/>
	<path class="st2" d="M121.549,17.799l-0.035-0.21c-0.076,0.063-0.287,0.28-0.734,0.28c-0.42,0-0.792-0.302-0.792-0.792
		c0-0.539,0.413-0.84,1.044-0.91l0.462-0.049v-0.47h-1.352l0.069-0.322h1.653v2.473H121.549z M121.493,16.405l-0.406,0.049
		c-0.462,0.056-0.722,0.259-0.722,0.603c0,0.287,0.218,0.504,0.519,0.504c0.315,0,0.525-0.224,0.609-0.308V16.405z"/>
	<path class="st2" d="M124.462,17.799v-0.336l-0.771,0.413c-0.273-0.077-1.197-0.344-1.197-1.387c0-0.68,0.566-1.24,1.232-1.24
		c0.42,0,0.651,0.161,0.735,0.203V13.82h0.378v3.979H124.462z M124.462,15.824c-0.063-0.043-0.309-0.225-0.638-0.225
		c-0.504,0-0.938,0.399-0.938,0.903c0,0.693,0.574,0.918,0.798,1.002l0.778-0.386V15.824z"/>
	<path class="st2" d="M126.771,17.876c-0.721,0-1.303-0.567-1.303-1.31s0.582-1.317,1.303-1.317s1.303,0.575,1.303,1.317
		S127.492,17.876,126.771,17.876z M126.771,15.6c-0.512,0-0.918,0.42-0.918,0.967c0,0.546,0.406,0.959,0.918,0.959
		s0.918-0.413,0.918-0.959C127.689,16.02,127.283,15.6,126.771,15.6z"/>
	<path class="st2" d="M129.76,15.606c-0.314,0-0.609,0.294-0.68,0.364v1.828h-0.377v-2.473h0.377v0.357
		c0.078-0.084,0.33-0.435,0.736-0.435c0.111,0,0.175,0.015,0.217,0.028v0.357C129.991,15.635,129.9,15.606,129.76,15.606z"/>
	<path class="st2" d="M131.805,17.799l-0.035-0.21c-0.078,0.063-0.287,0.28-0.736,0.28c-0.42,0-0.791-0.302-0.791-0.792
		c0-0.539,0.414-0.84,1.044-0.91l0.462-0.049v-0.47h-1.352l0.07-0.322h1.652v2.473H131.805z M131.748,16.405l-0.406,0.049
		c-0.462,0.056-0.721,0.259-0.721,0.603c0,0.287,0.217,0.504,0.518,0.504c0.315,0,0.525-0.224,0.609-0.308V16.405z"/>
	<path class="st3" d="M137.355,17.799v-1.688c0-0.309-0.16-0.512-0.455-0.512c-0.427,0-0.714,0.399-0.77,0.462v1.737h-0.379v-1.688
		c0-0.309-0.16-0.512-0.455-0.512c-0.428,0-0.715,0.399-0.771,0.462v1.737h-0.378v-2.473h0.378v0.337
		c0.056-0.063,0.315-0.414,0.819-0.414c0.33,0,0.603,0.161,0.722,0.47c0.183-0.189,0.406-0.47,0.89-0.47
		c0.434,0,0.777,0.287,0.777,0.82v1.729H137.355z"/>
	<path class="st3" d="M140.135,17.799v-0.315c-0.07,0.091-0.287,0.393-0.792,0.393c-0.49,0-0.841-0.344-0.841-0.938v-1.611h0.379
		v1.576c0,0.399,0.23,0.616,0.553,0.616c0.441,0,0.652-0.413,0.701-0.497v-1.695h0.378v2.473H140.135z"/>
	<path class="st3" d="M142.275,17.764c-0.07,0.035-0.21,0.112-0.427,0.112c-0.322,0-0.567-0.217-0.567-0.658V13.82h0.378v3.376
		c0,0.238,0.14,0.336,0.28,0.336c0.146,0,0.28-0.063,0.336-0.091V17.764z"/>
	<path class="st3" d="M143.661,17.876c-0.356,0-0.722-0.189-0.722-0.876v-1.387h-0.525l0.105-0.287h0.42v-0.974h0.379v0.974h0.91
		l-0.105,0.287h-0.805v1.401c0,0.385,0.154,0.511,0.428,0.511c0.217,0,0.427-0.126,0.504-0.161v0.344
		C144.187,17.743,143.977,17.876,143.661,17.876z"/>
	<path class="st3" d="M144.963,14.843l-0.322-0.314l0.315-0.315l0.322,0.315L144.963,14.843z M144.773,17.799v-2.473h0.379v2.473
		H144.773z"/>
	<path class="st3" d="M149.199,17.799v-1.688c0-0.309-0.16-0.512-0.455-0.512c-0.427,0-0.714,0.399-0.77,0.462v1.737h-0.379v-1.688
		c0-0.309-0.16-0.512-0.455-0.512c-0.428,0-0.715,0.399-0.771,0.462v1.737h-0.378v-2.473h0.378v0.337
		c0.056-0.063,0.315-0.414,0.819-0.414c0.33,0,0.603,0.161,0.722,0.47c0.183-0.189,0.406-0.47,0.89-0.47
		c0.434,0,0.777,0.287,0.777,0.82v1.729H149.199z"/>
	<path class="st3" d="M150.584,16.602c0.035,0.63,0.483,0.938,0.953,0.938c0.511,0,0.84-0.238,0.938-0.287v0.35
		c-0.069,0.042-0.406,0.273-0.98,0.273c-0.664,0-1.288-0.49-1.288-1.31c0-0.806,0.624-1.317,1.296-1.317
		c0.566,0,1.043,0.456,1.043,1.17v0.183H150.584z M151.467,15.586c-0.567,0-0.791,0.434-0.861,0.721h1.576
		C152.182,15.922,151.9,15.586,151.467,15.586z"/>
	<path class="st3" d="M155.051,17.799v-0.336l-0.77,0.413c-0.273-0.077-1.198-0.344-1.198-1.387c0-0.68,0.567-1.24,1.233-1.24
		c0.42,0,0.65,0.161,0.734,0.203V13.82h0.379v3.979H155.051z M155.051,15.824c-0.063-0.043-0.308-0.225-0.637-0.225
		c-0.504,0-0.939,0.399-0.939,0.903c0,0.693,0.574,0.918,0.799,1.002l0.777-0.386V15.824z"/>
	<path class="st3" d="M156.457,14.843l-0.322-0.314l0.315-0.315l0.322,0.315L156.457,14.843z M156.268,17.799v-2.473h0.379v2.473
		H156.268z"/>
	<path class="st3" d="M158.873,17.799l-0.035-0.21c-0.077,0.063-0.287,0.28-0.735,0.28c-0.42,0-0.792-0.302-0.792-0.792
		c0-0.539,0.414-0.84,1.045-0.91l0.461-0.049v-0.47h-1.352l0.07-0.322h1.652v2.473H158.873z M158.816,16.405l-0.406,0.049
		c-0.461,0.056-0.721,0.259-0.721,0.603c0,0.287,0.217,0.504,0.518,0.504c0.316,0,0.525-0.224,0.609-0.308V16.405z"/>
	<path class="st3" d="M162.135,17.799l-0.561,1.59h-0.378l0.56-1.59l-0.889-2.473h0.406l0.672,1.976l0.68-1.976h0.406
		L162.135,17.799z"/>
	<path class="st3" d="M86.213,26.199v-0.336l-0.77,0.413c-0.273-0.077-1.198-0.344-1.198-1.387c0-0.68,0.567-1.24,1.233-1.24
		c0.42,0,0.65,0.161,0.734,0.203v-1.632h0.379v3.979H86.213z M86.213,24.225C86.15,24.182,85.905,24,85.576,24
		c-0.504,0-0.939,0.399-0.939,0.903c0,0.693,0.574,0.918,0.799,1.002l0.777-0.386V24.225z"/>
	<path class="st3" d="M87.599,25.002c0.034,0.63,0.483,0.938,0.952,0.938c0.512,0,0.841-0.238,0.938-0.287v0.35
		c-0.069,0.042-0.406,0.273-0.98,0.273c-0.665,0-1.288-0.49-1.288-1.31c0-0.806,0.623-1.317,1.295-1.317
		c0.567,0,1.044,0.456,1.044,1.17v0.183H87.599z M88.48,23.986c-0.566,0-0.791,0.434-0.861,0.721h1.576
		C89.195,24.322,88.915,23.986,88.48,23.986z"/>
	<path class="st3" d="M91.756,23.243l-0.322-0.314l0.315-0.315l0.322,0.315L91.756,23.243z M91.566,26.199v-2.473h0.379v2.473
		H91.566z"/>
	<path class="st3" d="M94.452,26.199v-1.667c0-0.322-0.183-0.532-0.49-0.532c-0.448,0-0.743,0.413-0.799,0.483v1.716h-0.378v-2.473
		h0.378v0.351c0.056-0.063,0.329-0.428,0.854-0.428c0.448,0,0.813,0.302,0.813,0.854v1.695H94.452z"/>
	<path class="st3" d="M96.426,26.276c-0.357,0-0.722-0.189-0.722-0.876v-1.387h-0.525l0.104-0.287h0.421v-0.974h0.378v0.974h0.91
		l-0.104,0.287h-0.806v1.401c0,0.385,0.154,0.511,0.428,0.511c0.217,0,0.428-0.126,0.504-0.161v0.344
		C96.951,26.144,96.74,26.276,96.426,26.276z"/>
	<path class="st3" d="M97.707,25.002c0.034,0.63,0.482,0.938,0.951,0.938c0.512,0,0.842-0.238,0.939-0.287v0.35
		c-0.07,0.042-0.406,0.273-0.98,0.273c-0.666,0-1.289-0.49-1.289-1.31c0-0.806,0.623-1.317,1.296-1.317
		c0.567,0,1.044,0.456,1.044,1.17v0.183H97.707z M98.589,23.986c-0.567,0-0.792,0.434-0.861,0.721h1.575
		C99.303,24.322,99.023,23.986,98.589,23.986z"/>
	<path class="st3" d="M101.402,24.007c-0.314,0-0.609,0.294-0.68,0.364v1.828h-0.377v-2.473h0.377v0.357
		c0.078-0.084,0.33-0.435,0.736-0.435c0.111,0,0.175,0.015,0.217,0.028v0.357C101.634,24.035,101.543,24.007,101.402,24.007z"/>
	<path class="st3" d="M103.447,26.199l-0.035-0.21c-0.078,0.063-0.287,0.28-0.736,0.28c-0.42,0-0.791-0.302-0.791-0.792
		c0-0.539,0.414-0.84,1.044-0.91l0.462-0.049v-0.47h-1.352l0.07-0.322h1.652v2.473H103.447z M103.391,24.806l-0.406,0.049
		c-0.462,0.056-0.721,0.259-0.721,0.603c0,0.287,0.217,0.504,0.518,0.504c0.315,0,0.525-0.224,0.609-0.308V24.806z"/>
	<path class="st3" d="M105.722,26.276c-0.735,0-1.331-0.539-1.331-1.303c0-0.757,0.582-1.316,1.331-1.316
		c0.406,0,0.757,0.182,0.862,0.237v0.364c-0.092-0.049-0.421-0.245-0.855-0.245c-0.561,0-0.945,0.421-0.945,0.96
		c0,0.567,0.42,0.945,0.945,0.945c0.449,0,0.792-0.203,0.869-0.245v0.351C106.506,26.08,106.219,26.276,105.722,26.276z"/>
	<path class="st3" d="M108.416,26.276c-0.734,0-1.33-0.539-1.33-1.303c0-0.757,0.582-1.316,1.33-1.316
		c0.406,0,0.757,0.182,0.862,0.237v0.364c-0.091-0.049-0.421-0.245-0.854-0.245c-0.561,0-0.945,0.421-0.945,0.96
		c0,0.567,0.42,0.945,0.945,0.945c0.448,0,0.791-0.203,0.868-0.245v0.351C109.201,26.08,108.914,26.276,108.416,26.276z"/>
	<path class="st3" d="M110.18,23.243l-0.322-0.314l0.315-0.315l0.322,0.315L110.18,23.243z M109.99,26.199v-2.473h0.379v2.473
		H109.99z"/>
	<path class="st3" d="M112.371,26.276c-0.721,0-1.303-0.567-1.303-1.31s0.582-1.317,1.303-1.317c0.722,0,1.303,0.575,1.303,1.317
		S113.093,26.276,112.371,26.276z M112.371,24c-0.511,0-0.917,0.42-0.917,0.967c0,0.546,0.406,0.959,0.917,0.959
		c0.512,0,0.918-0.413,0.918-0.959C113.289,24.42,112.883,24,112.371,24z M112.196,23.454l-0.665-1.296h0.378l0.638,1.296H112.196z"
		/>
	<path class="st3" d="M115.97,26.199v-1.667c0-0.322-0.183-0.532-0.49-0.532c-0.448,0-0.743,0.413-0.799,0.483v1.716h-0.378v-2.473
		h0.378v0.351c0.056-0.063,0.329-0.428,0.854-0.428c0.448,0,0.813,0.302,0.813,0.854v1.695H115.97z"/>
	<path class="st3" d="M117.187,27.299v-0.112c0.183-0.069,0.406-0.245,0.406-0.595c0-0.329-0.259-0.54-0.392-0.673l0.35-0.35
		l0.084,0.076c0.084,0.084,0.336,0.322,0.336,0.715C117.971,26.829,117.635,27.222,117.187,27.299z"/>
	<path class="st3" d="M121.316,26.276c-0.734,0-1.33-0.539-1.33-1.303c0-0.757,0.582-1.316,1.33-1.316
		c0.406,0,0.757,0.182,0.862,0.237v0.364c-0.091-0.049-0.421-0.245-0.854-0.245c-0.561,0-0.945,0.421-0.945,0.96
		c0,0.567,0.42,0.945,0.945,0.945c0.448,0,0.791-0.203,0.868-0.245v0.351C122.102,26.08,121.814,26.276,121.316,26.276z"/>
	<path class="st3" d="M123.984,26.276c-0.722,0-1.303-0.567-1.303-1.31s0.581-1.317,1.303-1.317c0.721,0,1.303,0.575,1.303,1.317
		S124.705,26.276,123.984,26.276z M123.984,24c-0.512,0-0.918,0.42-0.918,0.967c0,0.546,0.406,0.959,0.918,0.959
		c0.511,0,0.917-0.413,0.917-0.959C124.901,24.42,124.495,24,123.984,24z"/>
	<path class="st3" d="M129.123,26.199v-1.688c0-0.309-0.162-0.512-0.455-0.512c-0.428,0-0.715,0.399-0.771,0.462v1.737h-0.377
		v-1.688c0-0.309-0.162-0.512-0.456-0.512c-0.427,0-0.714,0.399-0.771,0.462v1.737h-0.378v-2.473h0.378v0.337
		c0.057-0.063,0.315-0.414,0.82-0.414c0.328,0,0.602,0.161,0.721,0.47c0.182-0.189,0.406-0.47,0.89-0.47
		c0.435,0,0.777,0.287,0.777,0.82v1.729H129.123z"/>
	<path class="st3" d="M131.432,26.276c-0.721,0-1.303-0.567-1.303-1.31s0.582-1.317,1.303-1.317s1.303,0.575,1.303,1.317
		S132.152,26.276,131.432,26.276z M131.432,24c-0.512,0-0.918,0.42-0.918,0.967c0,0.546,0.406,0.959,0.918,0.959
		s0.918-0.413,0.918-0.959C132.35,24.42,131.943,24,131.432,24z"/>
	<path class="st3" d="M135.736,26.276c-0.42,0-0.651-0.161-0.736-0.203v1.716h-0.377v-4.063H135v0.337l0.771-0.414
		c0.273,0.077,1.197,0.344,1.197,1.387C136.969,25.716,136.401,26.276,135.736,26.276z M135.778,24.021L135,24.406v1.296
		c0.07,0.042,0.309,0.224,0.639,0.224c0.504,0,0.938-0.398,0.938-0.903C136.576,24.329,136.002,24.105,135.778,24.021z"/>
	<path class="st3" d="M138.655,24.007c-0.315,0-0.609,0.294-0.68,0.364v1.828h-0.378v-2.473h0.378v0.357
		c0.077-0.084,0.329-0.435,0.735-0.435c0.112,0,0.176,0.015,0.217,0.028v0.357C138.887,24.035,138.795,24.007,138.655,24.007z"/>
	<path class="st3" d="M140.475,26.276c-0.721,0-1.303-0.567-1.303-1.31s0.582-1.317,1.303-1.317c0.722,0,1.303,0.575,1.303,1.317
		S141.196,26.276,140.475,26.276z M140.475,24c-0.511,0-0.917,0.42-0.917,0.967c0,0.546,0.406,0.959,0.917,0.959
		c0.512,0,0.918-0.413,0.918-0.959C141.393,24.42,140.986,24,140.475,24z"/>
	<path class="st3" d="M143.947,22.677c-0.105-0.099-0.28-0.231-0.49-0.231c-0.28,0-0.533,0.224-0.533,0.645v0.637h0.785
		l-0.112,0.287h-0.673v2.186h-0.377v-2.186h-0.436l0.105-0.287h0.33v-0.63c0-0.631,0.461-0.995,0.902-0.995
		c0.365,0,0.609,0.218,0.736,0.337L143.947,22.677z"/>
	<path class="st3" d="M144.381,25.002c0.034,0.63,0.482,0.938,0.951,0.938c0.512,0,0.842-0.238,0.939-0.287v0.35
		c-0.07,0.042-0.406,0.273-0.98,0.273c-0.666,0-1.289-0.49-1.289-1.31c0-0.806,0.623-1.317,1.296-1.317
		c0.567,0,1.044,0.456,1.044,1.17v0.183H144.381z M145.263,23.986c-0.567,0-0.792,0.434-0.861,0.721h1.575
		C145.977,24.322,145.697,23.986,145.263,23.986z"/>
	<path class="st3" d="M147.621,26.276c-0.378,0-0.623-0.133-0.721-0.183v-0.378c0.091,0.042,0.412,0.231,0.721,0.231
		c0.273,0,0.519-0.119,0.519-0.364c0-0.238-0.364-0.371-0.574-0.483c-0.245-0.133-0.687-0.343-0.687-0.749
		c0-0.435,0.357-0.701,0.854-0.701c0.364,0,0.616,0.141,0.687,0.183v0.357c-0.182-0.112-0.455-0.218-0.666-0.218
		c-0.314,0-0.504,0.154-0.504,0.344c0,0.23,0.309,0.357,0.519,0.455c0.231,0.112,0.742,0.329,0.742,0.791
		C148.511,26.038,148.104,26.276,147.621,26.276z"/>
	<path class="st3" d="M149.399,23.243l-0.322-0.314l0.315-0.315l0.322,0.315L149.399,23.243z M149.21,26.199v-2.473h0.378v2.473
		H149.21z"/>
	<path class="st3" d="M151.591,26.276c-0.722,0-1.303-0.567-1.303-1.31s0.581-1.317,1.303-1.317s1.303,0.575,1.303,1.317
		S152.313,26.276,151.591,26.276z M151.591,24c-0.511,0-0.917,0.42-0.917,0.967c0,0.546,0.406,0.959,0.917,0.959
		s0.917-0.413,0.917-0.959C152.508,24.42,152.102,24,151.591,24z"/>
	<path class="st3" d="M155.189,26.199v-1.667c0-0.322-0.183-0.532-0.49-0.532c-0.449,0-0.743,0.413-0.799,0.483v1.716h-0.379v-2.473
		h0.379v0.351c0.056-0.063,0.329-0.428,0.854-0.428c0.449,0,0.813,0.302,0.813,0.854v1.695H155.189z"/>
	<path class="st3" d="M157.723,26.199l-0.035-0.21c-0.077,0.063-0.287,0.28-0.735,0.28c-0.42,0-0.792-0.302-0.792-0.792
		c0-0.539,0.414-0.84,1.045-0.91l0.461-0.049v-0.47h-1.352l0.07-0.322h1.652v2.473H157.723z M157.666,24.806l-0.406,0.049
		c-0.461,0.056-0.721,0.259-0.721,0.603c0,0.287,0.217,0.504,0.518,0.504c0.316,0,0.525-0.224,0.609-0.308V24.806z"/>
	<path class="st3" d="M159.802,26.164c-0.07,0.035-0.21,0.112-0.427,0.112c-0.322,0-0.568-0.217-0.568-0.658v-3.397h0.379v3.376
		c0,0.238,0.14,0.336,0.279,0.336c0.147,0,0.281-0.063,0.337-0.091V26.164z"/>
	<path class="st3" d="M84.987,34.676c-0.378,0-0.623-0.133-0.722-0.183v-0.378c0.092,0.042,0.414,0.231,0.722,0.231
		c0.273,0,0.519-0.119,0.519-0.364c0-0.238-0.364-0.371-0.574-0.483c-0.245-0.133-0.687-0.343-0.687-0.749
		c0-0.435,0.357-0.701,0.854-0.701c0.364,0,0.616,0.141,0.687,0.183v0.357c-0.183-0.112-0.456-0.218-0.665-0.218
		c-0.315,0-0.505,0.154-0.505,0.344c0,0.23,0.308,0.357,0.519,0.455c0.23,0.112,0.742,0.329,0.742,0.791
		C85.877,34.438,85.471,34.676,84.987,34.676z"/>
	<path class="st3" d="M87.669,34.676c-0.722,0-1.303-0.567-1.303-1.31s0.581-1.317,1.303-1.317s1.303,0.575,1.303,1.317
		S88.391,34.676,87.669,34.676z M87.669,32.399c-0.511,0-0.917,0.42-0.917,0.967c0,0.546,0.406,0.959,0.917,0.959
		s0.917-0.413,0.917-0.959C88.586,32.819,88.18,32.399,87.669,32.399z"/>
	<path class="st3" d="M90.518,34.599l-0.561,1.59h-0.378l0.56-1.59l-0.889-2.473h0.406l0.672,1.976l0.68-1.976h0.406L90.518,34.599z
		"/>
	<path class="st3" d="M94.283,34.676c-0.735,0-1.33-0.539-1.33-1.303c0-0.757,0.581-1.316,1.33-1.316
		c0.406,0,0.756,0.182,0.861,0.237v0.364c-0.091-0.049-0.42-0.245-0.854-0.245c-0.561,0-0.946,0.421-0.946,0.96
		c0,0.567,0.421,0.945,0.946,0.945c0.447,0,0.791-0.203,0.867-0.245v0.351C95.068,34.479,94.781,34.676,94.283,34.676z"/>
	<path class="st3" d="M96.846,32.406c-0.316,0-0.609,0.294-0.68,0.364v1.828h-0.379v-2.473h0.379v0.357
		c0.076-0.084,0.329-0.435,0.735-0.435c0.112,0,0.175,0.015,0.217,0.028v0.357C97.076,32.435,96.985,32.406,96.846,32.406z"/>
	<path class="st3" d="M97.762,31.643l-0.322-0.314l0.314-0.315l0.322,0.315L97.762,31.643z M97.572,34.599v-2.473h0.379v2.473
		H97.572z"/>
	<path class="st3" d="M99.617,34.676c-0.357,0-0.722-0.189-0.722-0.876v-1.387H98.37l0.104-0.287h0.421v-0.974h0.378v0.974h0.91
		l-0.104,0.287h-0.806v1.401c0,0.385,0.154,0.511,0.428,0.511c0.217,0,0.428-0.126,0.504-0.161v0.344
		C100.143,34.543,99.932,34.676,99.617,34.676z"/>
	<path class="st3" d="M100.919,31.643l-0.322-0.314l0.315-0.315l0.322,0.315L100.919,31.643z M100.729,34.599v-2.473h0.378v2.473
		H100.729z"/>
	<path class="st3" d="M103.139,34.676c-0.736,0-1.331-0.539-1.331-1.303c0-0.757,0.581-1.316,1.331-1.316
		c0.406,0,0.756,0.182,0.861,0.237v0.364c-0.092-0.049-0.42-0.245-0.854-0.245c-0.561,0-0.946,0.421-0.946,0.96
		c0,0.567,0.421,0.945,0.946,0.945c0.448,0,0.792-0.203,0.868-0.245v0.351C103.923,34.479,103.636,34.676,103.139,34.676z"/>
	<path class="st3" d="M106.029,34.599l-0.035-0.21c-0.077,0.063-0.287,0.28-0.735,0.28c-0.42,0-0.792-0.302-0.792-0.792
		c0-0.539,0.414-0.84,1.045-0.91l0.461-0.049v-0.47h-1.352l0.07-0.322h1.652v2.473H106.029z M105.973,33.205l-0.406,0.049
		c-0.461,0.056-0.721,0.259-0.721,0.603c0,0.287,0.217,0.504,0.518,0.504c0.316,0,0.525-0.224,0.609-0.308V33.205z"/>
	<path class="st3" d="M107.184,35.698v-0.112c0.182-0.069,0.406-0.245,0.406-0.595c0-0.329-0.259-0.54-0.393-0.673l0.351-0.35
		l0.084,0.076c0.084,0.084,0.337,0.322,0.337,0.715C107.969,35.229,107.632,35.621,107.184,35.698z"/>
	<path class="st3" d="M112.071,34.599v-1.688c0-0.309-0.161-0.512-0.455-0.512c-0.427,0-0.714,0.399-0.771,0.462v1.737h-0.378
		v-1.688c0-0.309-0.161-0.512-0.456-0.512c-0.427,0-0.714,0.399-0.77,0.462v1.737h-0.379v-2.473h0.379v0.337
		c0.056-0.063,0.314-0.414,0.819-0.414c0.329,0,0.603,0.161,0.722,0.47c0.182-0.189,0.406-0.47,0.889-0.47
		c0.435,0,0.777,0.287,0.777,0.82v1.729H112.071z"/>
	<path class="st3" d="M113.456,33.401c0.034,0.63,0.483,0.938,0.952,0.938c0.512,0,0.841-0.238,0.938-0.287v0.35
		c-0.069,0.042-0.406,0.273-0.98,0.273c-0.665,0-1.288-0.49-1.288-1.31c0-0.806,0.623-1.317,1.295-1.317
		c0.567,0,1.044,0.456,1.044,1.17v0.183H113.456z M114.338,32.386c-0.566,0-0.791,0.434-0.861,0.721h1.576
		C115.053,32.722,114.772,32.386,114.338,32.386z"/>
	<path class="st3" d="M116.921,34.676c-0.356,0-0.722-0.189-0.722-0.876v-1.387h-0.525l0.105-0.287h0.42v-0.974h0.379v0.974h0.91
		l-0.105,0.287h-0.805v1.401c0,0.385,0.154,0.511,0.428,0.511c0.217,0,0.427-0.126,0.504-0.161v0.344
		C117.446,34.543,117.236,34.676,116.921,34.676z"/>
	<path class="st3" d="M119.127,34.676c-0.722,0-1.303-0.567-1.303-1.31s0.581-1.317,1.303-1.317c0.721,0,1.303,0.575,1.303,1.317
		S119.848,34.676,119.127,34.676z M119.127,32.399c-0.512,0-0.918,0.42-0.918,0.967c0,0.546,0.406,0.959,0.918,0.959
		c0.511,0,0.917-0.413,0.917-0.959C120.044,32.819,119.638,32.399,119.127,32.399z"/>
	<path class="st3" d="M122.886,34.599v-0.336l-0.771,0.413c-0.273-0.077-1.197-0.344-1.197-1.387c0-0.68,0.566-1.24,1.232-1.24
		c0.42,0,0.651,0.161,0.735,0.203V30.62h0.378v3.979H122.886z M122.886,32.624c-0.063-0.042-0.309-0.225-0.638-0.225
		c-0.504,0-0.938,0.399-0.938,0.903c0,0.693,0.574,0.918,0.798,1.002l0.778-0.386V32.624z"/>
	<path class="st3" d="M124.292,31.643l-0.322-0.314l0.315-0.315l0.322,0.315L124.292,31.643z M124.103,34.599v-2.473h0.378v2.473
		H124.103z"/>
	<path class="st3" d="M126.512,34.676c-0.736,0-1.331-0.539-1.331-1.303c0-0.757,0.581-1.316,1.331-1.316
		c0.406,0,0.756,0.182,0.861,0.237v0.364c-0.092-0.049-0.42-0.245-0.854-0.245c-0.561,0-0.946,0.421-0.946,0.96
		c0,0.567,0.421,0.945,0.946,0.945c0.448,0,0.792-0.203,0.868-0.245v0.351C127.296,34.479,127.009,34.676,126.512,34.676z"/>
	<path class="st3" d="M129.402,34.599l-0.035-0.21c-0.077,0.063-0.287,0.28-0.735,0.28c-0.42,0-0.792-0.302-0.792-0.792
		c0-0.539,0.414-0.84,1.045-0.91l0.461-0.049v-0.47h-1.352l0.07-0.322h1.652v2.473H129.402z M129.346,33.205l-0.406,0.049
		c-0.461,0.056-0.721,0.259-0.721,0.603c0,0.287,0.217,0.504,0.518,0.504c0.316,0,0.525-0.224,0.609-0.308V33.205z"/>
	<path class="st3" d="M133.244,33.401c0.035,0.63,0.483,0.938,0.953,0.938c0.511,0,0.84-0.238,0.938-0.287v0.35
		c-0.069,0.042-0.406,0.273-0.98,0.273c-0.664,0-1.288-0.49-1.288-1.31c0-0.806,0.624-1.317,1.296-1.317
		c0.566,0,1.043,0.456,1.043,1.17v0.183H133.244z M134.127,32.386c-0.567,0-0.791,0.434-0.861,0.721h1.576
		C134.842,32.722,134.561,32.386,134.127,32.386z"/>
	<path class="st3" d="M137.402,31.643l-0.322-0.314l0.314-0.315l0.322,0.315L137.402,31.643z M137.213,34.599v-2.473h0.379v2.473
		H137.213z"/>
	<path class="st3" d="M140.098,34.599v-1.667c0-0.322-0.182-0.532-0.49-0.532c-0.447,0-0.742,0.413-0.799,0.483v1.716h-0.377v-2.473
		h0.377v0.351c0.057-0.063,0.33-0.428,0.855-0.428c0.447,0,0.813,0.302,0.813,0.854v1.695H140.098z"/>
	<path class="st3" d="M142.071,34.676c-0.356,0-0.722-0.189-0.722-0.876v-1.387h-0.525l0.105-0.287h0.42v-0.974h0.379v0.974h0.91
		l-0.105,0.287h-0.805v1.401c0,0.385,0.154,0.511,0.428,0.511c0.217,0,0.427-0.126,0.504-0.161v0.344
		C142.597,34.543,142.387,34.676,142.071,34.676z"/>
	<path class="st3" d="M144.172,32.406c-0.315,0-0.609,0.294-0.68,0.364v1.828h-0.378v-2.473h0.378v0.357
		c0.077-0.084,0.33-0.435,0.736-0.435c0.111,0,0.174,0.015,0.217,0.028v0.357C144.402,32.435,144.313,32.406,144.172,32.406z"/>
	<path class="st3" d="M145.992,34.676c-0.722,0-1.303-0.567-1.303-1.31s0.581-1.317,1.303-1.317c0.721,0,1.303,0.575,1.303,1.317
		S146.713,34.676,145.992,34.676z M145.992,32.399c-0.512,0-0.918,0.42-0.918,0.967c0,0.546,0.406,0.959,0.918,0.959
		c0.511,0,0.917-0.413,0.917-0.959C146.909,32.819,146.503,32.399,145.992,32.399z"/>
	<path class="st3" d="M148.525,34.676c-0.379,0-0.623-0.133-0.722-0.183v-0.378c0.091,0.042,0.413,0.231,0.722,0.231
		c0.273,0,0.518-0.119,0.518-0.364c0-0.238-0.363-0.371-0.574-0.483c-0.244-0.133-0.686-0.343-0.686-0.749
		c0-0.435,0.357-0.701,0.854-0.701c0.365,0,0.617,0.141,0.688,0.183v0.357c-0.183-0.112-0.456-0.218-0.666-0.218
		c-0.314,0-0.504,0.154-0.504,0.344c0,0.23,0.308,0.357,0.518,0.455c0.231,0.112,0.742,0.329,0.742,0.791
		C149.414,34.438,149.008,34.676,148.525,34.676z"/>
	<path class="st3" d="M151.158,34.676c-0.421,0-0.652-0.161-0.736-0.203v1.716h-0.378v-4.063h0.378v0.337l0.771-0.414
		c0.273,0.077,1.198,0.344,1.198,1.387C152.391,34.115,151.822,34.676,151.158,34.676z M151.199,32.421l-0.777,0.385v1.296
		c0.07,0.042,0.309,0.224,0.638,0.224c0.504,0,0.938-0.399,0.938-0.903C151.998,32.729,151.424,32.505,151.199,32.421z"/>
	<path class="st3" d="M153.258,33.401c0.034,0.63,0.482,0.938,0.951,0.938c0.512,0,0.842-0.238,0.939-0.287v0.35
		c-0.07,0.042-0.406,0.273-0.98,0.273c-0.666,0-1.289-0.49-1.289-1.31c0-0.806,0.623-1.317,1.296-1.317
		c0.567,0,1.044,0.456,1.044,1.17v0.183H153.258z M154.14,32.386c-0.567,0-0.792,0.434-0.861,0.721h1.575
		C154.854,32.722,154.574,32.386,154.14,32.386z"/>
	<path class="st3" d="M157.086,34.676c-0.734,0-1.33-0.539-1.33-1.303c0-0.757,0.582-1.316,1.33-1.316
		c0.406,0,0.757,0.182,0.862,0.237v0.364c-0.091-0.049-0.421-0.245-0.854-0.245c-0.561,0-0.945,0.421-0.945,0.96
		c0,0.567,0.42,0.945,0.945,0.945c0.448,0,0.791-0.203,0.868-0.245v0.351C157.871,34.479,157.584,34.676,157.086,34.676z"/>
	<path class="st3" d="M159.417,34.676c-0.356,0-0.722-0.189-0.722-0.876v-1.387h-0.525l0.105-0.287h0.42v-0.974h0.379v0.974h0.91
		l-0.105,0.287h-0.805v1.401c0,0.385,0.154,0.511,0.428,0.511c0.217,0,0.427-0.126,0.504-0.161v0.344
		C159.942,34.543,159.732,34.676,159.417,34.676z"/>
	<path class="st3" d="M160.719,31.643l-0.322-0.314l0.315-0.315l0.322,0.315L160.719,31.643z M160.529,34.599v-2.473h0.379v2.473
		H160.529z"/>
	<path class="st3" d="M162.672,34.599h-0.385l-0.889-2.473h0.406l0.672,1.976l0.68-1.976h0.406L162.672,34.599z"/>
	<path class="st3" d="M165.367,34.599l-0.035-0.21c-0.076,0.063-0.287,0.28-0.734,0.28c-0.42,0-0.792-0.302-0.792-0.792
		c0-0.539,0.413-0.84,1.044-0.91l0.462-0.049v-0.47h-1.352l0.069-0.322h1.653v2.473H165.367z M165.312,33.205l-0.406,0.049
		c-0.462,0.056-0.722,0.259-0.722,0.603c0,0.287,0.218,0.504,0.519,0.504c0.315,0,0.525-0.224,0.609-0.308V33.205z"/>
</g>
</svg>