<!-- Generator: Adobe Illustrator 21.1.0, SVG Export Plug-In  -->
<svg version="1.1"
	 xmlns="http://www.w3.org/2000/svg" xmlns:xlink="http://www.w3.org/1999/xlink" xmlns:a="http://ns.adobe.com/AdobeSVGViewerExtensions/3.0/"
	 x="0px" y="0px" width="330.072px" height="46.169px" viewBox="0 0 330.072 46.169"
	 style="overflow:scroll;enable-background:new 0 0 330.072 46.169;" xml:space="preserve">
<style type="text/css">
	.st0{fill:#29196E;}
	.st1{fill:none;stroke:#4F517E;stroke-width:0.5;}
	.st2{fill:none;stroke:#BE0D2A;stroke-width:0.374;stroke-miterlimit:10;}
	.st3{font-family:'PrioriSanRegular';}
	.st4{font-size:5.7937px;}
</style>
<defs>
</defs>
<g>
	<path class="st0" d="M1.194,38.473c-0.261,0-0.505,0.243-0.563,0.301v1.514H0.318V38.24h0.313v0.296
		c0.063-0.069,0.272-0.359,0.608-0.359c0.094,0,0.146,0.012,0.18,0.023v0.295C1.386,38.495,1.311,38.473,1.194,38.473z"/>
	<path class="st0" d="M1.936,39.296c0.029,0.521,0.4,0.776,0.789,0.776c0.423,0,0.695-0.197,0.776-0.237v0.29
		c-0.058,0.034-0.337,0.226-0.812,0.226c-0.551,0-1.066-0.405-1.066-1.084c0-0.667,0.516-1.09,1.072-1.09
		c0.469,0,0.863,0.377,0.863,0.968v0.151H1.936z M2.666,38.455c-0.47,0-0.655,0.359-0.713,0.597h1.305
		C3.258,38.734,3.025,38.455,2.666,38.455z"/>
	<path class="st0" d="M4.804,40.351c-0.296,0-0.597-0.156-0.597-0.725v-1.148H3.771l0.088-0.237h0.348v-0.806H4.52v0.806h0.754
		l-0.087,0.237H4.52v1.16c0,0.319,0.128,0.423,0.354,0.423c0.18,0,0.354-0.104,0.418-0.133v0.284
		C5.238,40.241,5.064,40.351,4.804,40.351z"/>
	<path class="st0" d="M6.629,40.351c-0.598,0-1.078-0.47-1.078-1.084s0.48-1.09,1.078-1.09s1.078,0.476,1.078,1.09
		S7.227,40.351,6.629,40.351z M6.629,38.467c-0.423,0-0.76,0.348-0.76,0.8s0.337,0.794,0.76,0.794c0.424,0,0.76-0.342,0.76-0.794
		S7.053,38.467,6.629,38.467z"/>
	<path class="st0" d="M9.752,41.604v-1.438c-0.047,0.029-0.243,0.186-0.62,0.186c-0.54,0-1.021-0.47-1.021-1.09
		c0-0.614,0.464-1.084,1.043-1.084c0.354,0,0.563,0.174,0.627,0.22l0.047-0.156h0.237v3.363H9.752z M9.207,40.061
		c0.29,0,0.492-0.162,0.545-0.202v-1.178c-0.058-0.046-0.261-0.214-0.545-0.214c-0.44,0-0.771,0.348-0.771,0.794
		C8.436,39.713,8.761,40.061,9.207,40.061z"/>
	<path class="st0" d="M12.052,40.287v-0.261c-0.058,0.075-0.237,0.324-0.655,0.324c-0.406,0-0.695-0.284-0.695-0.776V38.24h0.313
		v1.305c0,0.33,0.191,0.511,0.458,0.511c0.366,0,0.54-0.343,0.58-0.412V38.24h0.313v2.047H12.052z"/>
	<path class="st0" d="M13.198,39.296c0.028,0.521,0.399,0.776,0.788,0.776c0.424,0,0.696-0.197,0.777-0.237v0.29
		c-0.059,0.034-0.336,0.226-0.812,0.226c-0.551,0-1.067-0.405-1.067-1.084c0-0.667,0.517-1.09,1.073-1.09
		c0.47,0,0.864,0.377,0.864,0.968v0.151H13.198z M13.929,38.455c-0.47,0-0.655,0.359-0.713,0.597h1.304
		C14.52,38.734,14.288,38.455,13.929,38.455z"/>
</g>
<g>
	<path class="st0" d="M5.169,44.634v-0.278l-0.638,0.342C4.305,44.634,3.54,44.413,3.54,43.55c0-0.563,0.47-1.026,1.021-1.026
		c0.348,0,0.539,0.133,0.608,0.168v-1.351h0.313v3.293H5.169z M5.169,42.999c-0.052-0.035-0.255-0.186-0.527-0.186
		c-0.417,0-0.776,0.33-0.776,0.748c0,0.573,0.475,0.759,0.66,0.829l0.644-0.319V42.999z"/>
	<path class="st0" d="M6.333,42.187l-0.267-0.261l0.261-0.261l0.267,0.261L6.333,42.187z M6.176,44.634v-2.047h0.313v2.047H6.176z"
		/>
	<path class="st0" d="M8.662,42.83c0.14,0.151,0.221,0.349,0.221,0.563c0,0.481-0.406,0.876-0.916,0.876
		c-0.109,0-0.215-0.018-0.313-0.053L7.439,44.5c0.052,0.006,0.081,0.012,0.109,0.023l0.742,0.238
		c0.313,0.099,0.615,0.295,0.615,0.695c0,0.424-0.418,0.713-0.898,0.713c-0.598,0-0.986-0.371-0.986-0.765
		c0-0.365,0.313-0.58,0.395-0.633l-0.377-0.121l0.4-0.539c-0.238-0.163-0.389-0.424-0.389-0.714c0-0.481,0.412-0.875,0.916-0.875
		c0.25,0,0.476,0.093,0.638,0.243l0.181-0.18h0.411v0.243H8.662z M8.217,45.023l-0.534-0.168c-0.075,0.046-0.145,0.099-0.202,0.162
		C7.398,45.11,7.317,45.237,7.317,45.4c0,0.272,0.278,0.504,0.69,0.504c0.411,0,0.603-0.231,0.603-0.446S8.448,45.098,8.217,45.023z
		 M7.967,42.796c-0.336,0-0.614,0.261-0.614,0.603c0,0.337,0.278,0.598,0.614,0.598c0.342,0,0.621-0.261,0.621-0.598
		C8.588,43.057,8.309,42.796,7.967,42.796z"/>
	<path class="st0" d="M9.652,42.187l-0.268-0.261l0.262-0.261l0.267,0.261L9.652,42.187z M9.496,44.634v-2.047h0.313v2.047H9.496z"
		/>
	<path class="st0" d="M11.188,44.697c-0.295,0-0.598-0.156-0.598-0.725v-1.147h-0.434l0.086-0.238h0.348v-0.806h0.313v0.806h0.754
		l-0.087,0.238h-0.667v1.159c0,0.319,0.128,0.423,0.354,0.423c0.18,0,0.354-0.104,0.417-0.133v0.284
		C11.623,44.587,11.449,44.697,11.188,44.697z"/>
	<path class="st0" d="M13.198,44.634L13.17,44.46c-0.064,0.052-0.238,0.231-0.609,0.231c-0.348,0-0.655-0.249-0.655-0.655
		c0-0.446,0.343-0.695,0.864-0.753l0.383-0.041v-0.389h-1.119l0.058-0.267h1.368v2.047H13.198z M13.152,43.48l-0.336,0.041
		c-0.383,0.047-0.598,0.215-0.598,0.499c0,0.237,0.18,0.417,0.429,0.417c0.261,0,0.435-0.186,0.505-0.255V43.48z"/>
	<path class="st0" d="M14.919,44.605c-0.058,0.029-0.174,0.093-0.354,0.093c-0.267,0-0.47-0.18-0.47-0.545v-2.812h0.313v2.794
		c0,0.197,0.117,0.278,0.232,0.278c0.122,0,0.232-0.052,0.278-0.075V44.605z"/>
</g>
<line class="st1" x1="193.01" y1="0.25" x2="236.856" y2="0.25"/>
<line class="st1" x1="189.766" y1="3.538" x2="233.611" y2="3.538"/>
<line class="st1" x1="283.247" y1="3.284" x2="286.281" y2="0.25"/>
<line class="st1" x1="326.861" y1="3.284" x2="329.895" y2="0.25"/>
<path class="st2" d="M284.843,2.882l1.032-1.032 M285.438,2.882l1.032-1.032 M286.034,2.882l1.032-1.032 M286.63,2.882l1.032-1.032
	 M287.226,2.882l1.032-1.032 M287.822,2.882l1.032-1.032 M288.417,2.882l1.032-1.032 M289.013,2.882l1.032-1.032 M289.609,2.882
	l1.032-1.032 M290.205,2.882l1.032-1.032 M290.801,2.882l1.032-1.032 M291.397,2.882l1.032-1.032 M291.992,2.882l1.032-1.032
	 M292.588,2.882l1.032-1.032 M293.184,2.882l1.032-1.032 M293.78,2.882l1.032-1.032 M294.376,2.882l1.032-1.032 M294.972,2.882
	l1.032-1.032 M295.567,2.882l1.032-1.032 M296.163,2.882l1.032-1.032 M296.759,2.882l1.032-1.032 M297.355,2.882l1.032-1.032
	 M297.951,2.882l1.032-1.032 M298.547,2.882l1.032-1.032 M299.142,2.882l1.032-1.032 M299.738,2.882l1.032-1.032 M300.334,2.882
	l1.032-1.032 M300.93,2.882l1.032-1.032 M301.526,2.882l1.032-1.032 M302.122,2.882l1.032-1.032 M302.717,2.882l1.032-1.032
	 M303.313,2.882l1.032-1.032 M303.909,2.882l1.032-1.032 M304.505,2.882l1.032-1.032 M305.101,2.882l1.032-1.032 M305.697,2.882
	l1.032-1.032 M306.292,2.882l1.032-1.032 M306.888,2.882l1.032-1.032 M307.484,2.882l1.032-1.032 M308.08,2.882l1.032-1.032
	 M308.676,2.882l1.032-1.032 M309.271,2.882l1.032-1.032 M309.867,2.882l1.032-1.032 M310.463,2.882l1.032-1.032 M311.059,2.882
	l1.032-1.032 M311.655,2.882l1.032-1.032 M312.251,2.882l1.032-1.032 M312.846,2.882l1.032-1.032 M313.442,2.882l1.032-1.032
	 M314.038,2.882l1.032-1.032 M314.634,2.882l1.032-1.032 M315.23,2.882l1.032-1.032 M315.826,2.882l1.032-1.032 M316.421,2.882
	l1.032-1.032"/>
<path class="st2" d="M285.763,1.938l1.032-1.032 M286.359,1.938l1.032-1.032 M286.955,1.938l1.032-1.032 M287.551,1.938l1.032-1.032
	 M288.146,1.938l1.032-1.032 M288.742,1.938l1.032-1.032 M289.338,1.938l1.032-1.032 M289.934,1.938l1.032-1.032 M290.53,1.938
	l1.032-1.032 M291.126,1.938l1.032-1.032 M291.721,1.938l1.032-1.032 M292.317,1.938l1.032-1.032 M292.913,1.938l1.032-1.032
	 M293.509,1.938l1.032-1.032 M294.105,1.938l1.032-1.032 M294.701,1.938l1.032-1.032 M295.296,1.938l1.032-1.032 M295.892,1.938
	l1.032-1.032 M296.488,1.938l1.032-1.032 M297.084,1.938l1.032-1.032 M297.68,1.938l1.032-1.032 M298.275,1.938l1.032-1.032
	 M298.871,1.938l1.032-1.032 M299.467,1.938l1.032-1.032 M300.063,1.938l1.032-1.032 M300.659,1.938l1.032-1.032 M301.255,1.938
	l1.032-1.032 M301.85,1.938l1.032-1.032 M302.446,1.938l1.032-1.032 M303.042,1.938l1.032-1.032 M303.638,1.938l1.032-1.032
	 M304.234,1.938l1.032-1.032 M304.83,1.938l1.032-1.032 M305.425,1.938l1.032-1.032 M306.021,1.938l1.032-1.032 M306.617,1.938
	l1.032-1.032 M307.213,1.938l1.032-1.032 M307.809,1.938l1.032-1.032 M308.405,1.938l1.032-1.032 M309,1.938l1.032-1.032
	 M309.596,1.938l1.032-1.032 M310.192,1.938l1.032-1.032 M310.788,1.938l1.032-1.032 M311.384,1.938l1.032-1.032 M311.98,1.938
	l1.032-1.032 M312.575,1.938l1.032-1.032 M313.171,1.938l1.032-1.032 M313.767,1.938l1.032-1.032 M314.363,1.938l1.032-1.032
	 M314.959,1.938l1.032-1.032 M315.554,1.938l1.032-1.032 M316.15,1.938l1.032-1.032 M316.746,1.938l1.032-1.032 M317.342,1.938
	l1.032-1.032"/>
<line class="st1" x1="286.154" y1="0.25" x2="330" y2="0.25"/>
<line class="st1" x1="286.154" y1="10.25" x2="330" y2="10.25"/>
<line class="st1" x1="282.91" y1="3.538" x2="326.756" y2="3.538"/>
<line class="st1" x1="283.247" y1="13.284" x2="286.281" y2="10.25"/>
<line class="st1" x1="326.861" y1="13.284" x2="329.895" y2="10.25"/>
<path class="st2" d="M284.843,12.882l1.032-1.032 M285.438,12.882l1.032-1.032 M286.034,12.882l1.032-1.032 M286.63,12.882
	l1.032-1.032 M287.226,12.882l1.032-1.032 M287.822,12.882l1.032-1.032 M288.417,12.882l1.032-1.032 M289.013,12.882l1.032-1.032
	 M289.609,12.882l1.032-1.032 M290.205,12.882l1.032-1.032 M290.801,12.882l1.032-1.032 M291.397,12.882l1.032-1.032
	 M291.992,12.882l1.032-1.032 M292.588,12.882l1.032-1.032 M293.184,12.882l1.032-1.032 M293.78,12.882l1.032-1.032 M294.376,12.882
	l1.032-1.032 M294.972,12.882l1.032-1.032 M295.567,12.882l1.032-1.032 M296.163,12.882l1.032-1.032 M296.759,12.882l1.032-1.032
	 M297.355,12.882l1.032-1.032 M297.951,12.882l1.032-1.032 M298.547,12.882l1.032-1.032 M299.142,12.882l1.032-1.032
	 M299.738,12.882l1.032-1.032 M300.334,12.882l1.032-1.032 M300.93,12.882l1.032-1.032 M301.526,12.882l1.032-1.032 M302.122,12.882
	l1.032-1.032 M302.717,12.882l1.032-1.032 M303.313,12.882l1.032-1.032 M303.909,12.882l1.032-1.032 M304.505,12.882l1.032-1.032
	 M305.101,12.882l1.032-1.032 M305.697,12.882l1.032-1.032 M306.292,12.882l1.032-1.032 M306.888,12.882l1.032-1.032
	 M307.484,12.882l1.032-1.032 M308.08,12.882l1.032-1.032 M308.676,12.882l1.032-1.032 M309.271,12.882l1.032-1.032 M309.867,12.882
	l1.032-1.032 M310.463,12.882l1.032-1.032 M311.059,12.882l1.032-1.032 M311.655,12.882l1.032-1.032 M312.251,12.882l1.032-1.032
	 M312.846,12.882l1.032-1.032 M313.442,12.882l1.032-1.032 M314.038,12.882l1.032-1.032 M314.634,12.882l1.032-1.032 M315.23,12.882
	l1.032-1.032 M315.826,12.882l1.032-1.032 M316.421,12.882l1.032-1.032"/>
<path class="st2" d="M285.763,11.938l1.032-1.032 M286.359,11.938l1.032-1.032 M286.955,11.938l1.032-1.032 M287.551,11.938
	l1.032-1.032 M288.146,11.938l1.032-1.032 M288.742,11.938l1.032-1.032 M289.338,11.938l1.032-1.032 M289.934,11.938l1.032-1.032
	 M290.53,11.938l1.032-1.032 M291.126,11.938l1.032-1.032 M291.721,11.938l1.032-1.032 M292.317,11.938l1.032-1.032 M292.913,11.938
	l1.032-1.032 M293.509,11.938l1.032-1.032 M294.105,11.938l1.032-1.032 M294.701,11.938l1.032-1.032 M295.296,11.938l1.032-1.032
	 M295.892,11.938l1.032-1.032 M296.488,11.938l1.032-1.032 M297.084,11.938l1.032-1.032 M297.68,11.938l1.032-1.032 M298.275,11.938
	l1.032-1.032 M298.871,11.938l1.032-1.032 M299.467,11.938l1.032-1.032 M300.063,11.938l1.032-1.032 M300.659,11.938l1.032-1.032
	 M301.255,11.938l1.032-1.032 M301.85,11.938l1.032-1.032 M302.446,11.938l1.032-1.032 M303.042,11.938l1.032-1.032 M303.638,11.938
	l1.032-1.032 M304.234,11.938l1.032-1.032 M304.83,11.938l1.032-1.032 M305.425,11.938l1.032-1.032 M306.021,11.938l1.032-1.032
	 M306.617,11.938l1.032-1.032 M307.213,11.938l1.032-1.032 M307.809,11.938l1.032-1.032 M308.405,11.938l1.032-1.032 M309,11.938
	l1.032-1.032 M309.596,11.938l1.032-1.032 M310.192,11.938l1.032-1.032 M310.788,11.938l1.032-1.032 M311.384,11.938l1.032-1.032
	 M311.98,11.938l1.032-1.032 M312.575,11.938l1.032-1.032 M313.171,11.938l1.032-1.032 M313.767,11.938l1.032-1.032 M314.363,11.938
	l1.032-1.032 M314.959,11.938l1.032-1.032 M315.554,11.938l1.032-1.032 M316.15,11.938l1.032-1.032 M316.746,11.938l1.032-1.032
	 M317.342,11.938l1.032-1.032"/>
<line class="st1" x1="282.91" y1="13.538" x2="326.756" y2="13.538"/>
<path class="st2" d="M191.631,2.911l1.032-1.032 M192.233,2.911l1.032-1.032 M192.836,2.911l1.032-1.032 M193.438,2.911l1.032-1.032
	 M194.04,2.911l1.032-1.032 M194.643,2.911l1.032-1.032 M195.245,2.911l1.032-1.032 M195.847,2.911l1.032-1.032 M196.45,2.911
	l1.032-1.032 M197.052,2.911l1.032-1.032 M197.655,2.911l1.032-1.032 M198.257,2.911l1.032-1.032 M198.859,2.911l1.032-1.032
	 M199.462,2.911l1.032-1.032 M200.064,2.911l1.032-1.032 M200.666,2.911l1.032-1.032 M201.269,2.911l1.032-1.032 M201.871,2.911
	l1.032-1.032 M202.473,2.911l1.032-1.032 M203.076,2.911l1.032-1.032 M203.678,2.911l1.032-1.032 M204.281,2.911l1.032-1.032
	 M204.884,2.911l1.032-1.032 M205.486,2.911l1.032-1.032 M206.088,2.911l1.032-1.032 M206.691,2.911l1.032-1.032 M207.293,2.911
	l1.032-1.032 M207.895,2.911l1.032-1.032 M208.498,2.911l1.032-1.032 M209.1,2.911l1.032-1.032 M209.702,2.911l1.032-1.032
	 M210.305,2.911l1.032-1.032 M210.907,2.911l1.032-1.032 M211.51,2.911l1.032-1.032 M212.112,2.911l1.032-1.032 M212.714,2.911
	l1.032-1.032 M213.317,2.911l1.032-1.032 M213.919,2.911l1.032-1.032 M214.521,2.911l1.032-1.032 M215.124,2.911l1.032-1.032
	 M215.726,2.911l1.032-1.032 M216.329,2.911l1.032-1.032 M216.931,2.911l1.032-1.032 M217.533,2.911l1.032-1.032 M218.136,2.911
	l1.032-1.032 M218.738,2.911l1.032-1.032 M219.341,2.911l1.032-1.032 M219.943,2.911l1.032-1.032 M220.546,2.911l1.032-1.032
	 M221.148,2.911l1.032-1.032 M221.75,2.911l1.032-1.032 M222.353,2.911l1.032-1.032 M222.955,2.911l1.032-1.032 M223.558,2.911
	l1.032-1.032 M224.16,2.911l1.032-1.032 M224.762,2.911l1.032-1.032 M225.365,2.911l1.032-1.032 M225.967,2.911l1.032-1.032
	 M226.569,2.911l1.032-1.032"/>
<path class="st2" d="M192.655,1.909l1.032-1.032 M193.256,1.909l1.032-1.032 M193.857,1.909l1.032-1.032 M194.457,1.909l1.032-1.032
	 M195.059,1.909l1.032-1.032 M195.659,1.909l1.032-1.032 M196.26,1.909l1.032-1.032 M196.861,1.909l1.032-1.032 M197.462,1.909
	l1.032-1.032 M198.063,1.909l1.032-1.032 M198.664,1.909l1.032-1.032 M199.265,1.909l1.032-1.032 M199.866,1.909l1.032-1.032
	 M200.467,1.909l1.032-1.032 M201.067,1.909l1.032-1.032 M201.669,1.909l1.032-1.032 M202.269,1.909l1.032-1.032 M202.87,1.909
	l1.032-1.032 M203.471,1.909l1.032-1.032 M204.072,1.909l1.032-1.032 M204.673,1.909l1.032-1.032 M205.274,1.909l1.032-1.032
	 M205.875,1.909l1.032-1.032 M206.476,1.909l1.032-1.032 M207.077,1.909l1.032-1.032 M207.677,1.909l1.032-1.032 M208.279,1.909
	l1.032-1.032 M208.879,1.909l1.032-1.032 M209.48,1.909l1.032-1.032 M210.081,1.909l1.032-1.032 M210.682,1.909l1.032-1.032
	 M211.283,1.909l1.032-1.032 M211.884,1.909l1.032-1.032 M212.485,1.909l1.032-1.032 M213.086,1.909l1.032-1.032 M213.687,1.909
	l1.032-1.032 M214.287,1.909l1.032-1.032 M214.889,1.909l1.032-1.032 M215.489,1.909l1.032-1.032 M216.09,1.909l1.032-1.032
	 M216.691,1.909l1.032-1.032 M217.292,1.909l1.032-1.032 M217.893,1.909l1.032-1.032 M218.494,1.909l1.032-1.032 M219.095,1.909
	l1.032-1.032 M219.696,1.909l1.032-1.032 M220.297,1.909l1.032-1.032 M220.897,1.909l1.032-1.032 M221.499,1.909l1.032-1.032
	 M222.099,1.909l1.032-1.032 M222.7,1.909l1.032-1.032 M223.301,1.909l1.032-1.032 M223.902,1.909l1.032-1.032 M224.503,1.909
	l1.032-1.032 M225.104,1.909l1.032-1.032 M225.705,1.909l1.032-1.032 M226.306,1.909l1.032-1.032 M226.906,1.909l1.032-1.032
	 M227.507,1.909l1.032-1.032"/>
</svg>