<!-- Generator: Adobe Illustrator 21.1.0, SVG Export Plug-In  -->
<svg version="1.1"
	 xmlns="http://www.w3.org/2000/svg" xmlns:xlink="http://www.w3.org/1999/xlink" xmlns:a="http://ns.adobe.com/AdobeSVGViewerExtensions/3.0/"
	 x="0px" y="0px" width="99.25px" height="39.75px" viewBox="0 0 99.25 39.75"
	 style="overflow:scroll;enable-background:new 0 0 99.25 39.75;" xml:space="preserve">
<style type="text/css">
	.st0{fill:none;stroke:#BE0D2A;stroke-width:0.75;stroke-miterlimit:10;}
	.st1{fill:none;stroke:#192577;stroke-width:0.75;stroke-miterlimit:10;}
	.st2{fill:none;stroke:#3F477F;stroke-width:0.25;stroke-miterlimit:10;}
	.st3{fill:#3F477F;}
	.st4{opacity:0.53;}
	.st5{clip-path:url(#SVGID_2_);fill:none;stroke:#3F477F;stroke-width:0.25;stroke-miterlimit:10;}
	.st6{clip-path:url(#SVGID_4_);fill:none;stroke:#3F477F;stroke-width:0.25;stroke-miterlimit:10;}
</style>
<defs>
</defs>
<g>
	<path class="st0" d="M87.91,36.375H7.875c-4.142,0-7.5-3.358-7.5-7.5v-21c0-4.142,3.358-7.5,7.5-7.5H87.91
		c4.142,0,7.5,3.358,7.5,7.5v21C95.41,33.017,92.052,36.375,87.91,36.375z"/>
	<path class="st1" d="M92.33,39.375H10.385c-3.615,0-6.545-2.93-6.545-6.545V9.92c0-3.615,2.93-6.545,6.545-6.545H92.33
		c3.615,0,6.545,2.93,6.545,6.545v22.91C98.875,36.445,95.945,39.375,92.33,39.375z"/>
</g>
<path class="st2" d="M62.393,15.145c0.121,0.053,0.165,0.15,0.163,0.289c-0.005,0.405-0.001,0.811-0.002,1.216
	c0,0.2-0.079,0.283-0.269,0.284c-0.235,0.001-0.47-0.006-0.705,0.003c-0.241,0.01-0.463,0.085-0.605,0.308
	c-0.062,0.098-0.113,0.22-0.123,0.335c-0.02,0.214-0.006,0.431-0.006,0.657h0.096c0.423,0,0.847,0,1.27,0.001
	c0.182,0,0.263,0.084,0.264,0.28c0.001,0.393,0.001,0.786,0,1.178c-0.001,0.191-0.082,0.276-0.259,0.277c-0.423,0-0.846,0-1.27,0
	h-0.109v0.124c0,1.461,0,2.922,0,4.383c0,0.04,0,0.082-0.008,0.122c-0.024,0.13-0.095,0.196-0.22,0.196
	c-0.532,0.001-1.065,0.001-1.597,0c-0.13,0-0.202-0.064-0.226-0.2c-0.007-0.04-0.007-0.082-0.007-0.122c0-1.458,0-2.916,0-4.374
	v-0.131h-0.102c-0.418,0-0.835,0-1.253,0c-0.202,0-0.274-0.078-0.274-0.296c-0.001-0.383-0.001-0.766,0-1.15
	c0-0.212,0.072-0.287,0.271-0.288c0.377,0,0.753,0,1.129,0h0.12c0-0.146-0.004-0.286,0.001-0.426
	c0.019-0.467,0.083-0.923,0.26-1.355c0.26-0.636,0.714-1.029,1.331-1.214c0.143-0.043,0.291-0.065,0.436-0.097H62.393z"/>
<path class="st3" d="M71.499,14.887c0.231,0.453,0.462,0.906,0.694,1.359c0.003,0.005,0.01,0.008,0.02,0.016
	c0.017-0.03,0.034-0.058,0.049-0.088c0.201-0.397,0.402-0.794,0.604-1.191c0.017-0.034,0.041-0.064,0.062-0.096h0.026
	c0.007,0.041,0.011,0.087-0.007,0.122c-0.211,0.422-0.427,0.841-0.636,1.264c-0.033,0.069-0.054,0.15-0.054,0.226
	c-0.004,0.709-0.002,1.418-0.005,2.126c0,0.044-0.027,0.088-0.042,0.132c-0.015-0.042-0.043-0.085-0.043-0.128
	c-0.003-0.718-0.001-1.437-0.004-2.155c0-0.057-0.016-0.12-0.042-0.171c-0.219-0.435-0.445-0.868-0.665-1.303
	c-0.016-0.032-0.011-0.075-0.016-0.113H71.499z"/>
<path class="st2" d="M71.499,14.887c0.231,0.453,0.462,0.906,0.694,1.359c0.003,0.005,0.01,0.008,0.02,0.016
	c0.017-0.03,0.034-0.058,0.049-0.088c0.201-0.397,0.402-0.794,0.604-1.191c0.017-0.034,0.041-0.064,0.062-0.096h0.026
	c0.007,0.041,0.011,0.087-0.007,0.122c-0.211,0.422-0.427,0.841-0.636,1.264c-0.033,0.069-0.054,0.15-0.054,0.226
	c-0.004,0.709-0.002,1.418-0.005,2.126c0,0.044-0.027,0.088-0.042,0.132c-0.015-0.042-0.043-0.085-0.043-0.128
	c-0.003-0.718-0.001-1.437-0.004-2.155c0-0.057-0.016-0.12-0.042-0.171c-0.219-0.435-0.445-0.868-0.665-1.303
	c-0.016-0.032-0.011-0.075-0.016-0.113H71.499z"/>
<path class="st3" d="M74.066,24.573c0.904,0,1.807,0.003,2.711-0.002c0.148,0,0.3-0.017,0.444-0.052
	c0.545-0.132,0.932-0.6,0.936-1.139c0.006-0.96,0.002-1.92,0.001-2.88c0-0.048,0.001-0.096-0.007-0.143
	c-0.097-0.589-0.622-1.042-1.238-1.043c-1.888-0.005-3.776-0.003-5.665-0.001c-0.106,0-0.214,0.016-0.318,0.04
	c-0.552,0.127-0.955,0.598-0.959,1.142c-0.006,0.963-0.004,1.927,0,2.89c0.001,0.393,0.186,0.699,0.504,0.932
	c0.257,0.189,0.553,0.257,0.871,0.257C72.253,24.573,73.16,24.573,74.066,24.573 M74.059,24.654c-0.946,0-1.892,0.002-2.837-0.001
	c-0.55-0.002-1.074-0.355-1.26-0.858c-0.052-0.143-0.08-0.303-0.081-0.456c-0.008-0.934-0.006-1.868-0.003-2.803
	c0.001-0.667,0.534-1.235,1.212-1.298c0.11-0.011,0.222-0.016,0.332-0.017c1.791,0,3.581-0.001,5.372,0
	c0.531,0.001,0.962,0.197,1.259,0.638c0.131,0.193,0.196,0.41,0.196,0.639c0.003,0.963,0.008,1.926-0.001,2.889
	c-0.006,0.626-0.52,1.168-1.158,1.248c-0.096,0.012-0.194,0.019-0.291,0.019C75.885,24.655,74.972,24.654,74.059,24.654z"/>
<path class="st3" d="M74.464,17.402c-0.009,0-0.018-0.001-0.028-0.001c0-0.215,0.01-0.432-0.002-0.647
	c-0.02-0.372-0.275-0.615-0.64-0.624c-0.358-0.01-0.61,0.2-0.628,0.585c-0.023,0.488-0.015,0.977,0.002,1.465
	c0.007,0.187,0.096,0.36,0.294,0.439c0.169,0.068,0.348,0.076,0.526,0.034c0.268-0.063,0.392-0.259,0.426-0.501
	C74.449,17.903,74.449,17.652,74.464,17.402 M74.514,17.375c0,0.235,0.014,0.47-0.003,0.704c-0.035,0.49-0.387,0.751-0.884,0.673
	c-0.334-0.053-0.513-0.224-0.551-0.594c-0.054-0.512-0.057-1.028,0.012-1.54c0.041-0.302,0.246-0.503,0.534-0.56
	c0.297-0.059,0.613,0.057,0.761,0.278c0.101,0.151,0.144,0.319,0.148,0.496c0.004,0.181,0.001,0.362,0.001,0.543H74.52H74.514z"/>
<path class="st2" d="M74.464,17.402c-0.009,0-0.018-0.001-0.028-0.001c0-0.215,0.01-0.432-0.002-0.647
	c-0.02-0.372-0.275-0.615-0.64-0.624c-0.358-0.01-0.61,0.2-0.628,0.585c-0.023,0.488-0.015,0.977,0.002,1.465
	c0.007,0.187,0.096,0.36,0.294,0.439c0.169,0.068,0.348,0.076,0.526,0.034c0.268-0.063,0.392-0.259,0.426-0.501
	C74.449,17.903,74.449,17.652,74.464,17.402z M74.514,17.375c0,0.235,0.014,0.47-0.003,0.704c-0.035,0.49-0.387,0.751-0.884,0.673
	c-0.334-0.053-0.513-0.224-0.551-0.594c-0.054-0.512-0.057-1.028,0.012-1.54c0.041-0.302,0.246-0.503,0.534-0.56
	c0.297-0.059,0.613,0.057,0.761,0.278c0.101,0.151,0.144,0.319,0.148,0.496c0.004,0.181,0.001,0.362,0.001,0.543H74.52H74.514z"/>
<path class="st3" d="M76.293,18.645v-0.122c0-0.782,0-1.564,0.002-2.346c0-0.039,0.028-0.079,0.043-0.118
	c0.012,0.039,0.035,0.078,0.035,0.117c0.002,0.811,0.001,1.621,0.003,2.432c0.001,0.089-0.02,0.124-0.118,0.12
	c-0.244-0.007-0.489,0-0.734-0.007c-0.263-0.008-0.419-0.149-0.46-0.405c-0.011-0.072-0.018-0.145-0.018-0.218
	c-0.003-0.648-0.003-1.297-0.004-1.945c0-0.019-0.004-0.04,0.002-0.057c0.007-0.015,0.025-0.034,0.038-0.034
	c0,0,0.034,0.019,0.037,0.033c0.007,0.031,0.005,0.063,0.005,0.095c0.005,0.661,0.009,1.322,0.015,1.984
	c0.001,0.063,0.01,0.127,0.027,0.188c0.054,0.196,0.158,0.272,0.406,0.281C75.806,18.652,76.042,18.645,76.293,18.645"/>
<path class="st2" d="M76.293,18.645v-0.122c0-0.782,0-1.564,0.002-2.346c0-0.039,0.028-0.079,0.043-0.118
	c0.012,0.039,0.035,0.078,0.035,0.117c0.002,0.811,0.001,1.621,0.003,2.432c0.001,0.089-0.02,0.124-0.118,0.12
	c-0.244-0.007-0.489,0-0.734-0.007c-0.263-0.008-0.419-0.149-0.46-0.405c-0.011-0.072-0.018-0.145-0.018-0.218
	c-0.003-0.648-0.003-1.297-0.004-1.945c0-0.019-0.004-0.04,0.002-0.057c0.007-0.015,0.025-0.034,0.038-0.034
	c0,0,0.034,0.019,0.037,0.033c0.007,0.031,0.005,0.063,0.005,0.095c0.005,0.661,0.009,1.322,0.015,1.984
	c0.001,0.063,0.01,0.127,0.027,0.188c0.054,0.196,0.158,0.272,0.406,0.281C75.806,18.652,76.042,18.645,76.293,18.645z"/>
<path class="st3" d="M74.246,23.642c0.032,0.004,0.054,0.009,0.076,0.009c0.215,0,0.43-0.002,0.646,0
	c0.134,0.001,0.239-0.058,0.292-0.171c0.053-0.114,0.109-0.239,0.111-0.36c0.012-0.533,0.013-1.067,0.002-1.6
	c-0.008-0.399-0.364-0.572-0.708-0.354c-0.117,0.074-0.225,0.162-0.341,0.238c-0.062,0.041-0.08,0.088-0.08,0.159
	c0.003,0.657,0.002,1.315,0.002,1.973V23.642z M74.246,21.355c0.104-0.075,0.184-0.146,0.275-0.197
	c0.111-0.063,0.227-0.134,0.35-0.16c0.286-0.06,0.516,0.115,0.579,0.418c0.013,0.062,0.021,0.126,0.022,0.189
	c0.001,0.454,0.001,0.908,0,1.363c0,0.179-0.027,0.354-0.112,0.516c-0.086,0.164-0.217,0.256-0.411,0.255
	c-0.225-0.001-0.45-0.003-0.675,0.001c-0.083,0.002-0.114-0.019-0.114-0.106c0.003-1.115,0.002-2.231,0.002-3.346
	c0-0.019-0.005-0.04,0.002-0.057c0.008-0.017,0.027-0.029,0.041-0.043c0.013,0.015,0.033,0.029,0.038,0.046
	c0.006,0.027,0.003,0.057,0.003,0.085C74.246,20.656,74.246,20.993,74.246,21.355"/>
<path class="st2" d="M74.246,23.642c0.032,0.004,0.054,0.009,0.076,0.009c0.215,0,0.43-0.002,0.646,0
	c0.134,0.001,0.239-0.058,0.292-0.171c0.053-0.114,0.109-0.239,0.111-0.36c0.012-0.533,0.013-1.067,0.002-1.6
	c-0.008-0.399-0.364-0.572-0.708-0.354c-0.117,0.074-0.225,0.162-0.341,0.238c-0.062,0.041-0.08,0.088-0.08,0.159
	c0.003,0.657,0.002,1.315,0.002,1.973V23.642z M74.246,21.355c0.104-0.075,0.184-0.146,0.275-0.197
	c0.111-0.063,0.227-0.134,0.35-0.16c0.286-0.06,0.516,0.115,0.579,0.418c0.013,0.062,0.021,0.126,0.022,0.189
	c0.001,0.454,0.001,0.908,0,1.363c0,0.179-0.027,0.354-0.112,0.516c-0.086,0.164-0.217,0.256-0.411,0.255
	c-0.225-0.001-0.45-0.003-0.675,0.001c-0.083,0.002-0.114-0.019-0.114-0.106c0.003-1.115,0.002-2.231,0.002-3.346
	c0-0.019-0.005-0.04,0.002-0.057c0.008-0.017,0.027-0.029,0.041-0.043c0.013,0.015,0.033,0.029,0.038,0.046
	c0.006,0.027,0.003,0.057,0.003,0.085C74.246,20.656,74.246,20.993,74.246,21.355z"/>
<path class="st3" d="M73.518,23.645v-0.116c0-0.778,0-1.557,0.002-2.335c0-0.041,0.027-0.082,0.041-0.123
	c0.016,0.042,0.047,0.084,0.047,0.126c0.003,0.814,0.001,1.627,0.004,2.44c0,0.081-0.025,0.105-0.106,0.103
	c-0.225-0.004-0.45-0.004-0.675-0.001c-0.376,0.005-0.538-0.186-0.546-0.527c-0.015-0.676-0.013-1.353-0.018-2.03
	c-0.001-0.015-0.005-0.033,0.001-0.047c0.01-0.023,0.028-0.043,0.043-0.065c0.016,0.021,0.037,0.04,0.046,0.063
	c0.007,0.023,0.001,0.05,0.001,0.075c0.001,0.61-0.001,1.221,0.005,1.83c0.001,0.129,0.02,0.26,0.053,0.384
	c0.039,0.143,0.148,0.221,0.304,0.222C72.98,23.646,73.24,23.645,73.518,23.645"/>
<path class="st2" d="M73.518,23.645v-0.116c0-0.778,0-1.557,0.002-2.335c0-0.041,0.027-0.082,0.041-0.123
	c0.016,0.042,0.047,0.084,0.047,0.126c0.003,0.814,0.001,1.627,0.004,2.44c0,0.081-0.025,0.105-0.106,0.103
	c-0.225-0.004-0.45-0.004-0.675-0.001c-0.376,0.005-0.538-0.186-0.546-0.527c-0.015-0.676-0.013-1.353-0.018-2.03
	c-0.001-0.015-0.005-0.033,0.001-0.047c0.01-0.023,0.028-0.043,0.043-0.065c0.016,0.021,0.037,0.04,0.046,0.063
	c0.007,0.023,0.001,0.05,0.001,0.075c0.001,0.61-0.001,1.221,0.005,1.83c0.001,0.129,0.02,0.26,0.053,0.384
	c0.039,0.143,0.148,0.221,0.304,0.222C72.98,23.646,73.24,23.645,73.518,23.645z"/>
<path class="st3" d="M71.305,20.265c-0.25,0-0.488,0-0.726,0c-0.026,0-0.054,0.004-0.077-0.004
	c-0.017-0.006-0.034-0.028-0.038-0.045c-0.002-0.009,0.022-0.03,0.037-0.035c0.021-0.007,0.045-0.005,0.068-0.005
	c0.564,0.001,1.128,0.002,1.692,0.004c0.016,0,0.034-0.005,0.048,0.001c0.024,0.01,0.046,0.027,0.068,0.041
	c-0.024,0.015-0.048,0.042-0.072,0.042c-0.268,0.003-0.535,0.002-0.802,0.002h-0.107v0.12c0,1.064,0,2.129-0.002,3.193
	c0,0.046-0.03,0.092-0.046,0.138c-0.014-0.047-0.041-0.094-0.041-0.141c-0.003-1.061-0.002-2.123-0.002-3.184V20.265z"/>
<path class="st2" d="M71.305,20.265c-0.25,0-0.488,0-0.726,0c-0.026,0-0.054,0.004-0.077-0.004
	c-0.017-0.006-0.034-0.028-0.038-0.045c-0.002-0.009,0.022-0.03,0.037-0.035c0.021-0.007,0.045-0.005,0.068-0.005
	c0.564,0.001,1.128,0.002,1.692,0.004c0.016,0,0.034-0.005,0.048,0.001c0.024,0.01,0.046,0.027,0.068,0.041
	c-0.024,0.015-0.048,0.042-0.072,0.042c-0.268,0.003-0.535,0.002-0.802,0.002h-0.107v0.12c0,1.064,0,2.129-0.002,3.193
	c0,0.046-0.03,0.092-0.046,0.138c-0.014-0.047-0.041-0.094-0.041-0.141c-0.003-1.061-0.002-2.123-0.002-3.184V20.265z"/>
<g class="st4">
	<path class="st3" d="M38.889,17.338c1.188,0.001,2.377,0.001,3.565,0.003c0.353,0,0.699,0.044,1.027,0.187
		c0.624,0.272,0.972,0.755,1.076,1.419c0.055,0.351,0.039,0.699-0.101,1.033c-0.085,0.202-0.214,0.37-0.396,0.518
		c0.302,0.182,0.492,0.446,0.614,0.771c0.059-0.199,0.103-0.389,0.17-0.571c0.229-0.62,0.612-1.113,1.216-1.41
		c0.516-0.253,1.067-0.311,1.632-0.264c0.363,0.03,0.712,0.12,1.031,0.304c0.55,0.317,0.873,0.804,1.034,1.404
		c0.139,0.517,0.17,1.041,0.079,1.573c-0.035,0.203-0.015,0.416-0.05,0.619c-0.098,0.569-0.428,0.972-0.934,1.235
		c-0.361,0.188-0.751,0.276-1.155,0.297c-0.566,0.029-1.123-0.012-1.65-0.247c-0.586-0.262-0.981-0.703-1.211-1.297
		c-0.023-0.059-0.044-0.119-0.065-0.178c-0.067,0.17-0.117,0.344-0.199,0.5c-0.327,0.619-0.879,0.917-1.542,1.041
		c-0.168,0.031-0.341,0.047-0.512,0.047c-1.178,0.004-2.356,0.002-3.533,0.002c-0.032,0-0.064-0.003-0.096-0.005
		C38.889,21.993,38.889,19.665,38.889,17.338z M43.368,20.335c0.409-0.079,0.666-0.315,0.749-0.719
		c0.029-0.142,0.038-0.292,0.029-0.437c-0.033-0.554-0.267-0.989-0.785-1.236c-0.284-0.135-0.589-0.169-0.899-0.17
		c-1.006-0.001-2.012,0-3.018,0c-0.038,0-0.076,0-0.117,0c0,2.046,0,4.077,0,6.113c0.034,0.002,0.062,0.005,0.09,0.005
		c1.038,0,2.076,0.005,3.114-0.004c0.219-0.002,0.444-0.037,0.655-0.095c0.497-0.135,0.89-0.416,1.073-0.917
		c0.163-0.446,0.165-0.906,0.036-1.362c-0.123-0.434-0.382-0.723-0.866-0.744c-0.021-0.001-0.057-0.035-0.058-0.055
		C43.365,20.592,43.368,20.467,43.368,20.335z M49.381,22.724c-0.238,0-0.46-0.002-0.681,0.003
		c-0.026,0.001-0.063,0.039-0.075,0.068c-0.087,0.211-0.234,0.368-0.437,0.469c-0.354,0.176-0.731,0.199-1.111,0.13
		c-0.781-0.143-1.109-0.787-1.018-1.547c1.127,0,2.256,0,3.39,0c0.012-0.479-0.046-0.932-0.241-1.361
		c-0.249-0.544-0.674-0.864-1.257-0.985c-0.392-0.081-0.782-0.073-1.173,0.002c-0.518,0.1-0.949,0.348-1.242,0.792
		c-0.47,0.712-0.586,1.489-0.346,2.309c0.175,0.598,0.55,1.026,1.14,1.254c0.357,0.138,0.73,0.176,1.107,0.174
		c0.478-0.003,0.943-0.074,1.355-0.341C49.136,23.468,49.331,23.149,49.381,22.724z M46.495,22.29
		c0.05,0.296,0.191,0.509,0.464,0.62c0.31,0.125,0.626,0.112,0.934,0.006c0.307-0.106,0.399-0.3,0.327-0.626
		C47.65,22.29,47.078,22.29,46.495,22.29z"/>
	<path class="st3" d="M45.75,18.963c0-0.416,0-0.819,0-1.229c1.043,0,2.082,0,3.126,0c0,0.411,0,0.817,0,1.229
		C47.833,18.963,46.795,18.963,45.75,18.963z M46.185,18.528c0.761,0,1.51,0,2.258,0c0-0.125,0-0.241,0-0.362
		c-0.755,0-1.503,0-2.258,0C46.185,18.289,46.185,18.405,46.185,18.528z"/>
	<path class="st3" d="M40.397,23.162c0-0.73,0-1.448,0-2.179c0.038-0.002,0.076-0.005,0.114-0.005c0.641,0,1.282-0.001,1.923,0
		c0.526,0.001,0.899,0.334,0.968,0.858c0.036,0.271,0.024,0.535-0.082,0.79c-0.128,0.307-0.372,0.461-0.689,0.513
		c-0.102,0.017-0.207,0.021-0.31,0.022C41.684,23.163,41.046,23.162,40.397,23.162z M40.829,22.728c0.557,0,1.101,0.005,1.645-0.002
		c0.25-0.003,0.409-0.122,0.471-0.321c0.057-0.185,0.06-0.375,0.016-0.562c-0.074-0.312-0.226-0.428-0.548-0.428
		c-0.487,0-0.974,0-1.461,0c-0.041,0-0.082,0-0.123,0C40.829,21.862,40.829,22.29,40.829,22.728z"/>
	<path class="st3" d="M40.398,20.404c0-0.636,0-1.261,0-1.899c0.044,0,0.086,0,0.128,0c0.616,0,1.232,0.011,1.847-0.004
		c0.447-0.011,0.724,0.236,0.793,0.637c0.056,0.325,0.048,0.65-0.125,0.947c-0.109,0.188-0.283,0.278-0.492,0.302
		c-0.113,0.013-0.228,0.015-0.343,0.015c-0.562,0.001-1.124,0.001-1.686,0.001C40.481,20.404,40.442,20.404,40.398,20.404z
		 M40.828,19.96c0.57,0,1.131,0.002,1.692-0.002c0.101-0.001,0.159-0.076,0.189-0.167c0.061-0.187,0.068-0.381,0.031-0.572
		c-0.042-0.222-0.12-0.278-0.345-0.278c-0.479,0-0.959,0-1.438,0c-0.042,0-0.083,0-0.129,0
		C40.828,19.287,40.828,19.619,40.828,19.96z"/>
	<path class="st3" d="M48.62,21.41c-0.886,0-1.747,0-2.617,0c0.016-0.283,0.085-0.544,0.226-0.786
		c0.429-0.739,1.291-0.762,1.758-0.525c0.377,0.191,0.552,0.524,0.609,0.928C48.614,21.149,48.612,21.274,48.62,21.41z
		 M48.145,20.972c-0.036-0.161-0.104-0.295-0.225-0.398c-0.257-0.219-0.74-0.229-1.045-0.023c-0.154,0.103-0.263,0.241-0.336,0.421
		C47.083,20.972,47.61,20.972,48.145,20.972z"/>
</g>
<g>
	<defs>
		<rect id="SVGID_1_" x="20.875" y="17.81" width="8.874" height="6.845"/>
	</defs>
	<clipPath id="SVGID_2_">
		<use xlink:href="#SVGID_1_"  style="overflow:visible;"/>
	</clipPath>
	<path class="st5" d="M21.763,18.374l3.39,4.247l3.622-4.536 M28.195,24.53h-5.766C21.64,24.53,21,23.729,21,22.74v-3.015
		c0-0.989,0.64-1.79,1.429-1.79h5.766c0.789,0,1.429,0.801,1.429,1.79v3.015C29.624,23.729,28.984,24.53,28.195,24.53z"/>
</g>
</svg>