<!-- Generator: Adobe Illustrator 21.1.0, SVG Export Plug-In  -->
<svg version="1.1"
	 xmlns="http://www.w3.org/2000/svg" xmlns:xlink="http://www.w3.org/1999/xlink" xmlns:a="http://ns.adobe.com/AdobeSVGViewerExtensions/3.0/"
	 x="0px" y="0px" width="410.875px" height="48px" viewBox="0 0 410.875 48"
	 style="overflow:scroll;enable-background:new 0 0 410.875 48;" xml:space="preserve">
<style type="text/css">
	.st0{fill:none;stroke:#4F517E;stroke-width:2;stroke-linecap:round;stroke-linejoin:round;stroke-dasharray:0,5.989;}
	.st1{fill:none;}
	.st2{fill:#192577;}
	.st3{fill:none;stroke:#29196E;stroke-width:0.75;stroke-miterlimit:10;}
	.st4{fill:none;stroke:#29196E;stroke-width:0.5;stroke-miterlimit:10;}
</style>
<defs>
</defs>
<line class="st0" x1="404.875" y1="1" x2="4.875" y2="1"/>
<g>
	<rect x="34.875" y="17.335" class="st1" width="80" height="30.333"/>
	<path class="st2" d="M36.002,21.967c-0.432,0-0.711-0.152-0.823-0.208v-0.432c0.104,0.048,0.472,0.264,0.823,0.264
		c0.313,0,0.592-0.136,0.592-0.415c0-0.272-0.416-0.424-0.655-0.552c-0.28-0.152-0.784-0.393-0.784-0.856
		c0-0.495,0.408-0.799,0.977-0.799c0.415,0,0.703,0.16,0.783,0.208v0.407c-0.208-0.128-0.52-0.248-0.76-0.248
		c-0.359,0-0.576,0.176-0.576,0.393c0,0.264,0.353,0.407,0.592,0.52c0.264,0.128,0.848,0.376,0.848,0.903
		C37.018,21.696,36.555,21.967,36.002,21.967z"/>
	<path class="st2" d="M38.034,18.505l-0.368-0.36l0.36-0.359l0.368,0.359L38.034,18.505z M37.818,21.879v-2.822h0.432v2.822H37.818z
		"/>
	<path class="st2" d="M40.154,21.967c-0.408,0-0.824-0.216-0.824-0.999v-1.583h-0.6l0.12-0.328h0.479v-1.111h0.432v1.111h1.039
		l-0.119,0.328h-0.92v1.599c0,0.439,0.176,0.584,0.488,0.584c0.248,0,0.487-0.145,0.575-0.185v0.393
		C40.754,21.815,40.514,21.967,40.154,21.967z"/>
	<path class="st2" d="M41.642,18.505l-0.368-0.36l0.36-0.359l0.368,0.359L41.642,18.505z M41.426,21.879v-2.822h0.432v2.822H41.426z
		"/>
	<path class="st2" d="M44.145,21.967c-0.823,0-1.486-0.647-1.486-1.495s0.663-1.503,1.486-1.503c0.824,0,1.488,0.655,1.488,1.503
		S44.969,21.967,44.145,21.967z M44.145,19.369c-0.583,0-1.047,0.479-1.047,1.104s0.464,1.096,1.047,1.096
		c0.584,0,1.048-0.472,1.048-1.096S44.729,19.369,44.145,19.369z"/>
	<path class="st2" d="M47.041,21.967c-0.432,0-0.711-0.152-0.823-0.208v-0.432c0.104,0.048,0.472,0.264,0.823,0.264
		c0.313,0,0.592-0.136,0.592-0.415c0-0.272-0.416-0.424-0.655-0.552c-0.28-0.152-0.784-0.393-0.784-0.856
		c0-0.495,0.408-0.799,0.977-0.799c0.415,0,0.703,0.16,0.783,0.208v0.407c-0.208-0.128-0.52-0.248-0.76-0.248
		c-0.359,0-0.576,0.176-0.576,0.393c0,0.264,0.353,0.407,0.592,0.52c0.264,0.128,0.848,0.376,0.848,0.903
		C48.057,21.696,47.594,21.967,47.041,21.967z"/>
	<path class="st2" d="M52.969,21.879h-0.4l-0.664-1.903l-0.663,1.903h-0.399l-1.023-2.822h0.455l0.775,2.255l0.752-2.255h0.208
		l0.751,2.255l0.775-2.255h0.457L52.969,21.879z"/>
	<path class="st2" d="M54.745,20.512c0.04,0.72,0.552,1.071,1.087,1.071c0.584,0,0.96-0.271,1.072-0.328v0.4
		c-0.08,0.048-0.464,0.312-1.119,0.312c-0.76,0-1.472-0.56-1.472-1.495c0-0.92,0.712-1.503,1.479-1.503
		c0.647,0,1.191,0.52,1.191,1.335v0.208H54.745z M55.753,19.353c-0.647,0-0.903,0.495-0.983,0.823h1.799
		C56.568,19.737,56.248,19.353,55.753,19.353z"/>
	<path class="st2" d="M59.017,21.967c-0.487,0-0.775-0.24-0.863-0.304l-0.063,0.216h-0.328v-4.541h0.432v1.887
		c0.064-0.04,0.336-0.256,0.855-0.256c0.744,0,1.407,0.647,1.407,1.503C60.456,21.32,59.816,21.967,59.017,21.967z M58.945,19.369
		c-0.4,0-0.68,0.224-0.752,0.28v1.623c0.08,0.063,0.359,0.296,0.752,0.296c0.607,0,1.063-0.48,1.063-1.096
		C60.008,19.848,59.561,19.369,58.945,19.369z"/>
	<path class="st2" d="M63.824,19.377c-0.359,0-0.695,0.336-0.775,0.416v2.087h-0.432v-2.822h0.432v0.407
		c0.088-0.096,0.376-0.495,0.84-0.495c0.128,0,0.2,0.016,0.248,0.031v0.408C64.089,19.409,63.984,19.377,63.824,19.377z"/>
	<path class="st2" d="M64.85,20.512c0.039,0.72,0.551,1.071,1.087,1.071c0.584,0,0.96-0.271,1.071-0.328v0.4
		c-0.08,0.048-0.463,0.312-1.119,0.312c-0.76,0-1.471-0.56-1.471-1.495c0-0.92,0.711-1.503,1.479-1.503
		c0.648,0,1.191,0.52,1.191,1.335v0.208H64.85z M65.857,19.353c-0.648,0-0.904,0.495-0.984,0.823h1.799
		C66.672,19.737,66.353,19.353,65.857,19.353z"/>
	<path class="st2" d="M68.553,21.967c-0.432,0-0.711-0.152-0.823-0.208v-0.432c0.104,0.048,0.472,0.264,0.823,0.264
		c0.313,0,0.592-0.136,0.592-0.415c0-0.272-0.416-0.424-0.655-0.552c-0.28-0.152-0.784-0.393-0.784-0.856
		c0-0.495,0.408-0.799,0.977-0.799c0.415,0,0.703,0.16,0.783,0.208v0.407c-0.208-0.128-0.52-0.248-0.76-0.248
		c-0.359,0-0.576,0.176-0.576,0.393c0,0.264,0.353,0.407,0.592,0.52c0.264,0.128,0.848,0.376,0.848,0.903
		C69.568,21.696,69.105,21.967,68.553,21.967z"/>
	<path class="st2" d="M71.561,21.967c-0.479,0-0.744-0.184-0.84-0.231v1.959h-0.432v-4.638h0.432v0.384l0.88-0.472
		c0.312,0.088,1.367,0.392,1.367,1.583C72.968,21.328,72.32,21.967,71.561,21.967z M71.608,19.393l-0.888,0.439v1.479
		c0.08,0.048,0.352,0.256,0.729,0.256c0.575,0,1.07-0.456,1.07-1.032C72.52,19.745,71.864,19.489,71.608,19.393z"/>
	<path class="st2" d="M75.017,21.967c-0.823,0-1.487-0.647-1.487-1.495s0.664-1.503,1.487-1.503s1.487,0.655,1.487,1.503
		S75.84,21.967,75.017,21.967z M75.017,19.369c-0.584,0-1.048,0.479-1.048,1.104s0.464,1.096,1.048,1.096
		c0.583,0,1.048-0.472,1.048-1.096S75.6,19.369,75.017,19.369z"/>
	<path class="st2" d="M79.128,21.879v-1.903c0-0.367-0.208-0.607-0.56-0.607c-0.512,0-0.848,0.472-0.912,0.552v1.959h-0.432v-2.822
		h0.432v0.399c0.064-0.071,0.376-0.487,0.977-0.487c0.512,0,0.927,0.344,0.927,0.976v1.935H79.128z"/>
	<path class="st2" d="M81.129,21.967c-0.432,0-0.712-0.152-0.824-0.208v-0.432c0.104,0.048,0.472,0.264,0.824,0.264
		c0.312,0,0.592-0.136,0.592-0.415c0-0.272-0.416-0.424-0.656-0.552c-0.279-0.152-0.783-0.393-0.783-0.856
		c0-0.495,0.407-0.799,0.975-0.799c0.416,0,0.704,0.16,0.784,0.208v0.407c-0.208-0.128-0.521-0.248-0.76-0.248
		c-0.36,0-0.575,0.176-0.575,0.393c0,0.264,0.352,0.407,0.592,0.52c0.264,0.128,0.847,0.376,0.847,0.903
		C82.144,21.696,81.68,21.967,81.129,21.967z"/>
	<path class="st2" d="M83.16,18.505l-0.367-0.36l0.359-0.359l0.367,0.359L83.16,18.505z M82.944,21.879v-2.822h0.433v2.822H82.944z"
		/>
	<path class="st2" d="M85.392,21.879h-0.439l-1.016-2.822H84.4l0.768,2.255l0.775-2.255h0.464L85.392,21.879z"/>
	<path class="st2" d="M87.16,20.512c0.039,0.72,0.551,1.071,1.087,1.071c0.584,0,0.96-0.271,1.071-0.328v0.4
		c-0.08,0.048-0.463,0.312-1.119,0.312c-0.76,0-1.471-0.56-1.471-1.495c0-0.92,0.711-1.503,1.479-1.503
		c0.648,0,1.191,0.52,1.191,1.335v0.208H87.16z M88.168,19.353c-0.648,0-0.904,0.495-0.984,0.823h1.799
		C88.982,19.737,88.663,19.353,88.168,19.353z"/>
	<path class="st2" d="M90.256,23.134v-0.128c0.208-0.079,0.464-0.279,0.464-0.68c0-0.375-0.296-0.615-0.448-0.768l0.4-0.399
		l0.096,0.088c0.096,0.096,0.384,0.368,0.384,0.815C91.151,22.599,90.768,23.046,90.256,23.134z"/>
	<path class="st2" d="M95.199,21.879l-0.04-0.24c-0.088,0.072-0.327,0.32-0.839,0.32c-0.48,0-0.904-0.344-0.904-0.903
		c0-0.616,0.472-0.96,1.191-1.04l0.527-0.056v-0.536h-1.543l0.08-0.367h1.887v2.822H95.199z M95.135,20.289l-0.463,0.056
		c-0.528,0.064-0.824,0.296-0.824,0.688c0,0.328,0.248,0.576,0.592,0.576c0.359,0,0.6-0.256,0.695-0.353V20.289z"/>
	<path class="st2" d="M97.711,21.967c-0.479,0-0.744-0.184-0.84-0.231v1.959h-0.432v-4.638h0.432v0.384l0.88-0.472
		c0.312,0.088,1.367,0.392,1.367,1.583C99.118,21.328,98.471,21.967,97.711,21.967z M97.759,19.393l-0.888,0.439v1.479
		c0.08,0.048,0.352,0.256,0.729,0.256c0.575,0,1.07-0.456,1.07-1.032C98.67,19.745,98.015,19.489,97.759,19.393z"/>
	<path class="st2" d="M101.111,21.967c-0.48,0-0.744-0.184-0.84-0.231v1.959H99.84v-4.638h0.432v0.384l0.879-0.472
		c0.313,0.088,1.367,0.392,1.367,1.583C102.518,21.328,101.871,21.967,101.111,21.967z M101.159,19.393l-0.888,0.439v1.479
		c0.08,0.048,0.352,0.256,0.728,0.256c0.575,0,1.071-0.456,1.071-1.032C102.07,19.745,101.415,19.489,101.159,19.393z"/>
	<path class="st2" d="M103.928,21.967c-0.432,0-0.712-0.152-0.824-0.208v-0.432c0.104,0.048,0.472,0.264,0.824,0.264
		c0.312,0,0.592-0.136,0.592-0.415c0-0.272-0.416-0.424-0.656-0.552c-0.279-0.152-0.783-0.393-0.783-0.856
		c0-0.495,0.407-0.799,0.975-0.799c0.416,0,0.704,0.16,0.784,0.208v0.407c-0.208-0.128-0.521-0.248-0.76-0.248
		c-0.36,0-0.575,0.176-0.575,0.393c0,0.264,0.352,0.407,0.592,0.52c0.264,0.128,0.847,0.376,0.847,0.903
		C104.942,21.696,104.479,21.967,103.928,21.967z"/>
	<path class="st2" d="M36.674,29.967c-0.84,0-1.52-0.615-1.52-1.487c0-0.863,0.664-1.503,1.52-1.503
		c0.464,0,0.863,0.208,0.983,0.271v0.416c-0.104-0.056-0.479-0.279-0.976-0.279c-0.639,0-1.079,0.479-1.079,1.095
		c0,0.647,0.479,1.079,1.079,1.079c0.512,0,0.904-0.231,0.992-0.279v0.399C37.569,29.744,37.242,29.967,36.674,29.967z"/>
	<path class="st2" d="M39.723,29.967c-0.824,0-1.488-0.647-1.488-1.495s0.664-1.503,1.488-1.503c0.823,0,1.486,0.655,1.486,1.503
		S40.546,29.967,39.723,29.967z M39.723,27.369c-0.584,0-1.048,0.479-1.048,1.104s0.464,1.096,1.048,1.096
		c0.583,0,1.047-0.472,1.047-1.096S40.306,27.369,39.723,27.369z"/>
	<path class="st2" d="M43.834,29.879v-1.903c0-0.367-0.208-0.607-0.56-0.607c-0.512,0-0.848,0.472-0.911,0.552v1.959h-0.432v-2.822
		h0.432v0.399c0.063-0.071,0.375-0.487,0.975-0.487c0.512,0,0.928,0.344,0.928,0.976v1.935H43.834z"/>
	<path class="st2" d="M46.883,26.505l-0.368-0.36l0.36-0.359l0.367,0.359L46.883,26.505z M46.666,31.894v-4.837h0.433v4.413
		L46.666,31.894z"/>
	<path class="st2" d="M50.162,31.695v-1.983c-0.064,0.04-0.336,0.256-0.855,0.256c-0.744,0-1.408-0.647-1.408-1.503
		c0-0.848,0.641-1.495,1.439-1.495c0.488,0,0.775,0.239,0.863,0.304l0.064-0.216h0.328v4.638H50.162z M49.41,29.568
		c0.4,0,0.68-0.225,0.752-0.28v-1.623c-0.08-0.063-0.36-0.296-0.752-0.296c-0.607,0-1.063,0.479-1.063,1.096
		C48.347,29.087,48.795,29.568,49.41,29.568z"/>
	<path class="st2" d="M53.338,29.879V29.52c-0.08,0.104-0.328,0.447-0.903,0.447c-0.56,0-0.96-0.392-0.96-1.071v-1.839h0.432v1.799
		c0,0.456,0.264,0.703,0.632,0.703c0.504,0,0.743-0.472,0.8-0.567v-1.935h0.432v2.822H53.338z"/>
	<path class="st2" d="M54.922,28.512c0.041,0.72,0.553,1.071,1.088,1.071c0.584,0,0.959-0.271,1.072-0.328v0.4
		c-0.08,0.048-0.465,0.312-1.12,0.312c-0.76,0-1.472-0.56-1.472-1.495c0-0.92,0.712-1.503,1.479-1.503
		c0.647,0,1.191,0.52,1.191,1.335v0.208H54.922z M55.93,27.353c-0.647,0-0.903,0.495-0.983,0.823h1.8
		C56.746,27.737,56.426,27.353,55.93,27.353z"/>
	<path class="st2" d="M59.146,27.377c-0.36,0-0.695,0.336-0.775,0.416v2.087h-0.432v-2.822h0.432v0.407
		c0.088-0.096,0.375-0.495,0.839-0.495c0.128,0,0.2,0.016,0.248,0.031v0.408C59.41,27.409,59.307,27.377,59.146,27.377z"/>
	<path class="st2" d="M60.946,29.879l-0.64,1.815h-0.432l0.64-1.815l-1.016-2.822h0.464l0.768,2.255l0.775-2.255h0.464
		L60.946,29.879z"/>
	<path class="st2" d="M67.553,29.879v-1.927c0-0.352-0.184-0.584-0.52-0.584c-0.488,0-0.816,0.456-0.88,0.528v1.982h-0.432v-1.927
		c0-0.352-0.185-0.584-0.521-0.584c-0.487,0-0.814,0.456-0.879,0.528v1.982h-0.432v-2.822h0.432v0.384
		c0.064-0.072,0.359-0.472,0.936-0.472c0.375,0,0.688,0.184,0.823,0.535c0.208-0.216,0.464-0.535,1.016-0.535
		c0.495,0,0.888,0.327,0.888,0.936v1.975H67.553z"/>
	<path class="st2" d="M70.193,29.967c-0.823,0-1.486-0.647-1.486-1.495s0.663-1.503,1.486-1.503c0.824,0,1.488,0.655,1.488,1.503
		S71.018,29.967,70.193,29.967z M70.193,27.369c-0.583,0-1.047,0.479-1.047,1.104s0.464,1.096,1.047,1.096
		c0.584,0,1.048-0.472,1.048-1.096S70.777,27.369,70.193,27.369z"/>
	<path class="st2" d="M73.658,29.967c-0.488,0-0.775-0.24-0.863-0.304l-0.064,0.216h-0.328v-4.541h0.432v1.887
		c0.064-0.04,0.336-0.256,0.855-0.256c0.744,0,1.408,0.647,1.408,1.503C75.098,29.32,74.457,29.967,73.658,29.967z M73.586,27.369
		c-0.4,0-0.68,0.224-0.752,0.28v1.623c0.08,0.063,0.36,0.296,0.752,0.296c0.607,0,1.063-0.48,1.063-1.096
		C74.649,27.848,74.201,27.369,73.586,27.369z"/>
	<path class="st2" d="M76.114,26.505l-0.368-0.36l0.36-0.359l0.368,0.359L76.114,26.505z M75.898,29.879v-2.822h0.432v2.822H75.898z
		"/>
	<path class="st2" d="M78.426,29.839c-0.08,0.04-0.24,0.128-0.488,0.128c-0.367,0-0.646-0.248-0.646-0.752v-3.877h0.432v3.854
		c0,0.271,0.159,0.384,0.319,0.384c0.168,0,0.319-0.072,0.384-0.104V29.839z"/>
	<path class="st2" d="M79.338,28.512c0.04,0.72,0.552,1.071,1.088,1.071c0.584,0,0.959-0.271,1.071-0.328v0.4
		c-0.08,0.048-0.464,0.312-1.12,0.312c-0.759,0-1.471-0.56-1.471-1.495c0-0.92,0.712-1.503,1.479-1.503
		c0.647,0,1.19,0.52,1.19,1.335v0.208H79.338z M80.346,27.353c-0.648,0-0.904,0.495-0.983,0.823h1.799
		C81.161,27.737,80.842,27.353,80.346,27.353z"/>
	<path class="st2" d="M82.434,31.134v-0.128c0.209-0.079,0.465-0.279,0.465-0.68c0-0.375-0.297-0.615-0.448-0.768l0.399-0.399
		l0.096,0.088c0.097,0.096,0.385,0.368,0.385,0.815C83.33,30.599,82.945,31.046,82.434,31.134z"/>
	<path class="st2" d="M84.65,26.505l-0.368-0.36l0.36-0.359l0.367,0.359L84.65,26.505z M84.434,31.894v-4.837h0.433v4.413
		L84.434,31.894z"/>
	<path class="st2" d="M87.41,29.879l-0.041-0.24c-0.088,0.072-0.327,0.32-0.839,0.32c-0.479,0-0.903-0.344-0.903-0.903
		c0-0.616,0.471-0.96,1.191-1.04l0.527-0.056v-0.536h-1.543l0.08-0.367h1.887v2.822H87.41z M87.346,28.289l-0.464,0.056
		c-0.528,0.064-0.823,0.296-0.823,0.688c0,0.328,0.248,0.576,0.592,0.576c0.359,0,0.6-0.256,0.695-0.353V28.289z"/>
	<path class="st2" d="M89.706,29.879h-0.439l-1.016-2.822h0.464l0.768,2.255l0.775-2.255h0.464L89.706,29.879z"/>
	<path class="st2" d="M92.785,29.879l-0.039-0.24c-0.088,0.072-0.328,0.32-0.84,0.32c-0.48,0-0.904-0.344-0.904-0.903
		c0-0.616,0.473-0.96,1.191-1.04l0.528-0.056v-0.536h-1.543l0.079-0.367h1.888v2.822H92.785z M92.722,28.289l-0.464,0.056
		c-0.527,0.064-0.823,0.296-0.823,0.688c0,0.328,0.247,0.576,0.591,0.576c0.36,0,0.6-0.256,0.696-0.353V28.289z"/>
	<path class="st2" d="M94.106,31.134v-0.128c0.208-0.079,0.464-0.279,0.464-0.68c0-0.375-0.296-0.615-0.447-0.768l0.399-0.399
		l0.096,0.088c0.097,0.096,0.384,0.368,0.384,0.815C95.002,30.599,94.618,31.046,94.106,31.134z"/>
	<path class="st2" d="M97.386,29.967c-0.839,0-1.519-0.615-1.519-1.487c0-0.863,0.663-1.503,1.519-1.503
		c0.464,0,0.864,0.208,0.983,0.271v0.416c-0.104-0.056-0.479-0.279-0.975-0.279c-0.641,0-1.08,0.479-1.08,1.095
		c0,0.647,0.48,1.079,1.08,1.079c0.512,0,0.902-0.231,0.99-0.279v0.399C98.281,29.744,97.953,29.967,97.386,29.967z"/>
	<path class="st2" d="M102.929,27.001h-1.016l-0.264,1.216h1.007l-0.071,0.376h-1.016l-0.28,1.287h-0.375l0.279-1.287h-0.943
		l-0.279,1.287h-0.376l0.28-1.287h-1.008l0.08-0.376h1.007l0.265-1.216h-1.008l0.08-0.375h1.007l0.28-1.287h0.375l-0.279,1.287
		h0.943l0.28-1.287h0.376l-0.28,1.287H103L102.929,27.001z M100.594,27.001l-0.264,1.216h0.943l0.264-1.216H100.594z"/>
	<path class="st2" d="M38.065,37.879h-0.399l-0.664-1.903l-0.664,1.903h-0.399l-1.023-2.822h0.456l0.775,2.255l0.752-2.255h0.207
		l0.752,2.255l0.775-2.255h0.456L38.065,37.879z"/>
	<path class="st2" d="M40.898,37.967c-0.824,0-1.488-0.647-1.488-1.495s0.664-1.503,1.488-1.503c0.823,0,1.486,0.655,1.486,1.503
		S41.722,37.967,40.898,37.967z M40.898,35.369c-0.584,0-1.048,0.479-1.048,1.104s0.464,1.096,1.048,1.096
		c0.583,0,1.047-0.472,1.047-1.096S41.481,35.369,40.898,35.369z"/>
	<path class="st2" d="M44.314,35.377c-0.36,0-0.695,0.336-0.775,0.416v2.087h-0.432v-2.822h0.432v0.407
		c0.088-0.096,0.375-0.495,0.839-0.495c0.128,0,0.2,0.016,0.248,0.031v0.408C44.578,35.409,44.475,35.377,44.314,35.377z"/>
	<path class="st2" d="M47.153,37.879v-0.384l-0.88,0.472c-0.311-0.088-1.367-0.392-1.367-1.583c0-0.775,0.648-1.415,1.408-1.415
		c0.479,0,0.743,0.184,0.839,0.231v-1.862h0.433v4.541H47.153z M47.153,35.625c-0.071-0.048-0.352-0.256-0.728-0.256
		c-0.576,0-1.071,0.456-1.071,1.031c0,0.792,0.655,1.048,0.911,1.144l0.888-0.439V35.625z"/>
	<path class="st2" d="M49.738,37.967c-0.48,0-0.744-0.184-0.84-0.231v1.959h-0.432v-4.638h0.432v0.384l0.879-0.472
		c0.313,0.088,1.367,0.392,1.367,1.583C51.145,37.328,50.498,37.967,49.738,37.967z M49.786,35.393l-0.888,0.439v1.479
		c0.08,0.048,0.352,0.256,0.728,0.256c0.575,0,1.071-0.456,1.071-1.032C50.697,35.745,50.042,35.489,49.786,35.393z"/>
	<path class="st2" d="M53.074,35.377c-0.36,0-0.695,0.336-0.775,0.416v2.087h-0.432v-2.822h0.432v0.407
		c0.088-0.096,0.375-0.495,0.839-0.495c0.128,0,0.2,0.016,0.248,0.031v0.408C53.338,35.409,53.234,35.377,53.074,35.377z"/>
	<path class="st2" d="M54.098,36.512c0.041,0.72,0.553,1.071,1.088,1.071c0.584,0,0.959-0.271,1.072-0.328v0.4
		c-0.08,0.048-0.465,0.312-1.12,0.312c-0.76,0-1.472-0.56-1.472-1.495c0-0.92,0.712-1.503,1.479-1.503
		c0.647,0,1.191,0.52,1.191,1.335v0.208H54.098z M55.105,35.353c-0.647,0-0.903,0.495-0.983,0.823h1.8
		C55.922,35.737,55.602,35.353,55.105,35.353z"/>
	<path class="st2" d="M57.803,37.967c-0.432,0-0.712-0.152-0.824-0.208v-0.432c0.104,0.048,0.472,0.264,0.824,0.264
		c0.312,0,0.592-0.136,0.592-0.415c0-0.272-0.416-0.424-0.656-0.552c-0.279-0.152-0.783-0.393-0.783-0.856
		c0-0.495,0.407-0.799,0.975-0.799c0.416,0,0.704,0.16,0.784,0.208v0.407c-0.208-0.128-0.521-0.248-0.76-0.248
		c-0.36,0-0.575,0.176-0.575,0.393c0,0.264,0.352,0.407,0.592,0.52c0.264,0.128,0.847,0.376,0.847,0.903
		C58.817,37.696,58.354,37.967,57.803,37.967z"/>
	<path class="st2" d="M60.227,37.967c-0.432,0-0.712-0.152-0.824-0.208v-0.432c0.104,0.048,0.472,0.264,0.824,0.264
		c0.312,0,0.592-0.136,0.592-0.415c0-0.272-0.416-0.424-0.656-0.552c-0.279-0.152-0.783-0.393-0.783-0.856
		c0-0.495,0.407-0.799,0.975-0.799c0.416,0,0.704,0.16,0.784,0.208v0.407c-0.208-0.128-0.521-0.248-0.76-0.248
		c-0.36,0-0.575,0.176-0.575,0.393c0,0.264,0.352,0.407,0.592,0.52c0.264,0.128,0.847,0.376,0.847,0.903
		C61.241,37.696,60.777,37.967,60.227,37.967z"/>
	<path class="st2" d="M62.042,39.134v-0.128c0.208-0.079,0.464-0.279,0.464-0.68c0-0.375-0.296-0.615-0.447-0.768l0.399-0.399
		l0.096,0.088c0.097,0.096,0.384,0.368,0.384,0.815C62.938,38.599,62.554,39.046,62.042,39.134z"/>
	<path class="st2" d="M64.258,34.505l-0.367-0.36l0.359-0.359l0.367,0.359L64.258,34.505z M64.042,39.894v-4.837h0.433v4.413
		L64.042,39.894z"/>
	<path class="st2" d="M67.018,37.879l-0.041-0.24c-0.088,0.072-0.327,0.32-0.839,0.32c-0.479,0-0.903-0.344-0.903-0.903
		c0-0.616,0.471-0.96,1.191-1.04l0.527-0.056v-0.536H65.41l0.08-0.367h1.887v2.822H67.018z M66.953,36.289l-0.464,0.056
		c-0.528,0.064-0.823,0.296-0.823,0.688c0,0.328,0.248,0.576,0.592,0.576c0.359,0,0.6-0.256,0.695-0.353V36.289z"/>
	<path class="st2" d="M69.313,37.879h-0.439l-1.016-2.822h0.464l0.768,2.255l0.775-2.255h0.464L69.313,37.879z"/>
	<path class="st2" d="M72.393,37.879l-0.039-0.24c-0.088,0.072-0.328,0.32-0.84,0.32c-0.48,0-0.904-0.344-0.904-0.903
		c0-0.616,0.473-0.96,1.191-1.04l0.528-0.056v-0.536h-1.543l0.079-0.367h1.888v2.822H72.393z M72.329,36.289l-0.464,0.056
		c-0.527,0.064-0.823,0.296-0.823,0.688c0,0.328,0.247,0.576,0.591,0.576c0.36,0,0.6-0.256,0.696-0.353V36.289z"/>
	<path class="st2" d="M74.322,37.967c-0.432,0-0.712-0.152-0.824-0.208v-0.432c0.104,0.048,0.472,0.264,0.824,0.264
		c0.312,0,0.592-0.136,0.592-0.415c0-0.272-0.416-0.424-0.656-0.552c-0.279-0.152-0.783-0.393-0.783-0.856
		c0-0.495,0.407-0.799,0.975-0.799c0.416,0,0.704,0.16,0.784,0.208v0.407c-0.208-0.128-0.521-0.248-0.76-0.248
		c-0.36,0-0.575,0.176-0.575,0.393c0,0.264,0.352,0.407,0.592,0.52c0.264,0.128,0.847,0.376,0.847,0.903
		C75.337,37.696,74.873,37.967,74.322,37.967z"/>
	<path class="st2" d="M77.417,37.967c-0.839,0-1.519-0.615-1.519-1.487c0-0.863,0.663-1.503,1.519-1.503
		c0.464,0,0.864,0.208,0.983,0.271v0.416c-0.104-0.056-0.479-0.279-0.975-0.279c-0.641,0-1.08,0.479-1.08,1.095
		c0,0.647,0.48,1.079,1.08,1.079c0.512,0,0.902-0.231,0.99-0.279v0.399C78.313,37.744,77.984,37.967,77.417,37.967z"/>
	<path class="st2" d="M80.346,35.377c-0.36,0-0.695,0.336-0.775,0.416v2.087h-0.432v-2.822h0.432v0.407
		c0.088-0.096,0.375-0.495,0.839-0.495c0.128,0,0.2,0.016,0.248,0.031v0.408C80.609,35.409,80.506,35.377,80.346,35.377z"/>
	<path class="st2" d="M81.394,34.505l-0.368-0.36l0.36-0.359l0.368,0.359L81.394,34.505z M81.178,37.879v-2.822h0.432v2.822H81.178z
		"/>
	<path class="st2" d="M83.841,37.967c-0.479,0-0.743-0.184-0.839-0.231v1.959H82.57v-4.638h0.432v0.384l0.879-0.472
		c0.313,0.088,1.367,0.392,1.367,1.583C85.248,37.328,84.601,37.967,83.841,37.967z M83.889,35.393l-0.887,0.439v1.479
		c0.08,0.048,0.352,0.256,0.727,0.256c0.576,0,1.072-0.456,1.072-1.032C84.801,35.745,84.145,35.489,83.889,35.393z"/>
	<path class="st2" d="M86.913,37.967c-0.407,0-0.823-0.216-0.823-0.999v-1.583h-0.6l0.119-0.328h0.48v-1.111h0.432v1.111h1.039
		l-0.119,0.328h-0.92v1.599c0,0.439,0.176,0.584,0.487,0.584c0.248,0,0.487-0.145,0.575-0.185v0.393
		C87.513,37.815,87.273,37.967,86.913,37.967z"/>
</g>
<g>
	<rect x="171.875" y="15.335" class="st1" width="80" height="30.333"/>
	<path class="st2" d="M173.002,19.967c-0.432,0-0.711-0.152-0.823-0.208v-0.432c0.104,0.048,0.472,0.264,0.823,0.264
		c0.313,0,0.592-0.136,0.592-0.415c0-0.272-0.416-0.424-0.655-0.552c-0.28-0.152-0.784-0.393-0.784-0.856
		c0-0.495,0.408-0.799,0.977-0.799c0.415,0,0.703,0.16,0.783,0.208v0.407c-0.208-0.128-0.52-0.248-0.76-0.248
		c-0.359,0-0.576,0.176-0.576,0.393c0,0.264,0.353,0.407,0.592,0.52c0.264,0.128,0.848,0.376,0.848,0.903
		C174.018,19.696,173.555,19.967,173.002,19.967z"/>
	<path class="st2" d="M175.034,16.505l-0.368-0.36l0.36-0.359l0.368,0.359L175.034,16.505z M174.818,19.879v-2.822h0.432v2.822
		H174.818z"/>
	<path class="st2" d="M177.154,19.967c-0.408,0-0.824-0.216-0.824-0.999v-1.583h-0.6l0.12-0.328h0.479v-1.111h0.432v1.111h1.039
		l-0.119,0.328h-0.92v1.599c0,0.439,0.176,0.584,0.488,0.584c0.248,0,0.487-0.145,0.575-0.185v0.393
		C177.754,19.815,177.514,19.967,177.154,19.967z"/>
	<path class="st2" d="M178.642,16.505l-0.368-0.36l0.36-0.359l0.368,0.359L178.642,16.505z M178.426,19.879v-2.822h0.432v2.822
		H178.426z"/>
	<path class="st2" d="M181.145,19.967c-0.823,0-1.486-0.647-1.486-1.495s0.663-1.503,1.486-1.503c0.824,0,1.488,0.655,1.488,1.503
		S181.969,19.967,181.145,19.967z M181.145,17.369c-0.583,0-1.047,0.479-1.047,1.104s0.464,1.096,1.047,1.096
		c0.584,0,1.048-0.472,1.048-1.096S181.729,17.369,181.145,17.369z"/>
	<path class="st2" d="M184.041,19.967c-0.432,0-0.711-0.152-0.823-0.208v-0.432c0.104,0.048,0.472,0.264,0.823,0.264
		c0.313,0,0.592-0.136,0.592-0.415c0-0.272-0.416-0.424-0.655-0.552c-0.28-0.152-0.784-0.393-0.784-0.856
		c0-0.495,0.408-0.799,0.977-0.799c0.415,0,0.703,0.16,0.783,0.208v0.407c-0.208-0.128-0.52-0.248-0.76-0.248
		c-0.359,0-0.576,0.176-0.576,0.393c0,0.264,0.353,0.407,0.592,0.52c0.264,0.128,0.848,0.376,0.848,0.903
		C185.057,19.696,184.594,19.967,184.041,19.967z"/>
	<path class="st2" d="M189.969,19.879h-0.4l-0.664-1.903l-0.663,1.903h-0.399l-1.023-2.822h0.455l0.775,2.255l0.752-2.255h0.208
		l0.751,2.255l0.775-2.255h0.457L189.969,19.879z"/>
	<path class="st2" d="M191.745,18.512c0.04,0.72,0.552,1.071,1.087,1.071c0.584,0,0.96-0.271,1.072-0.328v0.4
		c-0.08,0.048-0.464,0.312-1.119,0.312c-0.76,0-1.472-0.56-1.472-1.495c0-0.92,0.712-1.503,1.479-1.503
		c0.647,0,1.191,0.52,1.191,1.335v0.208H191.745z M192.753,17.353c-0.647,0-0.903,0.495-0.983,0.823h1.799
		C193.568,17.737,193.248,17.353,192.753,17.353z"/>
	<path class="st2" d="M196.017,19.967c-0.487,0-0.775-0.24-0.863-0.304l-0.063,0.216h-0.328v-4.541h0.432v1.887
		c0.064-0.04,0.336-0.256,0.855-0.256c0.744,0,1.407,0.647,1.407,1.503C197.456,19.32,196.816,19.967,196.017,19.967z
		 M195.945,17.369c-0.4,0-0.68,0.224-0.752,0.28v1.623c0.08,0.063,0.359,0.296,0.752,0.296c0.607,0,1.063-0.48,1.063-1.096
		C197.008,17.848,196.561,17.369,195.945,17.369z"/>
	<path class="st2" d="M200.824,17.377c-0.359,0-0.695,0.336-0.775,0.416v2.087h-0.432v-2.822h0.432v0.407
		c0.088-0.096,0.376-0.495,0.84-0.495c0.128,0,0.2,0.016,0.248,0.031v0.408C201.089,17.409,200.984,17.377,200.824,17.377z"/>
	<path class="st2" d="M201.85,18.512c0.039,0.72,0.551,1.071,1.087,1.071c0.584,0,0.96-0.271,1.071-0.328v0.4
		c-0.08,0.048-0.463,0.312-1.119,0.312c-0.76,0-1.471-0.56-1.471-1.495c0-0.92,0.711-1.503,1.479-1.503
		c0.648,0,1.191,0.52,1.191,1.335v0.208H201.85z M202.857,17.353c-0.648,0-0.904,0.495-0.984,0.823h1.799
		C203.672,17.737,203.353,17.353,202.857,17.353z"/>
	<path class="st2" d="M205.553,19.967c-0.432,0-0.711-0.152-0.823-0.208v-0.432c0.104,0.048,0.472,0.264,0.823,0.264
		c0.313,0,0.592-0.136,0.592-0.415c0-0.272-0.416-0.424-0.655-0.552c-0.28-0.152-0.784-0.393-0.784-0.856
		c0-0.495,0.408-0.799,0.977-0.799c0.415,0,0.703,0.16,0.783,0.208v0.407c-0.208-0.128-0.52-0.248-0.76-0.248
		c-0.359,0-0.576,0.176-0.576,0.393c0,0.264,0.353,0.407,0.592,0.52c0.264,0.128,0.848,0.376,0.848,0.903
		C206.568,19.696,206.105,19.967,205.553,19.967z"/>
	<path class="st2" d="M208.561,19.967c-0.479,0-0.744-0.184-0.84-0.231v1.959h-0.432v-4.638h0.432v0.384l0.88-0.472
		c0.312,0.088,1.367,0.392,1.367,1.583C209.968,19.328,209.32,19.967,208.561,19.967z M208.608,17.393l-0.888,0.439v1.479
		c0.08,0.048,0.352,0.256,0.729,0.256c0.575,0,1.07-0.456,1.07-1.032C209.52,17.745,208.864,17.489,208.608,17.393z"/>
	<path class="st2" d="M212.017,19.967c-0.823,0-1.487-0.647-1.487-1.495s0.664-1.503,1.487-1.503s1.487,0.655,1.487,1.503
		S212.84,19.967,212.017,19.967z M212.017,17.369c-0.584,0-1.048,0.479-1.048,1.104s0.464,1.096,1.048,1.096
		c0.583,0,1.048-0.472,1.048-1.096S212.6,17.369,212.017,17.369z"/>
	<path class="st2" d="M216.128,19.879v-1.903c0-0.367-0.208-0.607-0.56-0.607c-0.512,0-0.848,0.472-0.912,0.552v1.959h-0.432v-2.822
		h0.432v0.399c0.064-0.071,0.376-0.487,0.977-0.487c0.512,0,0.927,0.344,0.927,0.976v1.935H216.128z"/>
	<path class="st2" d="M218.129,19.967c-0.432,0-0.712-0.152-0.824-0.208v-0.432c0.104,0.048,0.472,0.264,0.824,0.264
		c0.312,0,0.592-0.136,0.592-0.415c0-0.272-0.416-0.424-0.656-0.552c-0.279-0.152-0.783-0.393-0.783-0.856
		c0-0.495,0.407-0.799,0.975-0.799c0.416,0,0.704,0.16,0.784,0.208v0.407c-0.208-0.128-0.521-0.248-0.76-0.248
		c-0.36,0-0.575,0.176-0.575,0.393c0,0.264,0.352,0.407,0.592,0.52c0.264,0.128,0.847,0.376,0.847,0.903
		C219.144,19.696,218.68,19.967,218.129,19.967z"/>
	<path class="st2" d="M220.16,16.505l-0.367-0.36l0.359-0.359l0.367,0.359L220.16,16.505z M219.944,19.879v-2.822h0.433v2.822
		H219.944z"/>
	<path class="st2" d="M222.392,19.879h-0.439l-1.016-2.822h0.464l0.768,2.255l0.775-2.255h0.464L222.392,19.879z"/>
	<path class="st2" d="M224.16,18.512c0.039,0.72,0.551,1.071,1.087,1.071c0.584,0,0.96-0.271,1.071-0.328v0.4
		c-0.08,0.048-0.463,0.312-1.119,0.312c-0.76,0-1.471-0.56-1.471-1.495c0-0.92,0.711-1.503,1.479-1.503
		c0.648,0,1.191,0.52,1.191,1.335v0.208H224.16z M225.168,17.353c-0.648,0-0.904,0.495-0.984,0.823h1.799
		C225.982,17.737,225.663,17.353,225.168,17.353z"/>
	<path class="st2" d="M227.256,21.134v-0.128c0.208-0.079,0.464-0.279,0.464-0.68c0-0.375-0.296-0.615-0.448-0.768l0.4-0.399
		l0.096,0.088c0.096,0.096,0.384,0.368,0.384,0.815C228.151,20.599,227.768,21.046,227.256,21.134z"/>
	<path class="st2" d="M232.199,19.879l-0.04-0.24c-0.088,0.072-0.327,0.32-0.839,0.32c-0.48,0-0.904-0.344-0.904-0.903
		c0-0.616,0.472-0.96,1.191-1.04l0.527-0.056v-0.536h-1.543l0.08-0.367h1.887v2.822H232.199z M232.135,18.289l-0.463,0.056
		c-0.528,0.064-0.824,0.296-0.824,0.688c0,0.328,0.248,0.576,0.592,0.576c0.359,0,0.6-0.256,0.695-0.353V18.289z"/>
	<path class="st2" d="M234.711,19.967c-0.479,0-0.744-0.184-0.84-0.231v1.959h-0.432v-4.638h0.432v0.384l0.88-0.472
		c0.312,0.088,1.367,0.392,1.367,1.583C236.118,19.328,235.471,19.967,234.711,19.967z M234.759,17.393l-0.888,0.439v1.479
		c0.08,0.048,0.352,0.256,0.729,0.256c0.575,0,1.07-0.456,1.07-1.032C235.67,17.745,235.015,17.489,234.759,17.393z"/>
	<path class="st2" d="M238.111,19.967c-0.48,0-0.744-0.184-0.84-0.231v1.959h-0.432v-4.638h0.432v0.384l0.879-0.472
		c0.313,0.088,1.367,0.392,1.367,1.583C239.518,19.328,238.871,19.967,238.111,19.967z M238.159,17.393l-0.888,0.439v1.479
		c0.08,0.048,0.352,0.256,0.728,0.256c0.575,0,1.071-0.456,1.071-1.032C239.07,17.745,238.415,17.489,238.159,17.393z"/>
	<path class="st2" d="M240.928,19.967c-0.432,0-0.712-0.152-0.824-0.208v-0.432c0.104,0.048,0.472,0.264,0.824,0.264
		c0.312,0,0.592-0.136,0.592-0.415c0-0.272-0.416-0.424-0.656-0.552c-0.279-0.152-0.783-0.393-0.783-0.856
		c0-0.495,0.407-0.799,0.975-0.799c0.416,0,0.704,0.16,0.784,0.208v0.407c-0.208-0.128-0.521-0.248-0.76-0.248
		c-0.36,0-0.575,0.176-0.575,0.393c0,0.264,0.352,0.407,0.592,0.52c0.264,0.128,0.847,0.376,0.847,0.903
		C241.942,19.696,241.479,19.967,240.928,19.967z"/>
	<path class="st2" d="M173.674,27.967c-0.84,0-1.52-0.615-1.52-1.487c0-0.863,0.664-1.503,1.52-1.503
		c0.464,0,0.863,0.208,0.983,0.271v0.416c-0.104-0.056-0.479-0.279-0.976-0.279c-0.639,0-1.079,0.479-1.079,1.095
		c0,0.647,0.479,1.079,1.079,1.079c0.512,0,0.904-0.231,0.992-0.279v0.399C174.569,27.744,174.242,27.967,173.674,27.967z"/>
	<path class="st2" d="M176.723,27.967c-0.824,0-1.488-0.647-1.488-1.495s0.664-1.503,1.488-1.503c0.823,0,1.486,0.655,1.486,1.503
		S177.546,27.967,176.723,27.967z M176.723,25.369c-0.584,0-1.048,0.479-1.048,1.104s0.464,1.096,1.048,1.096
		c0.583,0,1.047-0.472,1.047-1.096S177.306,25.369,176.723,25.369z"/>
	<path class="st2" d="M180.834,27.879v-1.903c0-0.367-0.208-0.607-0.56-0.607c-0.512,0-0.848,0.472-0.911,0.552v1.959h-0.432v-2.822
		h0.432v0.399c0.063-0.071,0.375-0.487,0.975-0.487c0.512,0,0.928,0.344,0.928,0.976v1.935H180.834z"/>
	<path class="st2" d="M183.883,24.505l-0.368-0.36l0.36-0.359l0.367,0.359L183.883,24.505z M183.666,29.894v-4.837h0.433v4.413
		L183.666,29.894z"/>
	<path class="st2" d="M187.162,29.695v-1.983c-0.064,0.04-0.336,0.256-0.855,0.256c-0.744,0-1.408-0.647-1.408-1.503
		c0-0.848,0.641-1.495,1.439-1.495c0.488,0,0.775,0.239,0.863,0.304l0.064-0.216h0.328v4.638H187.162z M186.41,27.568
		c0.4,0,0.68-0.225,0.752-0.28v-1.623c-0.08-0.063-0.36-0.296-0.752-0.296c-0.607,0-1.063,0.479-1.063,1.096
		C185.347,27.087,185.795,27.568,186.41,27.568z"/>
	<path class="st2" d="M190.338,27.879V27.52c-0.08,0.104-0.328,0.447-0.903,0.447c-0.56,0-0.96-0.392-0.96-1.071v-1.839h0.432v1.799
		c0,0.456,0.264,0.703,0.632,0.703c0.504,0,0.743-0.472,0.8-0.567v-1.935h0.432v2.822H190.338z"/>
	<path class="st2" d="M191.922,26.512c0.041,0.72,0.553,1.071,1.088,1.071c0.584,0,0.959-0.271,1.072-0.328v0.4
		c-0.08,0.048-0.465,0.312-1.12,0.312c-0.76,0-1.472-0.56-1.472-1.495c0-0.92,0.712-1.503,1.479-1.503
		c0.647,0,1.191,0.52,1.191,1.335v0.208H191.922z M192.93,25.353c-0.647,0-0.903,0.495-0.983,0.823h1.8
		C193.746,25.737,193.426,25.353,192.93,25.353z"/>
	<path class="st2" d="M196.146,25.377c-0.36,0-0.695,0.336-0.775,0.416v2.087h-0.432v-2.822h0.432v0.407
		c0.088-0.096,0.375-0.495,0.839-0.495c0.128,0,0.2,0.016,0.248,0.031v0.408C196.41,25.409,196.307,25.377,196.146,25.377z"/>
	<path class="st2" d="M197.946,27.879l-0.64,1.815h-0.432l0.64-1.815l-1.016-2.822h0.464l0.768,2.255l0.775-2.255h0.464
		L197.946,27.879z"/>
	<path class="st2" d="M204.553,27.879v-1.927c0-0.352-0.184-0.584-0.52-0.584c-0.488,0-0.816,0.456-0.88,0.528v1.982h-0.432v-1.927
		c0-0.352-0.185-0.584-0.521-0.584c-0.487,0-0.814,0.456-0.879,0.528v1.982h-0.432v-2.822h0.432v0.384
		c0.064-0.072,0.359-0.472,0.936-0.472c0.375,0,0.688,0.184,0.823,0.535c0.208-0.216,0.464-0.535,1.016-0.535
		c0.495,0,0.888,0.327,0.888,0.936v1.975H204.553z"/>
	<path class="st2" d="M207.193,27.967c-0.823,0-1.486-0.647-1.486-1.495s0.663-1.503,1.486-1.503c0.824,0,1.488,0.655,1.488,1.503
		S208.018,27.967,207.193,27.967z M207.193,25.369c-0.583,0-1.047,0.479-1.047,1.104s0.464,1.096,1.047,1.096
		c0.584,0,1.048-0.472,1.048-1.096S207.777,25.369,207.193,25.369z"/>
	<path class="st2" d="M210.658,27.967c-0.488,0-0.775-0.24-0.863-0.304l-0.064,0.216h-0.328v-4.541h0.432v1.887
		c0.064-0.04,0.336-0.256,0.855-0.256c0.744,0,1.408,0.647,1.408,1.503C212.098,27.32,211.457,27.967,210.658,27.967z
		 M210.586,25.369c-0.4,0-0.68,0.224-0.752,0.28v1.623c0.08,0.063,0.36,0.296,0.752,0.296c0.607,0,1.063-0.48,1.063-1.096
		C211.649,25.848,211.201,25.369,210.586,25.369z"/>
	<path class="st2" d="M213.114,24.505l-0.368-0.36l0.36-0.359l0.368,0.359L213.114,24.505z M212.898,27.879v-2.822h0.432v2.822
		H212.898z"/>
	<path class="st2" d="M215.426,27.839c-0.08,0.04-0.24,0.128-0.488,0.128c-0.367,0-0.646-0.248-0.646-0.752v-3.877h0.432v3.854
		c0,0.271,0.159,0.384,0.319,0.384c0.168,0,0.319-0.072,0.384-0.104V27.839z"/>
	<path class="st2" d="M216.338,26.512c0.04,0.72,0.552,1.071,1.088,1.071c0.584,0,0.959-0.271,1.071-0.328v0.4
		c-0.08,0.048-0.464,0.312-1.12,0.312c-0.759,0-1.471-0.56-1.471-1.495c0-0.92,0.712-1.503,1.479-1.503
		c0.647,0,1.19,0.52,1.19,1.335v0.208H216.338z M217.346,25.353c-0.648,0-0.904,0.495-0.983,0.823h1.799
		C218.161,25.737,217.842,25.353,217.346,25.353z"/>
	<path class="st2" d="M219.434,29.134v-0.128c0.209-0.079,0.465-0.279,0.465-0.68c0-0.375-0.297-0.615-0.448-0.768l0.399-0.399
		l0.096,0.088c0.097,0.096,0.385,0.368,0.385,0.815C220.33,28.599,219.945,29.046,219.434,29.134z"/>
	<path class="st2" d="M221.65,24.505l-0.368-0.36l0.36-0.359l0.367,0.359L221.65,24.505z M221.434,29.894v-4.837h0.433v4.413
		L221.434,29.894z"/>
	<path class="st2" d="M224.41,27.879l-0.041-0.24c-0.088,0.072-0.327,0.32-0.839,0.32c-0.479,0-0.903-0.344-0.903-0.903
		c0-0.616,0.471-0.96,1.191-1.04l0.527-0.056v-0.536h-1.543l0.08-0.367h1.887v2.822H224.41z M224.346,26.289l-0.464,0.056
		c-0.528,0.064-0.823,0.296-0.823,0.688c0,0.328,0.248,0.576,0.592,0.576c0.359,0,0.6-0.256,0.695-0.353V26.289z"/>
	<path class="st2" d="M226.706,27.879h-0.439l-1.016-2.822h0.464l0.768,2.255l0.775-2.255h0.464L226.706,27.879z"/>
	<path class="st2" d="M229.785,27.879l-0.039-0.24c-0.088,0.072-0.328,0.32-0.84,0.32c-0.48,0-0.904-0.344-0.904-0.903
		c0-0.616,0.473-0.96,1.191-1.04l0.528-0.056v-0.536h-1.543l0.079-0.367h1.888v2.822H229.785z M229.722,26.289l-0.464,0.056
		c-0.527,0.064-0.823,0.296-0.823,0.688c0,0.328,0.247,0.576,0.591,0.576c0.36,0,0.6-0.256,0.696-0.353V26.289z"/>
	<path class="st2" d="M231.106,29.134v-0.128c0.208-0.079,0.464-0.279,0.464-0.68c0-0.375-0.296-0.615-0.447-0.768l0.399-0.399
		l0.096,0.088c0.097,0.096,0.384,0.368,0.384,0.815C232.002,28.599,231.618,29.046,231.106,29.134z"/>
	<path class="st2" d="M234.386,27.967c-0.839,0-1.519-0.615-1.519-1.487c0-0.863,0.663-1.503,1.519-1.503
		c0.464,0,0.864,0.208,0.983,0.271v0.416c-0.104-0.056-0.479-0.279-0.975-0.279c-0.641,0-1.08,0.479-1.08,1.095
		c0,0.647,0.48,1.079,1.08,1.079c0.512,0,0.902-0.231,0.99-0.279v0.399C235.281,27.744,234.953,27.967,234.386,27.967z"/>
	<path class="st2" d="M239.929,25.001h-1.016l-0.264,1.216h1.007l-0.071,0.376h-1.016l-0.28,1.287h-0.375l0.279-1.287h-0.943
		l-0.279,1.287h-0.376l0.28-1.287h-1.008l0.08-0.376h1.007l0.265-1.216h-1.008l0.08-0.375h1.007l0.28-1.287h0.375l-0.279,1.287
		h0.943l0.28-1.287h0.376l-0.28,1.287H240L239.929,25.001z M237.594,25.001l-0.264,1.216h0.943l0.264-1.216H237.594z"/>
	<path class="st2" d="M175.065,35.879h-0.399l-0.664-1.903l-0.664,1.903h-0.399l-1.023-2.822h0.456l0.775,2.255l0.752-2.255h0.207
		l0.752,2.255l0.775-2.255h0.456L175.065,35.879z"/>
	<path class="st2" d="M177.898,35.967c-0.824,0-1.488-0.647-1.488-1.495s0.664-1.503,1.488-1.503c0.823,0,1.486,0.655,1.486,1.503
		S178.722,35.967,177.898,35.967z M177.898,33.369c-0.584,0-1.048,0.479-1.048,1.104s0.464,1.096,1.048,1.096
		c0.583,0,1.047-0.472,1.047-1.096S178.481,33.369,177.898,33.369z"/>
	<path class="st2" d="M181.314,33.377c-0.36,0-0.695,0.336-0.775,0.416v2.087h-0.432v-2.822h0.432v0.407
		c0.088-0.096,0.375-0.495,0.839-0.495c0.128,0,0.2,0.016,0.248,0.031v0.408C181.578,33.409,181.475,33.377,181.314,33.377z"/>
	<path class="st2" d="M184.153,35.879v-0.384l-0.88,0.472c-0.311-0.088-1.367-0.392-1.367-1.583c0-0.775,0.648-1.415,1.408-1.415
		c0.479,0,0.743,0.184,0.839,0.231v-1.862h0.433v4.541H184.153z M184.153,33.625c-0.071-0.048-0.352-0.256-0.728-0.256
		c-0.576,0-1.071,0.456-1.071,1.031c0,0.792,0.655,1.048,0.911,1.144l0.888-0.439V33.625z"/>
	<path class="st2" d="M186.738,35.967c-0.48,0-0.744-0.184-0.84-0.231v1.959h-0.432v-4.638h0.432v0.384l0.879-0.472
		c0.313,0.088,1.367,0.392,1.367,1.583C188.145,35.328,187.498,35.967,186.738,35.967z M186.786,33.393l-0.888,0.439v1.479
		c0.08,0.048,0.352,0.256,0.728,0.256c0.575,0,1.071-0.456,1.071-1.032C187.697,33.745,187.042,33.489,186.786,33.393z"/>
	<path class="st2" d="M190.074,33.377c-0.36,0-0.695,0.336-0.775,0.416v2.087h-0.432v-2.822h0.432v0.407
		c0.088-0.096,0.375-0.495,0.839-0.495c0.128,0,0.2,0.016,0.248,0.031v0.408C190.338,33.409,190.234,33.377,190.074,33.377z"/>
	<path class="st2" d="M191.098,34.512c0.041,0.72,0.553,1.071,1.088,1.071c0.584,0,0.959-0.271,1.072-0.328v0.4
		c-0.08,0.048-0.465,0.312-1.12,0.312c-0.76,0-1.472-0.56-1.472-1.495c0-0.92,0.712-1.503,1.479-1.503
		c0.647,0,1.191,0.52,1.191,1.335v0.208H191.098z M192.105,33.353c-0.647,0-0.903,0.495-0.983,0.823h1.8
		C192.922,33.737,192.602,33.353,192.105,33.353z"/>
	<path class="st2" d="M194.803,35.967c-0.432,0-0.712-0.152-0.824-0.208v-0.432c0.104,0.048,0.472,0.264,0.824,0.264
		c0.312,0,0.592-0.136,0.592-0.415c0-0.272-0.416-0.424-0.656-0.552c-0.279-0.152-0.783-0.393-0.783-0.856
		c0-0.495,0.407-0.799,0.975-0.799c0.416,0,0.704,0.16,0.784,0.208v0.407c-0.208-0.128-0.521-0.248-0.76-0.248
		c-0.36,0-0.575,0.176-0.575,0.393c0,0.264,0.352,0.407,0.592,0.52c0.264,0.128,0.847,0.376,0.847,0.903
		C195.817,35.696,195.354,35.967,194.803,35.967z"/>
	<path class="st2" d="M197.227,35.967c-0.432,0-0.712-0.152-0.824-0.208v-0.432c0.104,0.048,0.472,0.264,0.824,0.264
		c0.312,0,0.592-0.136,0.592-0.415c0-0.272-0.416-0.424-0.656-0.552c-0.279-0.152-0.783-0.393-0.783-0.856
		c0-0.495,0.407-0.799,0.975-0.799c0.416,0,0.704,0.16,0.784,0.208v0.407c-0.208-0.128-0.521-0.248-0.76-0.248
		c-0.36,0-0.575,0.176-0.575,0.393c0,0.264,0.352,0.407,0.592,0.52c0.264,0.128,0.847,0.376,0.847,0.903
		C198.241,35.696,197.777,35.967,197.227,35.967z"/>
	<path class="st2" d="M199.042,37.134v-0.128c0.208-0.079,0.464-0.279,0.464-0.68c0-0.375-0.296-0.615-0.447-0.768l0.399-0.399
		l0.096,0.088c0.097,0.096,0.384,0.368,0.384,0.815C199.938,36.599,199.554,37.046,199.042,37.134z"/>
	<path class="st2" d="M201.258,32.505l-0.367-0.36l0.359-0.359l0.367,0.359L201.258,32.505z M201.042,37.894v-4.837h0.433v4.413
		L201.042,37.894z"/>
	<path class="st2" d="M204.018,35.879l-0.041-0.24c-0.088,0.072-0.327,0.32-0.839,0.32c-0.479,0-0.903-0.344-0.903-0.903
		c0-0.616,0.471-0.96,1.191-1.04l0.527-0.056v-0.536h-1.543l0.08-0.367h1.887v2.822H204.018z M203.953,34.289l-0.464,0.056
		c-0.528,0.064-0.823,0.296-0.823,0.688c0,0.328,0.248,0.576,0.592,0.576c0.359,0,0.6-0.256,0.695-0.353V34.289z"/>
	<path class="st2" d="M206.313,35.879h-0.439l-1.016-2.822h0.464l0.768,2.255l0.775-2.255h0.464L206.313,35.879z"/>
	<path class="st2" d="M209.393,35.879l-0.039-0.24c-0.088,0.072-0.328,0.32-0.84,0.32c-0.48,0-0.904-0.344-0.904-0.903
		c0-0.616,0.473-0.96,1.191-1.04l0.528-0.056v-0.536h-1.543l0.079-0.367h1.888v2.822H209.393z M209.329,34.289l-0.464,0.056
		c-0.527,0.064-0.823,0.296-0.823,0.688c0,0.328,0.247,0.576,0.591,0.576c0.36,0,0.6-0.256,0.696-0.353V34.289z"/>
	<path class="st2" d="M211.322,35.967c-0.432,0-0.712-0.152-0.824-0.208v-0.432c0.104,0.048,0.472,0.264,0.824,0.264
		c0.312,0,0.592-0.136,0.592-0.415c0-0.272-0.416-0.424-0.656-0.552c-0.279-0.152-0.783-0.393-0.783-0.856
		c0-0.495,0.407-0.799,0.975-0.799c0.416,0,0.704,0.16,0.784,0.208v0.407c-0.208-0.128-0.521-0.248-0.76-0.248
		c-0.36,0-0.575,0.176-0.575,0.393c0,0.264,0.352,0.407,0.592,0.52c0.264,0.128,0.847,0.376,0.847,0.903
		C212.337,35.696,211.873,35.967,211.322,35.967z"/>
	<path class="st2" d="M214.417,35.967c-0.839,0-1.519-0.615-1.519-1.487c0-0.863,0.663-1.503,1.519-1.503
		c0.464,0,0.864,0.208,0.983,0.271v0.416c-0.104-0.056-0.479-0.279-0.975-0.279c-0.641,0-1.08,0.479-1.08,1.095
		c0,0.647,0.48,1.079,1.08,1.079c0.512,0,0.902-0.231,0.99-0.279v0.399C215.313,35.744,214.984,35.967,214.417,35.967z"/>
	<path class="st2" d="M217.346,33.377c-0.36,0-0.695,0.336-0.775,0.416v2.087h-0.432v-2.822h0.432v0.407
		c0.088-0.096,0.375-0.495,0.839-0.495c0.128,0,0.2,0.016,0.248,0.031v0.408C217.609,33.409,217.506,33.377,217.346,33.377z"/>
	<path class="st2" d="M218.394,32.505l-0.368-0.36l0.36-0.359l0.368,0.359L218.394,32.505z M218.178,35.879v-2.822h0.432v2.822
		H218.178z"/>
	<path class="st2" d="M220.841,35.967c-0.479,0-0.743-0.184-0.839-0.231v1.959h-0.432v-4.638h0.432v0.384l0.879-0.472
		c0.313,0.088,1.367,0.392,1.367,1.583C222.248,35.328,221.601,35.967,220.841,35.967z M220.889,33.393l-0.887,0.439v1.479
		c0.08,0.048,0.352,0.256,0.727,0.256c0.576,0,1.072-0.456,1.072-1.032C221.801,33.745,221.145,33.489,220.889,33.393z"/>
	<path class="st2" d="M223.913,35.967c-0.407,0-0.823-0.216-0.823-0.999v-1.583h-0.6l0.119-0.328h0.48v-1.111h0.432v1.111h1.039
		l-0.119,0.328h-0.92v1.599c0,0.439,0.176,0.584,0.487,0.584c0.248,0,0.487-0.145,0.575-0.185v0.393
		C224.513,35.815,224.273,35.967,223.913,35.967z"/>
</g>
<g>
	<rect x="330.875" y="17.335" class="st1" width="80" height="30.333"/>
	<path class="st2" d="M332.002,21.967c-0.432,0-0.711-0.152-0.823-0.208v-0.432c0.104,0.048,0.472,0.264,0.823,0.264
		c0.313,0,0.592-0.136,0.592-0.415c0-0.272-0.416-0.424-0.655-0.552c-0.28-0.152-0.784-0.393-0.784-0.856
		c0-0.495,0.408-0.799,0.977-0.799c0.415,0,0.703,0.16,0.783,0.208v0.407c-0.208-0.128-0.52-0.248-0.76-0.248
		c-0.359,0-0.576,0.176-0.576,0.393c0,0.264,0.353,0.407,0.592,0.52c0.264,0.128,0.848,0.376,0.848,0.903
		C333.018,21.696,332.555,21.967,332.002,21.967z"/>
	<path class="st2" d="M334.034,18.505l-0.368-0.36l0.36-0.359l0.368,0.359L334.034,18.505z M333.818,21.879v-2.822h0.432v2.822
		H333.818z"/>
	<path class="st2" d="M336.154,21.967c-0.408,0-0.824-0.216-0.824-0.999v-1.583h-0.6l0.12-0.328h0.479v-1.111h0.432v1.111h1.039
		l-0.119,0.328h-0.92v1.599c0,0.439,0.176,0.584,0.488,0.584c0.248,0,0.487-0.145,0.575-0.185v0.393
		C336.754,21.815,336.514,21.967,336.154,21.967z"/>
	<path class="st2" d="M337.642,18.505l-0.368-0.36l0.36-0.359l0.368,0.359L337.642,18.505z M337.426,21.879v-2.822h0.432v2.822
		H337.426z"/>
	<path class="st2" d="M340.145,21.967c-0.823,0-1.486-0.647-1.486-1.495s0.663-1.503,1.486-1.503c0.824,0,1.488,0.655,1.488,1.503
		S340.969,21.967,340.145,21.967z M340.145,19.369c-0.583,0-1.047,0.479-1.047,1.104s0.464,1.096,1.047,1.096
		c0.584,0,1.048-0.472,1.048-1.096S340.729,19.369,340.145,19.369z"/>
	<path class="st2" d="M343.041,21.967c-0.432,0-0.711-0.152-0.823-0.208v-0.432c0.104,0.048,0.472,0.264,0.823,0.264
		c0.313,0,0.592-0.136,0.592-0.415c0-0.272-0.416-0.424-0.655-0.552c-0.28-0.152-0.784-0.393-0.784-0.856
		c0-0.495,0.408-0.799,0.977-0.799c0.415,0,0.703,0.16,0.783,0.208v0.407c-0.208-0.128-0.52-0.248-0.76-0.248
		c-0.359,0-0.576,0.176-0.576,0.393c0,0.264,0.353,0.407,0.592,0.52c0.264,0.128,0.848,0.376,0.848,0.903
		C344.057,21.696,343.594,21.967,343.041,21.967z"/>
	<path class="st2" d="M348.969,21.879h-0.4l-0.664-1.903l-0.663,1.903h-0.399l-1.023-2.822h0.455l0.775,2.255l0.752-2.255h0.208
		l0.751,2.255l0.775-2.255h0.457L348.969,21.879z"/>
	<path class="st2" d="M350.745,20.512c0.04,0.72,0.552,1.071,1.087,1.071c0.584,0,0.96-0.271,1.072-0.328v0.4
		c-0.08,0.048-0.464,0.312-1.119,0.312c-0.76,0-1.472-0.56-1.472-1.495c0-0.92,0.712-1.503,1.479-1.503
		c0.647,0,1.191,0.52,1.191,1.335v0.208H350.745z M351.753,19.353c-0.647,0-0.903,0.495-0.983,0.823h1.799
		C352.568,19.737,352.248,19.353,351.753,19.353z"/>
	<path class="st2" d="M355.017,21.967c-0.487,0-0.775-0.24-0.863-0.304l-0.063,0.216h-0.328v-4.541h0.432v1.887
		c0.064-0.04,0.336-0.256,0.855-0.256c0.744,0,1.407,0.647,1.407,1.503C356.456,21.32,355.816,21.967,355.017,21.967z
		 M354.945,19.369c-0.4,0-0.68,0.224-0.752,0.28v1.623c0.08,0.063,0.359,0.296,0.752,0.296c0.607,0,1.063-0.48,1.063-1.096
		C356.008,19.848,355.561,19.369,354.945,19.369z"/>
	<path class="st2" d="M359.824,19.377c-0.359,0-0.695,0.336-0.775,0.416v2.087h-0.432v-2.822h0.432v0.407
		c0.088-0.096,0.376-0.495,0.84-0.495c0.128,0,0.2,0.016,0.248,0.031v0.408C360.089,19.409,359.984,19.377,359.824,19.377z"/>
	<path class="st2" d="M360.85,20.512c0.039,0.72,0.551,1.071,1.087,1.071c0.584,0,0.96-0.271,1.071-0.328v0.4
		c-0.08,0.048-0.463,0.312-1.119,0.312c-0.76,0-1.471-0.56-1.471-1.495c0-0.92,0.711-1.503,1.479-1.503
		c0.648,0,1.191,0.52,1.191,1.335v0.208H360.85z M361.857,19.353c-0.648,0-0.904,0.495-0.984,0.823h1.799
		C362.672,19.737,362.353,19.353,361.857,19.353z"/>
	<path class="st2" d="M364.553,21.967c-0.432,0-0.711-0.152-0.823-0.208v-0.432c0.104,0.048,0.472,0.264,0.823,0.264
		c0.313,0,0.592-0.136,0.592-0.415c0-0.272-0.416-0.424-0.655-0.552c-0.28-0.152-0.784-0.393-0.784-0.856
		c0-0.495,0.408-0.799,0.977-0.799c0.415,0,0.703,0.16,0.783,0.208v0.407c-0.208-0.128-0.52-0.248-0.76-0.248
		c-0.359,0-0.576,0.176-0.576,0.393c0,0.264,0.353,0.407,0.592,0.52c0.264,0.128,0.848,0.376,0.848,0.903
		C365.568,21.696,365.105,21.967,364.553,21.967z"/>
	<path class="st2" d="M367.561,21.967c-0.479,0-0.744-0.184-0.84-0.231v1.959h-0.432v-4.638h0.432v0.384l0.88-0.472
		c0.312,0.088,1.367,0.392,1.367,1.583C368.968,21.328,368.32,21.967,367.561,21.967z M367.608,19.393l-0.888,0.439v1.479
		c0.08,0.048,0.352,0.256,0.729,0.256c0.575,0,1.07-0.456,1.07-1.032C368.52,19.745,367.864,19.489,367.608,19.393z"/>
	<path class="st2" d="M371.017,21.967c-0.823,0-1.487-0.647-1.487-1.495s0.664-1.503,1.487-1.503s1.487,0.655,1.487,1.503
		S371.84,21.967,371.017,21.967z M371.017,19.369c-0.584,0-1.048,0.479-1.048,1.104s0.464,1.096,1.048,1.096
		c0.583,0,1.048-0.472,1.048-1.096S371.6,19.369,371.017,19.369z"/>
	<path class="st2" d="M375.128,21.879v-1.903c0-0.367-0.208-0.607-0.56-0.607c-0.512,0-0.848,0.472-0.912,0.552v1.959h-0.432v-2.822
		h0.432v0.399c0.064-0.071,0.376-0.487,0.977-0.487c0.512,0,0.927,0.344,0.927,0.976v1.935H375.128z"/>
	<path class="st2" d="M377.129,21.967c-0.432,0-0.712-0.152-0.824-0.208v-0.432c0.104,0.048,0.472,0.264,0.824,0.264
		c0.312,0,0.592-0.136,0.592-0.415c0-0.272-0.416-0.424-0.656-0.552c-0.279-0.152-0.783-0.393-0.783-0.856
		c0-0.495,0.407-0.799,0.975-0.799c0.416,0,0.704,0.16,0.784,0.208v0.407c-0.208-0.128-0.521-0.248-0.76-0.248
		c-0.36,0-0.575,0.176-0.575,0.393c0,0.264,0.352,0.407,0.592,0.52c0.264,0.128,0.847,0.376,0.847,0.903
		C378.144,21.696,377.68,21.967,377.129,21.967z"/>
	<path class="st2" d="M379.16,18.505l-0.367-0.36l0.359-0.359l0.367,0.359L379.16,18.505z M378.944,21.879v-2.822h0.433v2.822
		H378.944z"/>
	<path class="st2" d="M381.392,21.879h-0.439l-1.016-2.822h0.464l0.768,2.255l0.775-2.255h0.464L381.392,21.879z"/>
	<path class="st2" d="M383.16,20.512c0.039,0.72,0.551,1.071,1.087,1.071c0.584,0,0.96-0.271,1.071-0.328v0.4
		c-0.08,0.048-0.463,0.312-1.119,0.312c-0.76,0-1.471-0.56-1.471-1.495c0-0.92,0.711-1.503,1.479-1.503
		c0.648,0,1.191,0.52,1.191,1.335v0.208H383.16z M384.168,19.353c-0.648,0-0.904,0.495-0.984,0.823h1.799
		C384.982,19.737,384.663,19.353,384.168,19.353z"/>
	<path class="st2" d="M386.256,23.134v-0.128c0.208-0.079,0.464-0.279,0.464-0.68c0-0.375-0.296-0.615-0.448-0.768l0.4-0.399
		l0.096,0.088c0.096,0.096,0.384,0.368,0.384,0.815C387.151,22.599,386.768,23.046,386.256,23.134z"/>
	<path class="st2" d="M391.199,21.879l-0.04-0.24c-0.088,0.072-0.327,0.32-0.839,0.32c-0.48,0-0.904-0.344-0.904-0.903
		c0-0.616,0.472-0.96,1.191-1.04l0.527-0.056v-0.536h-1.543l0.08-0.367h1.887v2.822H391.199z M391.135,20.289l-0.463,0.056
		c-0.528,0.064-0.824,0.296-0.824,0.688c0,0.328,0.248,0.576,0.592,0.576c0.359,0,0.6-0.256,0.695-0.353V20.289z"/>
	<path class="st2" d="M393.711,21.967c-0.479,0-0.744-0.184-0.84-0.231v1.959h-0.432v-4.638h0.432v0.384l0.88-0.472
		c0.312,0.088,1.367,0.392,1.367,1.583C395.118,21.328,394.471,21.967,393.711,21.967z M393.759,19.393l-0.888,0.439v1.479
		c0.08,0.048,0.352,0.256,0.729,0.256c0.575,0,1.07-0.456,1.07-1.032C394.67,19.745,394.015,19.489,393.759,19.393z"/>
	<path class="st2" d="M397.111,21.967c-0.48,0-0.744-0.184-0.84-0.231v1.959h-0.432v-4.638h0.432v0.384l0.879-0.472
		c0.313,0.088,1.367,0.392,1.367,1.583C398.518,21.328,397.871,21.967,397.111,21.967z M397.159,19.393l-0.888,0.439v1.479
		c0.08,0.048,0.352,0.256,0.728,0.256c0.575,0,1.071-0.456,1.071-1.032C398.07,19.745,397.415,19.489,397.159,19.393z"/>
	<path class="st2" d="M399.928,21.967c-0.432,0-0.712-0.152-0.824-0.208v-0.432c0.104,0.048,0.472,0.264,0.824,0.264
		c0.312,0,0.592-0.136,0.592-0.415c0-0.272-0.416-0.424-0.656-0.552c-0.279-0.152-0.783-0.393-0.783-0.856
		c0-0.495,0.407-0.799,0.975-0.799c0.416,0,0.704,0.16,0.784,0.208v0.407c-0.208-0.128-0.521-0.248-0.76-0.248
		c-0.36,0-0.575,0.176-0.575,0.393c0,0.264,0.352,0.407,0.592,0.52c0.264,0.128,0.847,0.376,0.847,0.903
		C400.942,21.696,400.479,21.967,399.928,21.967z"/>
	<path class="st2" d="M332.674,29.967c-0.84,0-1.52-0.615-1.52-1.487c0-0.863,0.664-1.503,1.52-1.503
		c0.464,0,0.863,0.208,0.983,0.271v0.416c-0.104-0.056-0.479-0.279-0.976-0.279c-0.639,0-1.079,0.479-1.079,1.095
		c0,0.647,0.479,1.079,1.079,1.079c0.512,0,0.904-0.231,0.992-0.279v0.399C333.569,29.744,333.242,29.967,332.674,29.967z"/>
	<path class="st2" d="M335.723,29.967c-0.824,0-1.488-0.647-1.488-1.495s0.664-1.503,1.488-1.503c0.823,0,1.486,0.655,1.486,1.503
		S336.546,29.967,335.723,29.967z M335.723,27.369c-0.584,0-1.048,0.479-1.048,1.104s0.464,1.096,1.048,1.096
		c0.583,0,1.047-0.472,1.047-1.096S336.306,27.369,335.723,27.369z"/>
	<path class="st2" d="M339.834,29.879v-1.903c0-0.367-0.208-0.607-0.56-0.607c-0.512,0-0.848,0.472-0.911,0.552v1.959h-0.432v-2.822
		h0.432v0.399c0.063-0.071,0.375-0.487,0.975-0.487c0.512,0,0.928,0.344,0.928,0.976v1.935H339.834z"/>
	<path class="st2" d="M342.883,26.505l-0.368-0.36l0.36-0.359l0.367,0.359L342.883,26.505z M342.666,31.894v-4.837h0.433v4.413
		L342.666,31.894z"/>
	<path class="st2" d="M346.162,31.695v-1.983c-0.064,0.04-0.336,0.256-0.855,0.256c-0.744,0-1.408-0.647-1.408-1.503
		c0-0.848,0.641-1.495,1.439-1.495c0.488,0,0.775,0.239,0.863,0.304l0.064-0.216h0.328v4.638H346.162z M345.41,29.568
		c0.4,0,0.68-0.225,0.752-0.28v-1.623c-0.08-0.063-0.36-0.296-0.752-0.296c-0.607,0-1.063,0.479-1.063,1.096
		C344.347,29.087,344.795,29.568,345.41,29.568z"/>
	<path class="st2" d="M349.338,29.879V29.52c-0.08,0.104-0.328,0.447-0.903,0.447c-0.56,0-0.96-0.392-0.96-1.071v-1.839h0.432v1.799
		c0,0.456,0.264,0.703,0.632,0.703c0.504,0,0.743-0.472,0.8-0.567v-1.935h0.432v2.822H349.338z"/>
	<path class="st2" d="M350.922,28.512c0.041,0.72,0.553,1.071,1.088,1.071c0.584,0,0.959-0.271,1.072-0.328v0.4
		c-0.08,0.048-0.465,0.312-1.12,0.312c-0.76,0-1.472-0.56-1.472-1.495c0-0.92,0.712-1.503,1.479-1.503
		c0.647,0,1.191,0.52,1.191,1.335v0.208H350.922z M351.93,27.353c-0.647,0-0.903,0.495-0.983,0.823h1.8
		C352.746,27.737,352.426,27.353,351.93,27.353z"/>
	<path class="st2" d="M355.146,27.377c-0.36,0-0.695,0.336-0.775,0.416v2.087h-0.432v-2.822h0.432v0.407
		c0.088-0.096,0.375-0.495,0.839-0.495c0.128,0,0.2,0.016,0.248,0.031v0.408C355.41,27.409,355.307,27.377,355.146,27.377z"/>
	<path class="st2" d="M356.946,29.879l-0.64,1.815h-0.432l0.64-1.815l-1.016-2.822h0.464l0.768,2.255l0.775-2.255h0.464
		L356.946,29.879z"/>
	<path class="st2" d="M363.553,29.879v-1.927c0-0.352-0.184-0.584-0.52-0.584c-0.488,0-0.816,0.456-0.88,0.528v1.982h-0.432v-1.927
		c0-0.352-0.185-0.584-0.521-0.584c-0.487,0-0.814,0.456-0.879,0.528v1.982h-0.432v-2.822h0.432v0.384
		c0.064-0.072,0.359-0.472,0.936-0.472c0.375,0,0.688,0.184,0.823,0.535c0.208-0.216,0.464-0.535,1.016-0.535
		c0.495,0,0.888,0.327,0.888,0.936v1.975H363.553z"/>
	<path class="st2" d="M366.193,29.967c-0.823,0-1.486-0.647-1.486-1.495s0.663-1.503,1.486-1.503c0.824,0,1.488,0.655,1.488,1.503
		S367.018,29.967,366.193,29.967z M366.193,27.369c-0.583,0-1.047,0.479-1.047,1.104s0.464,1.096,1.047,1.096
		c0.584,0,1.048-0.472,1.048-1.096S366.777,27.369,366.193,27.369z"/>
	<path class="st2" d="M369.658,29.967c-0.488,0-0.775-0.24-0.863-0.304l-0.064,0.216h-0.328v-4.541h0.432v1.887
		c0.064-0.04,0.336-0.256,0.855-0.256c0.744,0,1.408,0.647,1.408,1.503C371.098,29.32,370.457,29.967,369.658,29.967z
		 M369.586,27.369c-0.4,0-0.68,0.224-0.752,0.28v1.623c0.08,0.063,0.36,0.296,0.752,0.296c0.607,0,1.063-0.48,1.063-1.096
		C370.649,27.848,370.201,27.369,369.586,27.369z"/>
	<path class="st2" d="M372.114,26.505l-0.368-0.36l0.36-0.359l0.368,0.359L372.114,26.505z M371.898,29.879v-2.822h0.432v2.822
		H371.898z"/>
	<path class="st2" d="M374.426,29.839c-0.08,0.04-0.24,0.128-0.488,0.128c-0.367,0-0.646-0.248-0.646-0.752v-3.877h0.432v3.854
		c0,0.271,0.159,0.384,0.319,0.384c0.168,0,0.319-0.072,0.384-0.104V29.839z"/>
	<path class="st2" d="M375.338,28.512c0.04,0.72,0.552,1.071,1.088,1.071c0.584,0,0.959-0.271,1.071-0.328v0.4
		c-0.08,0.048-0.464,0.312-1.12,0.312c-0.759,0-1.471-0.56-1.471-1.495c0-0.92,0.712-1.503,1.479-1.503
		c0.647,0,1.19,0.52,1.19,1.335v0.208H375.338z M376.346,27.353c-0.648,0-0.904,0.495-0.983,0.823h1.799
		C377.161,27.737,376.842,27.353,376.346,27.353z"/>
	<path class="st2" d="M378.434,31.134v-0.128c0.209-0.079,0.465-0.279,0.465-0.68c0-0.375-0.297-0.615-0.448-0.768l0.399-0.399
		l0.096,0.088c0.097,0.096,0.385,0.368,0.385,0.815C379.33,30.599,378.945,31.046,378.434,31.134z"/>
	<path class="st2" d="M380.65,26.505l-0.368-0.36l0.36-0.359l0.367,0.359L380.65,26.505z M380.434,31.894v-4.837h0.433v4.413
		L380.434,31.894z"/>
	<path class="st2" d="M383.41,29.879l-0.041-0.24c-0.088,0.072-0.327,0.32-0.839,0.32c-0.479,0-0.903-0.344-0.903-0.903
		c0-0.616,0.471-0.96,1.191-1.04l0.527-0.056v-0.536h-1.543l0.08-0.367h1.887v2.822H383.41z M383.346,28.289l-0.464,0.056
		c-0.528,0.064-0.823,0.296-0.823,0.688c0,0.328,0.248,0.576,0.592,0.576c0.359,0,0.6-0.256,0.695-0.353V28.289z"/>
	<path class="st2" d="M385.706,29.879h-0.439l-1.016-2.822h0.464l0.768,2.255l0.775-2.255h0.464L385.706,29.879z"/>
	<path class="st2" d="M388.785,29.879l-0.039-0.24c-0.088,0.072-0.328,0.32-0.84,0.32c-0.48,0-0.904-0.344-0.904-0.903
		c0-0.616,0.473-0.96,1.191-1.04l0.528-0.056v-0.536h-1.543l0.079-0.367h1.888v2.822H388.785z M388.722,28.289l-0.464,0.056
		c-0.527,0.064-0.823,0.296-0.823,0.688c0,0.328,0.247,0.576,0.591,0.576c0.36,0,0.6-0.256,0.696-0.353V28.289z"/>
	<path class="st2" d="M390.106,31.134v-0.128c0.208-0.079,0.464-0.279,0.464-0.68c0-0.375-0.296-0.615-0.447-0.768l0.399-0.399
		l0.096,0.088c0.097,0.096,0.384,0.368,0.384,0.815C391.002,30.599,390.618,31.046,390.106,31.134z"/>
	<path class="st2" d="M393.386,29.967c-0.839,0-1.519-0.615-1.519-1.487c0-0.863,0.663-1.503,1.519-1.503
		c0.464,0,0.864,0.208,0.983,0.271v0.416c-0.104-0.056-0.479-0.279-0.975-0.279c-0.641,0-1.08,0.479-1.08,1.095
		c0,0.647,0.48,1.079,1.08,1.079c0.512,0,0.902-0.231,0.99-0.279v0.399C394.281,29.744,393.953,29.967,393.386,29.967z"/>
	<path class="st2" d="M398.929,27.001h-1.016l-0.264,1.216h1.007l-0.071,0.376h-1.016l-0.28,1.287h-0.375l0.279-1.287h-0.943
		l-0.279,1.287h-0.376l0.28-1.287h-1.008l0.08-0.376h1.007l0.265-1.216h-1.008l0.08-0.375h1.007l0.28-1.287h0.375l-0.279,1.287
		h0.943l0.28-1.287h0.376l-0.28,1.287H399L398.929,27.001z M396.594,27.001l-0.264,1.216h0.943l0.264-1.216H396.594z"/>
	<path class="st2" d="M334.065,37.879h-0.399l-0.664-1.903l-0.664,1.903h-0.399l-1.023-2.822h0.456l0.775,2.255l0.752-2.255h0.207
		l0.752,2.255l0.775-2.255h0.456L334.065,37.879z"/>
	<path class="st2" d="M336.898,37.967c-0.824,0-1.488-0.647-1.488-1.495s0.664-1.503,1.488-1.503c0.823,0,1.486,0.655,1.486,1.503
		S337.722,37.967,336.898,37.967z M336.898,35.369c-0.584,0-1.048,0.479-1.048,1.104s0.464,1.096,1.048,1.096
		c0.583,0,1.047-0.472,1.047-1.096S337.481,35.369,336.898,35.369z"/>
	<path class="st2" d="M340.314,35.377c-0.36,0-0.695,0.336-0.775,0.416v2.087h-0.432v-2.822h0.432v0.407
		c0.088-0.096,0.375-0.495,0.839-0.495c0.128,0,0.2,0.016,0.248,0.031v0.408C340.578,35.409,340.475,35.377,340.314,35.377z"/>
	<path class="st2" d="M343.153,37.879v-0.384l-0.88,0.472c-0.311-0.088-1.367-0.392-1.367-1.583c0-0.775,0.648-1.415,1.408-1.415
		c0.479,0,0.743,0.184,0.839,0.231v-1.862h0.433v4.541H343.153z M343.153,35.625c-0.071-0.048-0.352-0.256-0.728-0.256
		c-0.576,0-1.071,0.456-1.071,1.031c0,0.792,0.655,1.048,0.911,1.144l0.888-0.439V35.625z"/>
	<path class="st2" d="M345.738,37.967c-0.48,0-0.744-0.184-0.84-0.231v1.959h-0.432v-4.638h0.432v0.384l0.879-0.472
		c0.313,0.088,1.367,0.392,1.367,1.583C347.145,37.328,346.498,37.967,345.738,37.967z M345.786,35.393l-0.888,0.439v1.479
		c0.08,0.048,0.352,0.256,0.728,0.256c0.575,0,1.071-0.456,1.071-1.032C346.697,35.745,346.042,35.489,345.786,35.393z"/>
	<path class="st2" d="M349.074,35.377c-0.36,0-0.695,0.336-0.775,0.416v2.087h-0.432v-2.822h0.432v0.407
		c0.088-0.096,0.375-0.495,0.839-0.495c0.128,0,0.2,0.016,0.248,0.031v0.408C349.338,35.409,349.234,35.377,349.074,35.377z"/>
	<path class="st2" d="M350.098,36.512c0.041,0.72,0.553,1.071,1.088,1.071c0.584,0,0.959-0.271,1.072-0.328v0.4
		c-0.08,0.048-0.465,0.312-1.12,0.312c-0.76,0-1.472-0.56-1.472-1.495c0-0.92,0.712-1.503,1.479-1.503
		c0.647,0,1.191,0.52,1.191,1.335v0.208H350.098z M351.105,35.353c-0.647,0-0.903,0.495-0.983,0.823h1.8
		C351.922,35.737,351.602,35.353,351.105,35.353z"/>
	<path class="st2" d="M353.803,37.967c-0.432,0-0.712-0.152-0.824-0.208v-0.432c0.104,0.048,0.472,0.264,0.824,0.264
		c0.312,0,0.592-0.136,0.592-0.415c0-0.272-0.416-0.424-0.656-0.552c-0.279-0.152-0.783-0.393-0.783-0.856
		c0-0.495,0.407-0.799,0.975-0.799c0.416,0,0.704,0.16,0.784,0.208v0.407c-0.208-0.128-0.521-0.248-0.76-0.248
		c-0.36,0-0.575,0.176-0.575,0.393c0,0.264,0.352,0.407,0.592,0.52c0.264,0.128,0.847,0.376,0.847,0.903
		C354.817,37.696,354.354,37.967,353.803,37.967z"/>
	<path class="st2" d="M356.227,37.967c-0.432,0-0.712-0.152-0.824-0.208v-0.432c0.104,0.048,0.472,0.264,0.824,0.264
		c0.312,0,0.592-0.136,0.592-0.415c0-0.272-0.416-0.424-0.656-0.552c-0.279-0.152-0.783-0.393-0.783-0.856
		c0-0.495,0.407-0.799,0.975-0.799c0.416,0,0.704,0.16,0.784,0.208v0.407c-0.208-0.128-0.521-0.248-0.76-0.248
		c-0.36,0-0.575,0.176-0.575,0.393c0,0.264,0.352,0.407,0.592,0.52c0.264,0.128,0.847,0.376,0.847,0.903
		C357.241,37.696,356.777,37.967,356.227,37.967z"/>
	<path class="st2" d="M358.042,39.134v-0.128c0.208-0.079,0.464-0.279,0.464-0.68c0-0.375-0.296-0.615-0.447-0.768l0.399-0.399
		l0.096,0.088c0.097,0.096,0.384,0.368,0.384,0.815C358.938,38.599,358.554,39.046,358.042,39.134z"/>
	<path class="st2" d="M360.258,34.505l-0.367-0.36l0.359-0.359l0.367,0.359L360.258,34.505z M360.042,39.894v-4.837h0.433v4.413
		L360.042,39.894z"/>
	<path class="st2" d="M363.018,37.879l-0.041-0.24c-0.088,0.072-0.327,0.32-0.839,0.32c-0.479,0-0.903-0.344-0.903-0.903
		c0-0.616,0.471-0.96,1.191-1.04l0.527-0.056v-0.536h-1.543l0.08-0.367h1.887v2.822H363.018z M362.953,36.289l-0.464,0.056
		c-0.528,0.064-0.823,0.296-0.823,0.688c0,0.328,0.248,0.576,0.592,0.576c0.359,0,0.6-0.256,0.695-0.353V36.289z"/>
	<path class="st2" d="M365.313,37.879h-0.439l-1.016-2.822h0.464l0.768,2.255l0.775-2.255h0.464L365.313,37.879z"/>
	<path class="st2" d="M368.393,37.879l-0.039-0.24c-0.088,0.072-0.328,0.32-0.84,0.32c-0.48,0-0.904-0.344-0.904-0.903
		c0-0.616,0.473-0.96,1.191-1.04l0.528-0.056v-0.536h-1.543l0.079-0.367h1.888v2.822H368.393z M368.329,36.289l-0.464,0.056
		c-0.527,0.064-0.823,0.296-0.823,0.688c0,0.328,0.247,0.576,0.591,0.576c0.36,0,0.6-0.256,0.696-0.353V36.289z"/>
	<path class="st2" d="M370.322,37.967c-0.432,0-0.712-0.152-0.824-0.208v-0.432c0.104,0.048,0.472,0.264,0.824,0.264
		c0.312,0,0.592-0.136,0.592-0.415c0-0.272-0.416-0.424-0.656-0.552c-0.279-0.152-0.783-0.393-0.783-0.856
		c0-0.495,0.407-0.799,0.975-0.799c0.416,0,0.704,0.16,0.784,0.208v0.407c-0.208-0.128-0.521-0.248-0.76-0.248
		c-0.36,0-0.575,0.176-0.575,0.393c0,0.264,0.352,0.407,0.592,0.52c0.264,0.128,0.847,0.376,0.847,0.903
		C371.337,37.696,370.873,37.967,370.322,37.967z"/>
	<path class="st2" d="M373.417,37.967c-0.839,0-1.519-0.615-1.519-1.487c0-0.863,0.663-1.503,1.519-1.503
		c0.464,0,0.864,0.208,0.983,0.271v0.416c-0.104-0.056-0.479-0.279-0.975-0.279c-0.641,0-1.08,0.479-1.08,1.095
		c0,0.647,0.48,1.079,1.08,1.079c0.512,0,0.902-0.231,0.99-0.279v0.399C374.313,37.744,373.984,37.967,373.417,37.967z"/>
	<path class="st2" d="M376.346,35.377c-0.36,0-0.695,0.336-0.775,0.416v2.087h-0.432v-2.822h0.432v0.407
		c0.088-0.096,0.375-0.495,0.839-0.495c0.128,0,0.2,0.016,0.248,0.031v0.408C376.609,35.409,376.506,35.377,376.346,35.377z"/>
	<path class="st2" d="M377.394,34.505l-0.368-0.36l0.36-0.359l0.368,0.359L377.394,34.505z M377.178,37.879v-2.822h0.432v2.822
		H377.178z"/>
	<path class="st2" d="M379.841,37.967c-0.479,0-0.743-0.184-0.839-0.231v1.959h-0.432v-4.638h0.432v0.384l0.879-0.472
		c0.313,0.088,1.367,0.392,1.367,1.583C381.248,37.328,380.601,37.967,379.841,37.967z M379.889,35.393l-0.887,0.439v1.479
		c0.08,0.048,0.352,0.256,0.727,0.256c0.576,0,1.072-0.456,1.072-1.032C380.801,35.745,380.145,35.489,379.889,35.393z"/>
	<path class="st2" d="M382.913,37.967c-0.407,0-0.823-0.216-0.823-0.999v-1.583h-0.6l0.119-0.328h0.48v-1.111h0.432v1.111h1.039
		l-0.119,0.328h-0.92v1.599c0,0.439,0.176,0.584,0.487,0.584c0.248,0,0.487-0.145,0.575-0.185v0.393
		C383.513,37.815,383.273,37.967,382.913,37.967z"/>
</g>
<circle class="st3" cx="13.875" cy="26.669" r="13.5"/>
<path class="st4" d="M318.685,32.669h-17.171c-0.289,0-0.523-0.225-0.523-0.503v-0.069c0-0.278,0.234-0.503,0.523-0.503h17.171
	c0.289,0,0.523,0.225,0.523,0.503v0.069C319.208,32.444,318.974,32.669,318.685,32.669z M316.596,30.542h-12.897V23.04h12.897
	V30.542z M317.142,31.594h-13.846c-0.287,0-0.523,0.065-0.523-0.211v-8.73c0-0.277,0.235-0.503,0.523-0.503h13.846
	c0.287,0,0.523,0.226,0.523,0.503v8.674C317.664,31.604,317.429,31.594,317.142,31.594z"/>
<path class="st3" d="M154.108,25.807l-4.727-2.613c-0.218-0.121-0.491,0.03-0.491,0.271v5.227c0,0.241,0.273,0.392,0.491,0.272
	l4.727-2.614C154.326,26.23,154.326,25.928,154.108,25.807z M157.198,30.659h-12.81c-0.836,0-1.513-0.649-1.513-1.449v-6.263
	c0-0.801,0.677-1.449,1.513-1.449h12.81c0.836,0,1.513,0.649,1.513,1.449v6.263C158.711,30.011,158.034,30.659,157.198,30.659z"/>
<path class="st3" d="M4.875,27.222l7.103,3.967v-1.127l-5.085-2.839l5.085-2.839v-1.127L4.875,27.222z M23.53,27.222l-7.103-3.967
	v1.127l5.085,2.839l-5.085,2.839v1.127L23.53,27.222z"/>
<circle class="st3" cx="150.875" cy="25.669" r="13.5"/>
<circle class="st3" cx="309.875" cy="26.669" r="13.5"/>
</svg>