<!-- Generator: Adobe Illustrator 21.1.0, SVG Export Plug-In  -->
<svg version="1.1"
	 xmlns="http://www.w3.org/2000/svg" xmlns:xlink="http://www.w3.org/1999/xlink" xmlns:a="http://ns.adobe.com/AdobeSVGViewerExtensions/3.0/"
	 x="0px" y="0px" width="299.071px" height="71.151px" viewBox="0 0 299.071 71.151"
	 style="overflow:scroll;enable-background:new 0 0 299.071 71.151;" xml:space="preserve">
<style type="text/css">
	.st0{fill:#29196E;}
	.st1{fill:none;stroke:#4F517E;stroke-width:0.5;}
	.st2{fill:none;stroke:#BE0D2A;stroke-width:0.374;stroke-miterlimit:10;}
	.st3{fill:#1B1863;}
	.st4{font-family:'PrioriSanRegular';}
	.st5{font-size:7.1357px;}
</style>
<defs>
</defs>
<g>
	<path class="st0" d="M2.313,69.616h-0.29l-0.481-1.38l-0.48,1.38H0.771l-0.742-2.047h0.331l0.563,1.635l0.545-1.635h0.151
		l0.545,1.635l0.563-1.635h0.33L2.313,69.616z"/>
	<path class="st0" d="M3.599,68.625c0.028,0.521,0.399,0.776,0.788,0.776c0.423,0,0.696-0.197,0.776-0.237v0.29
		c-0.058,0.034-0.336,0.226-0.811,0.226c-0.552,0-1.067-0.405-1.067-1.084c0-0.667,0.516-1.09,1.072-1.09
		c0.47,0,0.864,0.377,0.864,0.968v0.151H3.599z M4.329,67.784c-0.471,0-0.656,0.359-0.714,0.597H4.92
		C4.92,68.063,4.688,67.784,4.329,67.784z"/>
	<path class="st0" d="M6.692,69.68c-0.354,0-0.563-0.174-0.626-0.22l-0.046,0.156H5.782v-3.294h0.313v1.369
		c0.047-0.029,0.244-0.186,0.621-0.186c0.539,0,1.021,0.47,1.021,1.09C7.736,69.21,7.272,69.68,6.692,69.68z M6.641,67.796
		c-0.29,0-0.493,0.162-0.546,0.202v1.178c0.059,0.046,0.262,0.214,0.546,0.214c0.44,0,0.771-0.348,0.771-0.794
		C7.411,68.144,7.087,67.796,6.641,67.796z"/>
</g>
<line class="st1" x1="162.009" y1="22.162" x2="205.855" y2="22.162"/>
<line class="st1" x1="158.765" y1="25.449" x2="202.61" y2="25.449"/>
<path class="st2" d="M160.63,24.789l1.032-1.032 M161.232,24.789l1.032-1.032 M161.835,24.789l1.032-1.032 M162.437,24.789
	l1.032-1.032 M163.039,24.789l1.032-1.032 M163.642,24.789l1.032-1.032 M164.244,24.789l1.032-1.032 M164.846,24.789l1.032-1.032
	 M165.449,24.789l1.032-1.032 M166.051,24.789l1.032-1.032 M166.654,24.789l1.032-1.032 M167.256,24.789l1.032-1.032
	 M167.858,24.789l1.032-1.032 M168.461,24.789l1.032-1.032 M169.063,24.789l1.032-1.032 M169.665,24.789l1.032-1.032
	 M170.268,24.789l1.032-1.032 M170.87,24.789l1.032-1.032 M171.473,24.789l1.032-1.032 M172.075,24.789l1.032-1.032 M172.677,24.789
	l1.032-1.032 M173.28,24.789l1.032-1.032 M173.883,24.789l1.032-1.032 M174.485,24.789l1.032-1.032 M175.087,24.789l1.032-1.032
	 M175.69,24.789l1.032-1.032 M176.292,24.789l1.032-1.032 M176.894,24.789l1.032-1.032 M177.497,24.789l1.032-1.032 M178.099,24.789
	l1.032-1.032 M178.702,24.789l1.032-1.032 M179.304,24.789l1.032-1.032 M179.906,24.789l1.032-1.032 M180.509,24.789l1.032-1.032
	 M181.111,24.789l1.032-1.032 M181.713,24.789l1.032-1.032 M182.316,24.789l1.032-1.032 M182.918,24.789l1.032-1.032 M183.52,24.789
	l1.032-1.032 M184.123,24.789l1.032-1.032 M184.725,24.789l1.032-1.032 M185.328,24.789l1.032-1.032 M185.93,24.789l1.032-1.032
	 M186.532,24.789l1.032-1.032 M187.135,24.789l1.032-1.032 M187.737,24.789l1.032-1.032 M188.34,24.789l1.032-1.032 M188.942,24.789
	l1.032-1.032 M189.545,24.789l1.032-1.032 M190.147,24.789l1.032-1.032 M190.749,24.789l1.032-1.032 M191.352,24.789l1.032-1.032
	 M191.954,24.789l1.032-1.032 M192.557,24.789l1.032-1.032 M193.159,24.789l1.032-1.032 M193.761,24.789l1.032-1.032
	 M194.364,24.789l1.032-1.032 M194.966,24.789l1.032-1.032 M195.568,24.789l1.032-1.032"/>
<path class="st2" d="M161.654,23.787l1.032-1.032 M162.255,23.787l1.032-1.032 M162.856,23.787l1.032-1.032 M163.456,23.787
	l1.032-1.032 M164.058,23.787l1.032-1.032 M164.658,23.787l1.032-1.032 M165.259,23.787l1.032-1.032 M165.86,23.787l1.032-1.032
	 M166.461,23.787l1.032-1.032 M167.062,23.787l1.032-1.032 M167.663,23.787l1.032-1.032 M168.264,23.787l1.032-1.032
	 M168.865,23.787l1.032-1.032 M169.466,23.787l1.032-1.032 M170.066,23.787l1.032-1.032 M170.668,23.787l1.032-1.032
	 M171.268,23.787l1.032-1.032 M171.869,23.787l1.032-1.032 M172.47,23.787l1.032-1.032 M173.071,23.787l1.032-1.032 M173.672,23.787
	l1.032-1.032 M174.273,23.787l1.032-1.032 M174.874,23.787l1.032-1.032 M175.475,23.787l1.032-1.032 M176.076,23.787l1.032-1.032
	 M176.676,23.787l1.032-1.032 M177.278,23.787l1.032-1.032 M177.878,23.787l1.032-1.032 M178.479,23.787l1.032-1.032 M179.08,23.787
	l1.032-1.032 M179.681,23.787l1.032-1.032 M180.282,23.787l1.032-1.032 M180.883,23.787l1.032-1.032 M181.484,23.787l1.032-1.032
	 M182.085,23.787l1.032-1.032 M182.686,23.787l1.032-1.032 M183.286,23.787l1.032-1.032 M183.888,23.787l1.032-1.032
	 M184.488,23.787l1.032-1.032 M185.089,23.787l1.032-1.032 M185.69,23.787l1.032-1.032 M186.291,23.787l1.032-1.032 M186.892,23.787
	l1.032-1.032 M187.493,23.787l1.032-1.032 M188.094,23.787l1.032-1.032 M188.695,23.787l1.032-1.032 M189.296,23.787l1.032-1.032
	 M189.896,23.787l1.032-1.032 M190.498,23.787l1.032-1.032 M191.098,23.787l1.032-1.032 M191.699,23.787l1.032-1.032 M192.3,23.787
	l1.032-1.032 M192.901,23.787l1.032-1.032 M193.502,23.787l1.032-1.032 M194.103,23.787l1.032-1.032 M194.704,23.787l1.032-1.032
	 M195.305,23.787l1.032-1.032 M195.905,23.787l1.032-1.032 M196.506,23.787l1.032-1.032"/>
<g>
	<path class="st3" d="M219.649,5.566c-0.229,0.078-0.543,0.149-0.957,0.149c-1.129,0-2.156-0.885-2.156-2.142
		s1.049-2.157,2.156-2.157c0.657,0,1.192,0.243,1.385,0.343l-0.006,0.436c-0.201-0.106-0.715-0.407-1.371-0.407
		c-0.9,0-1.729,0.75-1.729,1.778c0,1.015,0.785,1.778,1.729,1.778c0.691,0,1.178-0.285,1.392-0.407v0.422
		C220.014,5.402,219.87,5.487,219.649,5.566z"/>
	<path class="st3" d="M221.967,5.673c-0.735,0-1.328-0.578-1.328-1.335s0.593-1.343,1.328-1.343s1.328,0.586,1.328,1.343
		S222.702,5.673,221.967,5.673z M221.967,3.353c-0.521,0-0.936,0.429-0.936,0.985s0.414,0.979,0.936,0.979s0.936-0.422,0.936-0.979
		S222.488,3.353,221.967,3.353z"/>
	<path class="st3" d="M225.635,5.595V3.896c0-0.329-0.186-0.543-0.5-0.543c-0.457,0-0.757,0.421-0.813,0.492v1.75h-0.387V3.074
		h0.387v0.356c0.057-0.063,0.335-0.436,0.871-0.436c0.457,0,0.828,0.308,0.828,0.871v1.729H225.635z"/>
	<path class="st3" d="M227.418,5.673c-0.386,0-0.636-0.136-0.735-0.186V5.102c0.093,0.043,0.422,0.236,0.735,0.236
		c0.278,0,0.528-0.122,0.528-0.371c0-0.243-0.371-0.379-0.586-0.493c-0.25-0.136-0.699-0.35-0.699-0.765
		c0-0.442,0.364-0.714,0.871-0.714c0.371,0,0.629,0.144,0.699,0.186v0.364c-0.186-0.114-0.463-0.221-0.678-0.221
		c-0.321,0-0.514,0.156-0.514,0.35c0,0.235,0.313,0.364,0.527,0.464c0.236,0.114,0.758,0.336,0.758,0.808
		C228.325,5.431,227.911,5.673,227.418,5.673z"/>
	<path class="st3" d="M229.809,5.673c-0.364,0-0.735-0.192-0.735-0.893V3.367h-0.535l0.106-0.293h0.429V2.081h0.386v0.993h0.929
		l-0.107,0.293h-0.821v1.428c0,0.393,0.157,0.521,0.436,0.521c0.222,0,0.436-0.129,0.515-0.164v0.35
		C230.345,5.537,230.13,5.673,229.809,5.673z"/>
	<path class="st3" d="M231.95,3.359c-0.322,0-0.622,0.3-0.693,0.371v1.864h-0.386V3.074h0.386v0.364
		c0.078-0.086,0.336-0.443,0.75-0.443c0.114,0,0.178,0.015,0.221,0.028v0.364C232.185,3.388,232.093,3.359,231.95,3.359z"/>
	<path class="st3" d="M234.283,5.595V5.273c-0.071,0.093-0.293,0.399-0.808,0.399c-0.499,0-0.856-0.35-0.856-0.956V3.074h0.386
		v1.606c0,0.407,0.236,0.628,0.564,0.628c0.449,0,0.664-0.421,0.714-0.507V3.074h0.386v2.521H234.283z"/>
	<path class="st3" d="M236.666,5.673c-0.75,0-1.356-0.55-1.356-1.328c0-0.771,0.592-1.342,1.356-1.342
		c0.414,0,0.771,0.186,0.878,0.242v0.371c-0.093-0.05-0.428-0.249-0.871-0.249c-0.571,0-0.964,0.428-0.964,0.978
		c0,0.579,0.429,0.964,0.964,0.964c0.457,0,0.807-0.207,0.886-0.249v0.356C237.466,5.474,237.173,5.673,236.666,5.673z"/>
	<path class="st3" d="M239.042,5.673c-0.364,0-0.735-0.192-0.735-0.893V3.367h-0.536l0.107-0.293h0.429V2.081h0.386v0.993h0.928
		l-0.107,0.293h-0.82v1.428c0,0.393,0.156,0.521,0.436,0.521c0.221,0,0.436-0.129,0.514-0.164v0.35
		C239.577,5.537,239.363,5.673,239.042,5.673z"/>
	<path class="st3" d="M239.983,5.595V5.466l1.342-1.499c0.364-0.407,0.693-0.85,0.693-1.314c0-0.507-0.336-0.864-0.836-0.864
		c-0.45,0-0.85,0.321-0.886,0.793h-0.371c0.036-0.657,0.593-1.178,1.264-1.178c0.729,0,1.257,0.485,1.257,1.242
		c0,0.586-0.464,1.157-0.75,1.471l-1,1.1h1.771v0.379H239.983z"/>
</g>
<g>
	<path class="st3" d="M216.765,27.651V21.76h0.421v5.471L216.765,27.651z"/>
	<path class="st3" d="M219.52,25.816l-0.036-0.214c-0.078,0.063-0.293,0.285-0.75,0.285c-0.428,0-0.807-0.307-0.807-0.807
		c0-0.55,0.422-0.857,1.064-0.929l0.471-0.05v-0.479h-1.378l0.071-0.328h1.686v2.521H219.52z M219.462,24.396l-0.414,0.05
		c-0.471,0.057-0.735,0.265-0.735,0.614c0,0.293,0.222,0.514,0.528,0.514c0.322,0,0.536-0.229,0.621-0.313V24.396z"/>
	<path class="st3" d="M221.567,25.816h-0.394l-0.907-2.521h0.414l0.686,2.014l0.693-2.014h0.414L221.567,25.816z"/>
	<path class="st3" d="M224.314,25.816l-0.036-0.214c-0.078,0.063-0.293,0.285-0.75,0.285c-0.428,0-0.807-0.307-0.807-0.807
		c0-0.55,0.422-0.857,1.064-0.929l0.471-0.05v-0.479h-1.378l0.071-0.328h1.686v2.521H224.314z M224.257,24.396l-0.414,0.05
		c-0.471,0.057-0.735,0.265-0.735,0.614c0,0.293,0.222,0.514,0.528,0.514c0.322,0,0.536-0.229,0.621-0.313V24.396z"/>
	<path class="st3" d="M226.419,25.931c-0.378,0-0.764-0.114-1.092-0.293v-0.464c0.178,0.107,0.664,0.378,1.092,0.378
		c0.472,0,0.844-0.249,0.844-0.671c0-0.328-0.336-0.593-0.586-0.757l-0.621-0.407c-0.308-0.2-0.679-0.5-0.679-1.014
		c0-0.693,0.507-1.057,1.149-1.057c0.429,0,0.742,0.143,0.929,0.235v0.429c-0.222-0.129-0.571-0.293-0.929-0.293
		c-0.442,0-0.735,0.271-0.735,0.649c0,0.336,0.286,0.543,0.563,0.729l0.594,0.393c0.299,0.2,0.742,0.515,0.742,1.078
		C227.69,25.523,227.155,25.931,226.419,25.931z"/>
	<path class="st3" d="M229.595,25.895c-0.75,0-1.357-0.55-1.357-1.328c0-0.771,0.594-1.342,1.357-1.342
		c0.414,0,0.771,0.186,0.878,0.242v0.371c-0.093-0.05-0.429-0.25-0.871-0.25c-0.571,0-0.964,0.429-0.964,0.979
		c0,0.579,0.428,0.965,0.964,0.965c0.457,0,0.808-0.208,0.886-0.25v0.356C230.395,25.695,230.102,25.895,229.595,25.895z"/>
	<path class="st3" d="M232.206,23.581c-0.32,0-0.621,0.3-0.692,0.371v1.864h-0.386v-2.521h0.386v0.364
		c0.079-0.086,0.336-0.443,0.75-0.443c0.114,0,0.179,0.015,0.222,0.029v0.363C232.442,23.609,232.349,23.581,232.206,23.581z"/>
	<path class="st3" d="M233.141,22.803l-0.329-0.321l0.322-0.321l0.328,0.321L233.141,22.803z M232.948,25.816v-2.521h0.385v2.521
		H232.948z"/>
	<path class="st3" d="M235.325,25.895c-0.43,0-0.664-0.164-0.75-0.207v1.75h-0.387v-4.142h0.387v0.343l0.785-0.422
		c0.278,0.079,1.221,0.351,1.221,1.414C236.581,25.323,236.003,25.895,235.325,25.895z M235.367,23.596l-0.792,0.393v1.321
		c0.07,0.043,0.314,0.229,0.649,0.229c0.515,0,0.957-0.407,0.957-0.921C236.182,23.91,235.596,23.682,235.367,23.596z"/>
	<path class="st3" d="M238.063,25.895c-0.363,0-0.734-0.192-0.734-0.893v-1.414h-0.536l0.106-0.292h0.43v-0.993h0.385v0.993h0.929
		l-0.107,0.292h-0.821v1.429c0,0.393,0.157,0.521,0.436,0.521c0.222,0,0.436-0.129,0.515-0.164v0.35
		C238.6,25.76,238.386,25.895,238.063,25.895z"/>
</g>
<line class="st1" x1="252.246" y1="5.288" x2="255.28" y2="2.254"/>
<line class="st1" x1="295.86" y1="5.288" x2="298.894" y2="2.254"/>
<path class="st2" d="M253.774,4.788l1.032-1.032 M254.372,4.788l1.032-1.032 M254.971,4.788l1.032-1.032 M255.568,4.788l1.032-1.032
	 M256.166,4.788l1.032-1.032 M256.765,4.788l1.032-1.032 M257.363,4.788l1.032-1.032 M257.961,4.788l1.032-1.032 M258.559,4.788
	l1.032-1.032 M259.157,4.788l1.032-1.032 M259.756,4.788l1.032-1.032 M260.353,4.788l1.032-1.032 M260.951,4.788l1.032-1.032
	 M261.55,4.788l1.032-1.032 M262.148,4.788l1.032-1.032 M262.746,4.788l1.032-1.032 M263.344,4.788l1.032-1.032 M263.942,4.788
	l1.032-1.032 M264.541,4.788l1.032-1.032 M265.139,4.788l1.032-1.032 M265.736,4.788l1.032-1.032 M266.335,4.788l1.032-1.032
	 M266.933,4.788l1.032-1.032 M267.531,4.788l1.032-1.032 M268.129,4.788l1.032-1.032 M268.727,4.788l1.032-1.032 M269.326,4.788
	l1.032-1.032 M269.924,4.788l1.032-1.032 M270.522,4.788l1.032-1.032 M271.12,4.788l1.032-1.032 M271.718,4.788l1.032-1.032
	 M272.316,4.788l1.032-1.032 M272.914,4.788l1.032-1.032 M273.513,4.788l1.032-1.032 M274.111,4.788l1.032-1.032 M274.709,4.788
	l1.032-1.032 M275.307,4.788l1.032-1.032 M275.905,4.788l1.032-1.032 M276.503,4.788l1.032-1.032 M277.101,4.788l1.032-1.032
	 M277.699,4.788l1.032-1.032 M278.298,4.788l1.032-1.032"/>
<path class="st2" d="M254.652,3.953l1.032-1.032 M255.251,3.953l1.032-1.032 M255.849,3.953l1.032-1.032 M256.446,3.953l1.032-1.032
	 M257.045,3.953l1.032-1.032 M257.643,3.953l1.032-1.032 M258.241,3.953l1.032-1.032 M258.839,3.953l1.032-1.032 M259.437,3.953
	l1.032-1.032 M260.036,3.953l1.032-1.032 M260.634,3.953l1.032-1.032 M261.231,3.953l1.032-1.032 M261.83,3.953l1.032-1.032
	 M262.428,3.953l1.032-1.032 M263.026,3.953l1.032-1.032 M263.624,3.953l1.032-1.032 M264.223,3.953l1.032-1.032 M264.821,3.953
	l1.032-1.032 M265.419,3.953l1.032-1.032 M266.017,3.953l1.032-1.032 M266.615,3.953l1.032-1.032 M267.213,3.953l1.032-1.032
	 M267.811,3.953l1.032-1.032 M268.409,3.953l1.032-1.032 M269.008,3.953l1.032-1.032 M269.606,3.953l1.032-1.032 M270.204,3.953
	l1.032-1.032 M270.802,3.953l1.032-1.032 M271.4,3.953l1.032-1.032 M271.998,3.953l1.032-1.032 M272.596,3.953l1.032-1.032
	 M273.194,3.953l1.032-1.032 M273.793,3.953l1.032-1.032 M274.391,3.953l1.032-1.032 M274.989,3.953l1.032-1.032 M275.587,3.953
	l1.032-1.032 M276.185,3.953l1.032-1.032 M276.783,3.953l1.032-1.032 M277.381,3.953l1.032-1.032 M277.979,3.953l1.032-1.032
	 M278.578,3.953l1.032-1.032 M279.176,3.953l1.032-1.032"/>
<line class="st1" x1="255.153" y1="2.254" x2="298.999" y2="2.254"/>
<line class="st1" x1="251.909" y1="5.541" x2="295.755" y2="5.541"/>
<line class="st1" x1="252.246" y1="25.43" x2="255.28" y2="22.397"/>
<line class="st1" x1="255.153" y1="22.396" x2="298.999" y2="22.396"/>
<line class="st1" x1="251.909" y1="25.684" x2="295.755" y2="25.684"/>
<path class="st2" d="M253.774,25.057l1.032-1.032 M254.378,25.057l1.032-1.032 M254.982,25.057l1.032-1.032 M255.585,25.057
	l1.032-1.032 M256.189,25.057l1.032-1.032 M256.793,25.057l1.032-1.032 M257.397,25.057l1.032-1.032 M258,25.057l1.032-1.032
	 M258.604,25.057l1.032-1.032 M259.208,25.057l1.032-1.032 M259.812,25.057l1.032-1.032 M260.416,25.057l1.032-1.032
	 M261.019,25.057l1.032-1.032 M261.623,25.057l1.032-1.032 M262.227,25.057l1.032-1.032 M262.831,25.057l1.032-1.032
	 M263.435,25.057l1.032-1.032 M264.038,25.057l1.032-1.032 M264.642,25.057l1.032-1.032 M265.246,25.057l1.032-1.032
	 M265.849,25.057l1.032-1.032 M266.454,25.057l1.032-1.032 M267.057,25.057l1.032-1.032 M267.661,25.057l1.032-1.032
	 M268.265,25.057l1.032-1.032"/>
<path class="st2" d="M254.775,24.055l1.032-1.032 M255.379,24.055l1.032-1.032 M255.983,24.055l1.032-1.032 M256.586,24.055
	l1.032-1.032 M257.19,24.055l1.032-1.032 M257.794,24.055l1.032-1.032 M258.398,24.055l1.032-1.032 M259.001,24.055l1.032-1.032
	 M259.605,24.055l1.032-1.032 M260.209,24.055l1.032-1.032 M260.813,24.055l1.032-1.032 M261.417,24.055l1.032-1.032 M262.02,24.055
	l1.032-1.032 M262.624,24.055l1.032-1.032 M263.228,24.055l1.032-1.032 M263.832,24.055l1.032-1.032 M264.436,24.055l1.032-1.032
	 M265.039,24.055l1.032-1.032 M265.643,24.055l1.032-1.032 M266.247,24.055l1.032-1.032 M266.851,24.055l1.032-1.032
	 M267.455,24.055l1.032-1.032 M268.058,24.055l1.032-1.032 M268.662,24.055l1.032-1.032 M269.266,24.055l1.032-1.032"/>
</svg>