<!-- Generator: Adobe Illustrator 21.1.0, SVG Export Plug-In  -->
<svg version="1.1"
	 xmlns="http://www.w3.org/2000/svg" xmlns:xlink="http://www.w3.org/1999/xlink" xmlns:a="http://ns.adobe.com/AdobeSVGViewerExtensions/3.0/"
	 x="0px" y="0px" width="330.464px" height="98.592px" viewBox="0 0 330.464 98.592"
	 style="overflow:scroll;enable-background:new 0 0 330.464 98.592;" xml:space="preserve">
<style type="text/css">
	.st0{fill:#1F2477;}
	.st1{fill:#1B1863;}
	.st2{fill:none;stroke:#1B1863;stroke-miterlimit:10;}
	.st3{fill:#FFFFFF;}
	.st4{fill:none;stroke:#9C80A8;stroke-miterlimit:10;}
	.st5{fill:none;stroke:#BE0D2A;stroke-miterlimit:10;}
	.st6{fill:none;stroke:#9C80A8;stroke-linecap:round;stroke-linejoin:round;stroke-miterlimit:10;stroke-dasharray:0,1.997;}
	.st7{fill:none;stroke:#9C80A8;stroke-linecap:round;stroke-linejoin:round;stroke-miterlimit:10;}
	.st8{fill:none;stroke:#1B1863;stroke-linecap:round;stroke-linejoin:round;stroke-miterlimit:10;stroke-dasharray:0,2.005;}
	.st9{fill:none;stroke:#1B1863;stroke-linecap:round;stroke-linejoin:round;stroke-miterlimit:10;}
	.st10{fill:none;stroke:#9C80A8;stroke-linecap:round;stroke-linejoin:round;stroke-miterlimit:10;stroke-dasharray:0,2.009;}
	.st11{fill:#29196E;}
	.st12{fill:#3F477F;}
	.st13{fill:#182480;}
	.st14{font-family:'Anders';}
	.st15{font-size:5.3891px;}
	.st16{font-family:'PrioriSanRegular';}
	.st17{font-size:4.8502px;}
	.st18{font-size:4.3113px;}
	.st19{font-family:'PrioriSanBold';}
	.st20{font-size:5.7937px;}
</style>
<defs>
</defs>
<g>
	<path class="st0" d="M149.159,73.785c0,0.021-0.007,0.042-0.021,0.063c-0.015,0.02-0.034,0.029-0.06,0.029h-2.643
		c-0.026,0-0.048-0.009-0.064-0.027c-0.017-0.018-0.025-0.039-0.025-0.064v-4.139c0-0.025,0.01-0.045,0.028-0.06
		c0.019-0.014,0.039-0.021,0.062-0.021h2.643c0.021,0,0.041,0.009,0.057,0.025c0.017,0.017,0.024,0.036,0.024,0.059
		s-0.008,0.042-0.024,0.059c-0.016,0.017-0.035,0.024-0.057,0.024h-2.564v1.665h1.999c0.021,0,0.04,0.009,0.057,0.025
		s0.024,0.036,0.024,0.059s-0.008,0.042-0.024,0.059s-0.035,0.025-0.057,0.025h-1.989l-0.005,0.371h2.016
		c0.058,0,0.087,0.028,0.087,0.084c0,0.021-0.01,0.04-0.027,0.058s-0.038,0.025-0.06,0.025h-2.021v1.59h2.564
		c0.021,0,0.041,0.011,0.057,0.03C149.151,73.743,149.159,73.764,149.159,73.785z"/>
	<path class="st0" d="M153.298,71.716c0,0.299-0.057,0.578-0.17,0.838c-0.112,0.261-0.267,0.488-0.46,0.682
		c-0.195,0.194-0.423,0.347-0.686,0.458c-0.262,0.111-0.54,0.169-0.835,0.173l-0.706,0.005c-0.025,0-0.045-0.009-0.062-0.026
		c-0.017-0.019-0.024-0.04-0.024-0.064v-4.048h-0.372v4.059c0,0.058-0.028,0.086-0.086,0.086c-0.025,0-0.045-0.009-0.06-0.027
		c-0.014-0.018-0.021-0.037-0.021-0.059v-4.134c0-0.025,0.008-0.047,0.024-0.064c0.017-0.019,0.036-0.027,0.062-0.027h1.245
		c0.295,0,0.573,0.057,0.835,0.17c0.263,0.113,0.49,0.267,0.686,0.461c0.193,0.194,0.348,0.422,0.46,0.685
		C153.241,71.143,153.298,71.421,153.298,71.716z M153.131,71.713c0-0.273-0.053-0.531-0.156-0.774
		c-0.104-0.242-0.245-0.453-0.423-0.631c-0.179-0.178-0.388-0.319-0.631-0.424c-0.242-0.104-0.501-0.156-0.773-0.156
		c-0.104,0-0.208,0.001-0.313,0.003c-0.104,0.001-0.208,0.002-0.313,0.002v3.967c0.104,0,0.208,0,0.313,0s0.208-0.002,0.313-0.006
		c0.272-0.003,0.53-0.058,0.771-0.161c0.241-0.104,0.451-0.246,0.631-0.424c0.18-0.179,0.321-0.387,0.426-0.626
		C153.078,72.243,153.131,71.986,153.131,71.713z"/>
	<path class="st0" d="M156.801,72.81c0,0.145-0.026,0.28-0.08,0.41c-0.055,0.129-0.129,0.242-0.225,0.339
		c-0.096,0.098-0.207,0.175-0.335,0.232s-0.264,0.086-0.407,0.086h-0.416c-0.148,0-0.287-0.027-0.416-0.084
		c-0.13-0.056-0.243-0.132-0.34-0.229c-0.098-0.097-0.174-0.21-0.23-0.34c-0.055-0.129-0.083-0.268-0.083-0.415v-3.163
		c0-0.021,0.009-0.04,0.024-0.057c0.018-0.017,0.037-0.024,0.059-0.024c0.022,0,0.042,0.008,0.059,0.024s0.025,0.035,0.025,0.057
		v3.159c0,0.122,0.023,0.237,0.072,0.348c0.049,0.109,0.113,0.205,0.196,0.287c0.083,0.083,0.179,0.148,0.288,0.197
		c0.109,0.048,0.225,0.072,0.346,0.072h0.414c0.123,0,0.236-0.024,0.345-0.072c0.107-0.049,0.2-0.114,0.279-0.197
		c0.079-0.082,0.142-0.178,0.188-0.287c0.047-0.11,0.07-0.226,0.07-0.348v-3.159c0-0.021,0.008-0.04,0.024-0.057
		s0.036-0.024,0.059-0.024s0.042,0.008,0.058,0.024c0.018,0.017,0.025,0.035,0.025,0.057V72.81z"/>
	<path class="st0" d="M161.398,73.268c0,0.021-0.012,0.044-0.033,0.065c-0.193,0.183-0.416,0.319-0.668,0.409
		s-0.506,0.135-0.766,0.135c-0.298,0-0.578-0.057-0.84-0.17c-0.263-0.113-0.49-0.267-0.686-0.461
		c-0.193-0.193-0.348-0.422-0.46-0.685c-0.113-0.262-0.17-0.542-0.17-0.84c0-0.299,0.057-0.579,0.17-0.841
		c0.112-0.263,0.267-0.49,0.46-0.685c0.195-0.194,0.423-0.348,0.686-0.461c0.262-0.113,0.542-0.17,0.84-0.17
		c0.126,0,0.254,0.012,0.386,0.035c0.131,0.023,0.259,0.059,0.383,0.105s0.242,0.103,0.355,0.17c0.113,0.066,0.216,0.145,0.31,0.234
		c0.021,0.021,0.033,0.043,0.033,0.064s-0.011,0.041-0.03,0.06c-0.02,0.018-0.04,0.026-0.062,0.026s-0.04-0.007-0.055-0.021
		c-0.104-0.079-0.206-0.15-0.307-0.213s-0.203-0.116-0.307-0.159c-0.105-0.043-0.215-0.076-0.332-0.1s-0.242-0.035-0.375-0.035
		c-0.272,0-0.529,0.053-0.771,0.156c-0.241,0.104-0.452,0.247-0.633,0.429c-0.182,0.182-0.324,0.393-0.429,0.633
		c-0.104,0.241-0.156,0.498-0.156,0.771c0,0.272,0.053,0.529,0.156,0.771c0.104,0.24,0.247,0.451,0.429,0.633
		c0.181,0.182,0.392,0.324,0.633,0.429s0.498,0.156,0.771,0.156c0.26,0,0.494-0.044,0.707-0.132
		c0.211-0.088,0.416-0.213,0.613-0.375c0.019-0.018,0.038-0.026,0.06-0.026s0.042,0.01,0.06,0.029S161.398,73.246,161.398,73.268z"
		/>
	<path class="st0" d="M165.1,73.796c0,0.021-0.008,0.041-0.023,0.057c-0.017,0.017-0.035,0.024-0.057,0.024
		c-0.043,0-0.07-0.018-0.081-0.054l-1.568-3.956l-0.178,0.458c0.015,0.029,0.045,0.101,0.092,0.216
		c0.046,0.115,0.104,0.256,0.173,0.423c0.067,0.167,0.141,0.353,0.221,0.556c0.078,0.203,0.16,0.408,0.242,0.617
		c0.082,0.208,0.162,0.411,0.24,0.608c0.076,0.197,0.145,0.374,0.204,0.528s0.106,0.279,0.144,0.374
		c0.035,0.096,0.053,0.146,0.053,0.148c0,0.04-0.018,0.064-0.053,0.075c-0.008,0-0.014,0.001-0.017,0.003
		c-0.004,0.002-0.009,0.003-0.017,0.003c-0.035,0-0.061-0.018-0.075-0.054l-1.294-3.266l-1.255,3.266
		c-0.015,0.036-0.042,0.054-0.081,0.054c-0.008,0-0.012-0.001-0.014-0.003s-0.006-0.003-0.014-0.003
		c-0.035-0.011-0.053-0.037-0.053-0.08c0-0.004,0.021-0.063,0.064-0.178c0.043-0.115,0.1-0.265,0.17-0.447
		c0.069-0.184,0.15-0.394,0.242-0.631s0.185-0.48,0.279-0.73c0.096-0.25,0.191-0.496,0.286-0.741
		c0.095-0.244,0.182-0.468,0.259-0.671s0.143-0.373,0.197-0.512c0.053-0.139,0.088-0.228,0.102-0.267
		c0.015-0.032,0.041-0.049,0.081-0.049s0.065,0.017,0.075,0.049c0.015,0.039,0.05,0.128,0.105,0.267s0.123,0.309,0.202,0.512
		s0.168,0.427,0.267,0.671c0.099,0.245,0.197,0.491,0.297,0.741c0.098,0.25,0.195,0.493,0.291,0.73
		c0.095,0.237,0.178,0.448,0.25,0.633c0.072,0.186,0.131,0.335,0.176,0.45S165.1,73.793,165.1,73.796z"/>
	<path class="st0" d="M169.056,73.268c0,0.021-0.011,0.044-0.032,0.065c-0.194,0.183-0.417,0.319-0.668,0.409
		c-0.252,0.09-0.507,0.135-0.766,0.135c-0.299,0-0.578-0.057-0.841-0.17s-0.49-0.267-0.685-0.461
		c-0.193-0.193-0.348-0.422-0.461-0.685c-0.113-0.262-0.17-0.542-0.17-0.84c0-0.299,0.057-0.579,0.17-0.841
		c0.113-0.263,0.268-0.49,0.461-0.685c0.194-0.194,0.422-0.348,0.685-0.461s0.542-0.17,0.841-0.17c0.125,0,0.254,0.012,0.385,0.035
		s0.26,0.059,0.383,0.105c0.124,0.047,0.242,0.103,0.355,0.17c0.113,0.066,0.217,0.145,0.311,0.234
		c0.021,0.021,0.032,0.043,0.032,0.064s-0.011,0.041-0.03,0.06c-0.02,0.018-0.04,0.026-0.062,0.026s-0.04-0.007-0.054-0.021
		c-0.104-0.079-0.207-0.15-0.307-0.213c-0.102-0.063-0.203-0.116-0.308-0.159s-0.215-0.076-0.331-0.1
		c-0.117-0.023-0.242-0.035-0.375-0.035c-0.273,0-0.53,0.053-0.771,0.156c-0.24,0.104-0.451,0.247-0.633,0.429
		s-0.324,0.393-0.428,0.633c-0.104,0.241-0.156,0.498-0.156,0.771c0,0.272,0.052,0.529,0.156,0.771
		c0.104,0.24,0.246,0.451,0.428,0.633s0.393,0.324,0.633,0.429c0.241,0.104,0.498,0.156,0.771,0.156
		c0.259,0,0.494-0.044,0.706-0.132s0.417-0.213,0.614-0.375c0.018-0.018,0.037-0.026,0.059-0.026s0.042,0.01,0.061,0.029
		C169.047,73.226,169.056,73.246,169.056,73.268z"/>
	<path class="st0" d="M169.805,73.796c0,0.025-0.009,0.045-0.026,0.06c-0.019,0.015-0.038,0.021-0.06,0.021
		s-0.041-0.008-0.057-0.024c-0.016-0.016-0.023-0.035-0.023-0.057v-4.149c0-0.021,0.008-0.04,0.023-0.057s0.035-0.024,0.057-0.024
		s0.041,0.008,0.06,0.021c0.018,0.015,0.026,0.034,0.026,0.06V73.796z"/>
	<path class="st0" d="M175.097,71.722c0,0.298-0.057,0.578-0.169,0.84c-0.113,0.263-0.268,0.491-0.461,0.685
		c-0.194,0.194-0.423,0.348-0.686,0.461c-0.262,0.113-0.542,0.17-0.84,0.17c-0.299,0-0.578-0.057-0.841-0.17
		s-0.491-0.267-0.685-0.461c-0.193-0.193-0.348-0.422-0.461-0.685c-0.113-0.262-0.17-0.542-0.17-0.84
		c0-0.299,0.057-0.579,0.17-0.841c0.113-0.263,0.268-0.49,0.461-0.685s0.422-0.348,0.685-0.461s0.542-0.17,0.841-0.17
		c0.298,0,0.578,0.057,0.84,0.17c0.263,0.113,0.491,0.267,0.686,0.461c0.193,0.194,0.348,0.422,0.461,0.685
		C175.04,71.143,175.097,71.423,175.097,71.722z M174.93,71.722c0-0.273-0.053-0.53-0.156-0.771
		c-0.104-0.24-0.247-0.451-0.428-0.633c-0.182-0.182-0.393-0.324-0.634-0.429c-0.241-0.104-0.497-0.156-0.771-0.156
		s-0.53,0.053-0.771,0.156c-0.24,0.104-0.451,0.247-0.633,0.429s-0.324,0.393-0.428,0.633c-0.105,0.241-0.156,0.498-0.156,0.771
		c0,0.272,0.051,0.529,0.156,0.771c0.104,0.24,0.246,0.451,0.428,0.633s0.393,0.324,0.633,0.429
		c0.241,0.104,0.498,0.156,0.771,0.156s0.529-0.052,0.771-0.156s0.452-0.247,0.634-0.429c0.181-0.182,0.324-0.393,0.428-0.633
		C174.877,72.251,174.93,71.994,174.93,71.722z"/>
	<path class="st0" d="M178.541,73.796c0,0.021-0.01,0.041-0.027,0.057c-0.019,0.017-0.038,0.024-0.06,0.024
		c-0.028,0-0.05-0.011-0.065-0.032l-2.16-3.034v2.98c0,0.021-0.009,0.041-0.026,0.059c-0.017,0.019-0.036,0.027-0.058,0.027
		c-0.056,0-0.083-0.028-0.083-0.086v-3.25c0-0.018,0.009-0.036,0.026-0.054c0.017-0.018,0.034-0.027,0.051-0.027
		c0.025,0,0.047,0.013,0.068,0.038c0.025,0.036,0.077,0.108,0.156,0.218c0.078,0.11,0.176,0.244,0.291,0.402
		c0.115,0.157,0.24,0.333,0.377,0.525c0.137,0.191,0.275,0.385,0.415,0.579c0.14,0.193,0.276,0.384,0.407,0.568
		c0.131,0.186,0.248,0.351,0.35,0.496c0.103,0.146,0.185,0.264,0.246,0.355C178.51,73.734,178.541,73.785,178.541,73.796z
		 M179.197,73.791c0,0.058-0.028,0.086-0.086,0.086c-0.029,0-0.051-0.011-0.064-0.032l-2.964-4.123
		c-0.007-0.007-0.011-0.023-0.011-0.048c0-0.058,0.025-0.087,0.078-0.087c0.02,0,0.041,0.013,0.063,0.038l2.818,3.912v-3.891
		c0-0.021,0.008-0.04,0.023-0.057c0.017-0.017,0.035-0.024,0.057-0.024s0.041,0.008,0.057,0.024s0.024,0.035,0.024,0.057
		L179.197,73.791z"/>
</g>
<g>
	<path class="st1" d="M250.9,82.32v-2.756h1.549v0.257h-1.262v0.98h0.971v0.252h-0.971v1.01h1.324v0.257H250.9z"/>
	<path class="st1" d="M253.398,82.374c-0.262,0-0.432-0.093-0.499-0.127v-0.262c0.063,0.029,0.286,0.16,0.499,0.16
		c0.189,0,0.359-0.082,0.359-0.252c0-0.165-0.252-0.258-0.397-0.335c-0.17-0.093-0.476-0.238-0.476-0.52
		c0-0.301,0.248-0.485,0.592-0.485c0.252,0,0.428,0.098,0.476,0.127v0.247c-0.126-0.078-0.315-0.15-0.461-0.15
		c-0.218,0-0.35,0.106-0.35,0.237c0,0.16,0.214,0.248,0.359,0.315c0.16,0.078,0.515,0.229,0.515,0.549
		C254.016,82.209,253.734,82.374,253.398,82.374z"/>
	<path class="st1" d="M255.276,82.374c-0.51,0-0.922-0.374-0.922-0.903c0-0.523,0.403-0.912,0.922-0.912
		c0.281,0,0.524,0.127,0.597,0.165v0.253c-0.063-0.034-0.291-0.17-0.592-0.17c-0.389,0-0.655,0.291-0.655,0.664
		c0,0.394,0.292,0.655,0.655,0.655c0.311,0,0.549-0.141,0.602-0.17v0.243C255.82,82.238,255.621,82.374,255.276,82.374z"/>
	<path class="st1" d="M257.449,82.32v-0.219c-0.049,0.063-0.199,0.272-0.549,0.272c-0.34,0-0.582-0.238-0.582-0.65v-1.116h0.262
		v1.092c0,0.276,0.16,0.427,0.384,0.427c0.306,0,0.451-0.286,0.485-0.345v-1.174h0.262v1.713H257.449z"/>
	<path class="st1" d="M258.408,81.49c0.025,0.438,0.336,0.65,0.66,0.65c0.354,0,0.582-0.165,0.65-0.199v0.243
		c-0.049,0.029-0.281,0.189-0.68,0.189c-0.461,0-0.893-0.34-0.893-0.908c0-0.558,0.432-0.912,0.898-0.912
		c0.393,0,0.723,0.315,0.723,0.811v0.126H258.408z M259.021,80.787c-0.394,0-0.548,0.301-0.597,0.5h1.092
		C259.516,81.02,259.321,80.787,259.021,80.787z"/>
	<path class="st1" d="M260.927,82.296c-0.049,0.024-0.146,0.078-0.296,0.078c-0.224,0-0.393-0.15-0.393-0.456v-2.354h0.262v2.339
		c0,0.165,0.097,0.232,0.193,0.232c0.102,0,0.194-0.044,0.233-0.063V82.296z"/>
	<path class="st1" d="M262.275,82.32l-0.024-0.146c-0.054,0.044-0.199,0.194-0.51,0.194c-0.291,0-0.548-0.209-0.548-0.549
		c0-0.373,0.285-0.582,0.723-0.631l0.32-0.034v-0.324H261.3l0.048-0.224h1.146v1.713H262.275z M262.236,81.354l-0.281,0.034
		c-0.32,0.039-0.5,0.18-0.5,0.417c0,0.199,0.15,0.35,0.359,0.35c0.218,0,0.363-0.155,0.422-0.214V81.354z"/>
	<path class="st1" d="M264.85,82.32h-0.858v-2.756h0.835c0.791,0,1.548,0.5,1.548,1.388C266.374,81.85,265.637,82.32,264.85,82.32z
		 M264.84,79.821h-0.563v2.232h0.588c0.669,0,1.213-0.398,1.213-1.102C266.078,80.253,265.51,79.821,264.84,79.821z"/>
	<path class="st1" d="M267.805,82.32l-0.024-0.146c-0.054,0.044-0.199,0.194-0.51,0.194c-0.291,0-0.548-0.209-0.548-0.549
		c0-0.373,0.285-0.582,0.723-0.631l0.32-0.034v-0.324h-0.937l0.048-0.224h1.146v1.713H267.805z M267.766,81.354l-0.281,0.034
		c-0.32,0.039-0.5,0.18-0.5,0.417c0,0.199,0.15,0.35,0.359,0.35c0.218,0,0.363-0.155,0.422-0.214V81.354z"/>
	<path class="st1" d="M270.428,82.32h-0.237l-0.98-2.756h0.301l0.699,2.033l0.097,0.311l0.102-0.311l0.694-2.033h0.306
		L270.428,82.32z"/>
	<path class="st1" d="M271.902,80.272l-0.224-0.218l0.218-0.219l0.224,0.219L271.902,80.272z M271.771,82.32v-1.713h0.262v1.713
		H271.771z"/>
	<path class="st1" d="M273.77,82.32v-1.155c0-0.223-0.126-0.368-0.34-0.368c-0.311,0-0.514,0.286-0.553,0.335v1.188h-0.262v-1.713
		h0.262v0.242c0.039-0.043,0.229-0.296,0.592-0.296c0.311,0,0.563,0.209,0.563,0.593v1.174H273.77z"/>
	<path class="st1" d="M275.39,82.374c-0.51,0-0.922-0.374-0.922-0.903c0-0.523,0.403-0.912,0.922-0.912
		c0.281,0,0.524,0.127,0.597,0.165v0.253c-0.063-0.034-0.291-0.17-0.592-0.17c-0.389,0-0.655,0.291-0.655,0.664
		c0,0.394,0.292,0.655,0.655,0.655c0.311,0,0.549-0.141,0.602-0.17v0.243C275.934,82.238,275.734,82.374,275.39,82.374z"/>
	<path class="st1" d="M276.611,80.272l-0.223-0.218l0.218-0.219l0.224,0.219L276.611,80.272z M276.48,82.32v-1.713h0.262v1.713
		H276.48z"/>
	<path class="st1" d="M277.301,81.428v-0.233h0.849v0.233H277.301z"/>
	<path class="st1" d="M279.609,82.32h-0.859v-2.756h0.836c0.79,0,1.547,0.5,1.547,1.388C281.133,81.85,280.396,82.32,279.609,82.32z
		 M279.6,79.821h-0.563v2.232h0.587c0.67,0,1.213-0.398,1.213-1.102C280.837,80.253,280.27,79.821,279.6,79.821z"/>
	<path class="st1" d="M281.781,80.272l-0.223-0.218l0.219-0.219L282,80.055L281.781,80.272z M281.65,82.32v-1.713h0.263v1.713
		H281.65z"/>
	<path class="st1" d="M282.912,82.374c-0.262,0-0.432-0.093-0.5-0.127v-0.262c0.063,0.029,0.287,0.16,0.5,0.16
		c0.189,0,0.359-0.082,0.359-0.252c0-0.165-0.252-0.258-0.398-0.335c-0.17-0.093-0.475-0.238-0.475-0.52
		c0-0.301,0.247-0.485,0.592-0.485c0.252,0,0.427,0.098,0.475,0.127v0.247c-0.125-0.078-0.314-0.15-0.461-0.15
		c-0.218,0-0.349,0.106-0.349,0.237c0,0.16,0.214,0.248,0.358,0.315c0.16,0.078,0.515,0.229,0.515,0.549
		C283.528,82.209,283.247,82.374,282.912,82.374z"/>
	<path class="st1" d="M284.129,81.49c0.024,0.438,0.335,0.65,0.66,0.65c0.354,0,0.582-0.165,0.65-0.199v0.243
		c-0.049,0.029-0.281,0.189-0.68,0.189c-0.461,0-0.893-0.34-0.893-0.908c0-0.558,0.432-0.912,0.897-0.912
		c0.394,0,0.724,0.315,0.724,0.811v0.126H284.129z M284.74,80.787c-0.393,0-0.548,0.301-0.597,0.5h1.092
		C285.235,81.02,285.041,80.787,284.74,80.787z"/>
	<path class="st1" d="M287.113,82.32v-1.155c0-0.223-0.127-0.368-0.34-0.368c-0.311,0-0.515,0.286-0.554,0.335v1.188h-0.262v-1.713
		h0.262v0.242c0.039-0.043,0.228-0.296,0.593-0.296c0.311,0,0.563,0.209,0.563,0.593v1.174H287.113z M286.981,80.302
		c-0.262,0-0.476-0.219-0.597-0.219c-0.082,0-0.16,0.054-0.175,0.219l-0.218-0.005c0.014-0.228,0.15-0.446,0.397-0.446
		c0.243,0,0.427,0.214,0.592,0.214c0.077,0,0.16-0.059,0.165-0.204h0.219C287.36,80.083,287.225,80.302,286.981,80.302z"/>
	<path class="st1" d="M288.713,82.374c-0.5,0-0.902-0.394-0.902-0.908c0-0.514,0.402-0.912,0.902-0.912s0.902,0.398,0.902,0.912
		C289.615,81.98,289.213,82.374,288.713,82.374z M288.713,80.797c-0.354,0-0.636,0.291-0.636,0.669c0,0.379,0.282,0.665,0.636,0.665
		c0.354,0,0.636-0.286,0.636-0.665C289.349,81.088,289.067,80.797,288.713,80.797z"/>
	<path class="st1" d="M293.146,82.32v-1.169c0-0.214-0.111-0.354-0.315-0.354c-0.296,0-0.495,0.276-0.534,0.32v1.203h-0.262v-1.169
		c0-0.214-0.111-0.354-0.315-0.354c-0.296,0-0.495,0.276-0.534,0.32v1.203h-0.262v-1.713h0.262v0.233
		c0.039-0.044,0.219-0.287,0.568-0.287c0.229,0,0.417,0.112,0.5,0.325c0.126-0.131,0.281-0.325,0.616-0.325
		c0.301,0,0.538,0.199,0.538,0.568v1.198H293.146z"/>
	<path class="st1" d="M295.072,82.32v-0.219c-0.049,0.063-0.199,0.272-0.549,0.272c-0.34,0-0.582-0.238-0.582-0.65v-1.116h0.262
		v1.092c0,0.276,0.16,0.427,0.383,0.427c0.307,0,0.451-0.286,0.486-0.345v-1.174h0.262v1.713H295.072z"/>
	<path class="st1" d="M296.556,82.296c-0.049,0.024-0.146,0.078-0.296,0.078c-0.224,0-0.393-0.15-0.393-0.456v-2.354h0.262v2.339
		c0,0.165,0.097,0.232,0.193,0.232c0.102,0,0.194-0.044,0.233-0.063V82.296z"/>
	<path class="st1" d="M297.516,82.374c-0.248,0-0.5-0.131-0.5-0.606v-0.961h-0.363l0.072-0.199h0.291v-0.675h0.262v0.675h0.631
		l-0.072,0.199h-0.559v0.97c0,0.268,0.107,0.354,0.297,0.354c0.15,0,0.296-0.087,0.35-0.111v0.237
		C297.88,82.281,297.734,82.374,297.516,82.374z"/>
	<path class="st1" d="M298.418,80.272l-0.224-0.218l0.218-0.219l0.224,0.219L298.418,80.272z M298.287,82.32v-1.713h0.262v1.713
		H298.287z"/>
	<path class="st1" d="M301.354,82.32v-1.169c0-0.214-0.112-0.354-0.316-0.354c-0.295,0-0.494,0.276-0.533,0.32v1.203h-0.262v-1.169
		c0-0.214-0.111-0.354-0.316-0.354c-0.295,0-0.494,0.276-0.533,0.32v1.203h-0.262v-1.713h0.262v0.233
		c0.039-0.044,0.219-0.287,0.568-0.287c0.228,0,0.417,0.112,0.499,0.325c0.126-0.131,0.282-0.325,0.616-0.325
		c0.301,0,0.539,0.199,0.539,0.568v1.198H301.354z"/>
	<path class="st1" d="M302.313,81.49c0.023,0.438,0.334,0.65,0.66,0.65c0.354,0,0.582-0.165,0.65-0.199v0.243
		c-0.049,0.029-0.282,0.189-0.68,0.189c-0.461,0-0.893-0.34-0.893-0.908c0-0.558,0.432-0.912,0.896-0.912
		c0.394,0,0.724,0.315,0.724,0.811v0.126H302.313z M302.924,80.787c-0.393,0-0.549,0.301-0.598,0.5h1.092
		C303.418,81.02,303.225,80.787,302.924,80.787z"/>
	<path class="st1" d="M305.407,82.32v-0.233l-0.534,0.287c-0.188-0.054-0.829-0.238-0.829-0.961c0-0.471,0.394-0.859,0.854-0.859
		c0.291,0,0.451,0.112,0.509,0.141v-1.13h0.263v2.756H305.407z M305.407,80.952c-0.044-0.029-0.214-0.155-0.441-0.155
		c-0.35,0-0.65,0.276-0.65,0.626c0,0.48,0.397,0.636,0.554,0.693l0.538-0.267V80.952z"/>
	<path class="st1" d="M306.381,80.272l-0.223-0.218l0.219-0.219l0.223,0.219L306.381,80.272z M306.25,82.32v-1.713h0.263v1.713
		H306.25z"/>
	<path class="st1" d="M308.055,82.32l-0.023-0.146c-0.054,0.044-0.199,0.194-0.51,0.194c-0.291,0-0.549-0.209-0.549-0.549
		c0-0.373,0.287-0.582,0.724-0.631l0.32-0.034v-0.324h-0.937l0.049-0.224h1.145v1.713H308.055z M308.017,81.354l-0.282,0.034
		c-0.32,0.039-0.499,0.18-0.499,0.417c0,0.199,0.15,0.35,0.358,0.35c0.219,0,0.364-0.155,0.423-0.214V81.354z"/>
	<path class="st1" d="M309.496,82.296c-0.049,0.024-0.146,0.078-0.297,0.078c-0.223,0-0.393-0.15-0.393-0.456v-2.354h0.262v2.339
		c0,0.165,0.098,0.232,0.194,0.232c0.102,0,0.194-0.044,0.233-0.063V82.296z"/>
</g>
<g>
	<path class="st1" d="M158.078,82.32v-0.432c-0.072,0.102-0.33,0.48-0.888,0.48c-0.544,0-0.902-0.408-0.902-0.985v-1.819h0.291
		v1.819c0,0.437,0.253,0.737,0.65,0.737c0.509,0,0.747-0.437,0.849-0.606v-1.95h0.287v2.756H158.078z"/>
	<path class="st1" d="M160.712,82.32l-0.345-0.995h-0.945l-0.346,0.995h-0.305l0.98-2.756h0.285l0.98,2.756H160.712z
		 M160.018,80.287l-0.121-0.388l-0.126,0.388l-0.271,0.806h0.791L160.018,80.287z"/>
	<path class="st1" d="M162.283,82.32h-0.859v-2.756h0.836c0.79,0,1.547,0.5,1.547,1.388C163.807,81.85,163.069,82.32,162.283,82.32z
		 M162.273,79.821h-0.563v2.232h0.587c0.67,0,1.213-0.398,1.213-1.102C163.511,80.253,162.943,79.821,162.273,79.821z"/>
	<path class="st1" d="M164.368,82.32v-2.756h1.548v0.257h-1.262v0.98h0.971v0.252h-0.971v1.01h1.325v0.257H164.368z"/>
	<path class="st1" d="M166.425,81.428v-0.233h0.849v0.233H166.425z"/>
	<path class="st1" d="M168.473,82.296c-0.049,0.024-0.146,0.078-0.297,0.078c-0.223,0-0.393-0.15-0.393-0.456v-2.354h0.262v2.339
		c0,0.165,0.098,0.232,0.194,0.232c0.102,0,0.194-0.044,0.233-0.063V82.296z"/>
	<path class="st1" d="M169.039,80.272l-0.223-0.218l0.218-0.219l0.224,0.219L169.039,80.272z M168.908,82.32v-1.713h0.262v1.713
		H168.908z"/>
	<path class="st1" d="M170.576,82.374c-0.509,0-0.922-0.374-0.922-0.903c0-0.523,0.403-0.912,0.922-0.912
		c0.281,0,0.524,0.127,0.598,0.165v0.253c-0.063-0.034-0.291-0.17-0.592-0.17c-0.389,0-0.656,0.291-0.656,0.664
		c0,0.394,0.292,0.655,0.656,0.655c0.311,0,0.548-0.141,0.602-0.17v0.243C171.12,82.238,170.921,82.374,170.576,82.374z"/>
	<path class="st1" d="M171.959,82.397l-0.291-0.291l0.291-0.291l0.291,0.291L171.959,82.397z"/>
	<path class="st1" d="M174.656,82.32h-0.859v-2.756h0.835c0.79,0,1.548,0.5,1.548,1.388C176.18,81.85,175.441,82.32,174.656,82.32z
		 M174.646,79.821h-0.563v2.232h0.586c0.67,0,1.214-0.398,1.214-1.102C175.884,80.253,175.316,79.821,174.646,79.821z"/>
	<path class="st1" d="M176.828,80.272l-0.223-0.218l0.218-0.219l0.224,0.219L176.828,80.272z M176.697,82.32v-1.713h0.262v1.713
		H176.697z"/>
	<path class="st1" d="M177.959,82.374c-0.262,0-0.432-0.093-0.5-0.127v-0.262c0.063,0.029,0.286,0.16,0.5,0.16
		c0.189,0,0.359-0.082,0.359-0.252c0-0.165-0.253-0.258-0.398-0.335c-0.17-0.093-0.476-0.238-0.476-0.52
		c0-0.301,0.247-0.485,0.592-0.485c0.253,0,0.427,0.098,0.476,0.127v0.247c-0.126-0.078-0.315-0.15-0.461-0.15
		c-0.219,0-0.35,0.106-0.35,0.237c0,0.16,0.214,0.248,0.359,0.315c0.16,0.078,0.514,0.229,0.514,0.549
		C178.574,82.209,178.293,82.374,177.959,82.374z"/>
	<path class="st1" d="M179.176,81.49c0.023,0.438,0.334,0.65,0.66,0.65c0.354,0,0.582-0.165,0.65-0.199v0.243
		c-0.049,0.029-0.282,0.189-0.68,0.189c-0.461,0-0.893-0.34-0.893-0.908c0-0.558,0.432-0.912,0.896-0.912
		c0.394,0,0.724,0.315,0.724,0.811v0.126H179.176z M179.787,80.787c-0.393,0-0.549,0.301-0.598,0.5h1.092
		C180.281,81.02,180.088,80.787,179.787,80.787z"/>
	<path class="st1" d="M182.159,82.32v-1.155c0-0.223-0.126-0.368-0.34-0.368c-0.311,0-0.515,0.286-0.554,0.335v1.188h-0.262v-1.713
		h0.262v0.242c0.039-0.043,0.229-0.296,0.593-0.296c0.311,0,0.563,0.209,0.563,0.593v1.174H182.159z M182.027,80.302
		c-0.262,0-0.475-0.219-0.596-0.219c-0.083,0-0.16,0.054-0.176,0.219l-0.218-0.005c0.015-0.228,0.15-0.446,0.397-0.446
		c0.243,0,0.428,0.214,0.592,0.214c0.078,0,0.16-0.059,0.166-0.204h0.218C182.406,80.083,182.271,80.302,182.027,80.302z"/>
	<path class="st1" d="M183.76,82.374c-0.5,0-0.902-0.394-0.902-0.908c0-0.514,0.402-0.912,0.902-0.912s0.902,0.398,0.902,0.912
		C184.662,81.98,184.26,82.374,183.76,82.374z M183.76,80.797c-0.354,0-0.637,0.291-0.637,0.669c0,0.379,0.282,0.665,0.637,0.665
		c0.354,0,0.635-0.286,0.635-0.665C184.395,81.088,184.113,80.797,183.76,80.797z"/>
	<path class="st1" d="M188.508,82.32v-2.004l-0.994,2.004h-0.18l-0.994-2.004v2.004h-0.277v-2.756h0.189l1.174,2.334l1.17-2.334
		h0.189v2.756H188.508z"/>
	<path class="st1" d="M190.54,82.32v-0.219c-0.048,0.063-0.198,0.272-0.548,0.272c-0.34,0-0.582-0.238-0.582-0.65v-1.116h0.262
		v1.092c0,0.276,0.16,0.427,0.383,0.427c0.306,0,0.451-0.286,0.485-0.345v-1.174h0.263v1.713H190.54z"/>
	<path class="st1" d="M192.023,82.296c-0.049,0.024-0.145,0.078-0.296,0.078c-0.224,0-0.393-0.15-0.393-0.456v-2.354h0.262v2.339
		c0,0.165,0.097,0.232,0.194,0.232c0.102,0,0.193-0.044,0.232-0.063V82.296z"/>
	<path class="st1" d="M192.984,82.374c-0.248,0-0.5-0.131-0.5-0.606v-0.961h-0.364l0.073-0.199h0.291v-0.675h0.262v0.675h0.631
		l-0.072,0.199h-0.559v0.97c0,0.268,0.107,0.354,0.296,0.354c0.15,0,0.296-0.087,0.35-0.111v0.237
		C193.348,82.281,193.202,82.374,192.984,82.374z"/>
	<path class="st1" d="M193.887,80.272l-0.224-0.218l0.218-0.219l0.224,0.219L193.887,80.272z M193.756,82.32v-1.713h0.262v1.713
		H193.756z"/>
	<path class="st1" d="M196.821,82.32v-1.169c0-0.214-0.112-0.354-0.315-0.354c-0.296,0-0.495,0.276-0.533,0.32v1.203h-0.263v-1.169
		c0-0.214-0.111-0.354-0.315-0.354c-0.296,0-0.494,0.276-0.533,0.32v1.203H194.6v-1.713h0.262v0.233
		c0.039-0.044,0.218-0.287,0.567-0.287c0.228,0,0.417,0.112,0.499,0.325c0.127-0.131,0.282-0.325,0.617-0.325
		c0.301,0,0.539,0.199,0.539,0.568v1.198H196.821z"/>
	<path class="st1" d="M197.781,81.49c0.023,0.438,0.334,0.65,0.66,0.65c0.354,0,0.582-0.165,0.65-0.199v0.243
		c-0.049,0.029-0.282,0.189-0.68,0.189c-0.461,0-0.893-0.34-0.893-0.908c0-0.558,0.432-0.912,0.896-0.912
		c0.394,0,0.724,0.315,0.724,0.811v0.126H197.781z M198.393,80.787c-0.393,0-0.549,0.301-0.598,0.5h1.092
		C198.887,81.02,198.693,80.787,198.393,80.787z"/>
	<path class="st1" d="M200.875,82.32v-0.233l-0.533,0.287c-0.189-0.054-0.83-0.238-0.83-0.961c0-0.471,0.394-0.859,0.854-0.859
		c0.291,0,0.451,0.112,0.509,0.141v-1.13h0.263v2.756H200.875z M200.875,80.952c-0.043-0.029-0.213-0.155-0.441-0.155
		c-0.35,0-0.65,0.276-0.65,0.626c0,0.48,0.398,0.636,0.554,0.693l0.538-0.267V80.952z"/>
	<path class="st1" d="M201.85,80.272l-0.223-0.218l0.219-0.219l0.223,0.219L201.85,80.272z M201.719,82.32v-1.713h0.263v1.713
		H201.719z"/>
	<path class="st1" d="M203.523,82.32l-0.024-0.146c-0.054,0.044-0.198,0.194-0.509,0.194c-0.291,0-0.549-0.209-0.549-0.549
		c0-0.373,0.286-0.582,0.723-0.631l0.32-0.034v-0.324h-0.936l0.048-0.224h1.146v1.713H203.523z M203.484,81.354l-0.281,0.034
		c-0.32,0.039-0.5,0.18-0.5,0.417c0,0.199,0.15,0.35,0.359,0.35c0.219,0,0.363-0.155,0.422-0.214V81.354z"/>
	<path class="st1" d="M205.313,81.49c0.025,0.438,0.336,0.65,0.66,0.65c0.354,0,0.582-0.165,0.65-0.199v0.243
		c-0.049,0.029-0.281,0.189-0.68,0.189c-0.461,0-0.893-0.34-0.893-0.908c0-0.558,0.432-0.912,0.898-0.912
		c0.393,0,0.723,0.315,0.723,0.811v0.126H205.313z M205.925,80.787c-0.394,0-0.548,0.301-0.597,0.5h1.092
		C206.42,81.02,206.226,80.787,205.925,80.787z"/>
	<path class="st1" d="M208.193,80.272l-0.223-0.218l0.219-0.219l0.223,0.219L208.193,80.272z M208.063,82.32v-1.713h0.263v1.713
		H208.063z"/>
	<path class="st1" d="M210.063,82.32v-1.155c0-0.223-0.127-0.368-0.34-0.368c-0.311,0-0.515,0.286-0.554,0.335v1.188h-0.262v-1.713
		h0.262v0.242c0.039-0.043,0.228-0.296,0.593-0.296c0.311,0,0.563,0.209,0.563,0.593v1.174H210.063z"/>
	<path class="st1" d="M211.43,82.374c-0.248,0-0.5-0.131-0.5-0.606v-0.961h-0.364l0.073-0.199h0.291v-0.675h0.262v0.675h0.631
		l-0.072,0.199h-0.559v0.97c0,0.268,0.107,0.354,0.296,0.354c0.15,0,0.296-0.087,0.35-0.111v0.237
		C211.793,82.281,211.647,82.374,211.43,82.374z"/>
	<path class="st1" d="M212.316,81.49c0.024,0.438,0.335,0.65,0.66,0.65c0.354,0,0.582-0.165,0.65-0.199v0.243
		c-0.049,0.029-0.281,0.189-0.68,0.189c-0.461,0-0.893-0.34-0.893-0.908c0-0.558,0.432-0.912,0.897-0.912
		c0.394,0,0.724,0.315,0.724,0.811v0.126H212.316z M212.928,80.787c-0.393,0-0.548,0.301-0.597,0.5h1.092
		C213.423,81.02,213.229,80.787,212.928,80.787z"/>
	<path class="st1" d="M214.877,80.802c-0.218,0-0.422,0.203-0.471,0.252v1.267h-0.262v-1.713h0.262v0.247
		c0.054-0.058,0.229-0.301,0.51-0.301c0.078,0,0.121,0.01,0.15,0.02v0.248C215.037,80.821,214.975,80.802,214.877,80.802z"/>
	<path class="st1" d="M216.294,82.32l-0.024-0.146c-0.053,0.044-0.199,0.194-0.51,0.194c-0.291,0-0.548-0.209-0.548-0.549
		c0-0.373,0.286-0.582,0.724-0.631l0.32-0.034v-0.324h-0.938l0.049-0.224h1.145v1.713H216.294z M216.256,81.354l-0.282,0.034
		c-0.32,0.039-0.499,0.18-0.499,0.417c0,0.199,0.15,0.35,0.358,0.35c0.218,0,0.364-0.155,0.423-0.214V81.354z"/>
	<path class="st1" d="M217.87,82.374c-0.51,0-0.922-0.374-0.922-0.903c0-0.523,0.403-0.912,0.922-0.912
		c0.281,0,0.524,0.127,0.597,0.165v0.253c-0.063-0.034-0.291-0.17-0.592-0.17c-0.389,0-0.655,0.291-0.655,0.664
		c0,0.394,0.292,0.655,0.655,0.655c0.311,0,0.549-0.141,0.602-0.17v0.243C218.414,82.238,218.215,82.374,217.87,82.374z"/>
	<path class="st1" d="M219.738,82.374c-0.51,0-0.922-0.374-0.922-0.903c0-0.523,0.402-0.912,0.922-0.912
		c0.281,0,0.523,0.127,0.596,0.165v0.253c-0.063-0.034-0.291-0.17-0.592-0.17c-0.388,0-0.654,0.291-0.654,0.664
		c0,0.394,0.291,0.655,0.654,0.655c0.311,0,0.549-0.141,0.602-0.17v0.243C220.281,82.238,220.082,82.374,219.738,82.374z"/>
	<path class="st1" d="M220.959,80.272l-0.223-0.218l0.219-0.219l0.223,0.219L220.959,80.272z M220.828,82.32v-1.713h0.263v1.713
		H220.828z"/>
	<path class="st1" d="M222.479,82.374c-0.5,0-0.902-0.394-0.902-0.908c0-0.514,0.402-0.912,0.902-0.912s0.902,0.398,0.902,0.912
		C223.381,81.98,222.979,82.374,222.479,82.374z M222.479,80.797c-0.354,0-0.637,0.291-0.637,0.669c0,0.379,0.282,0.665,0.637,0.665
		c0.354,0,0.635-0.286,0.635-0.665C223.113,81.088,222.832,80.797,222.479,80.797z M222.357,80.418l-0.461-0.897h0.262l0.441,0.897
		H222.357z"/>
	<path class="st1" d="M224.971,82.32v-1.155c0-0.223-0.126-0.368-0.34-0.368c-0.311,0-0.514,0.286-0.553,0.335v1.188h-0.262v-1.713
		h0.262v0.242c0.039-0.043,0.229-0.296,0.592-0.296c0.311,0,0.563,0.209,0.563,0.593v1.174H224.971z"/>
</g>
<g>
	<path class="st1" d="M207.15,97.432c-0.138,0.048-0.328,0.091-0.578,0.091c-0.682,0-1.305-0.535-1.305-1.295
		c0-0.761,0.635-1.305,1.305-1.305c0.397,0,0.721,0.147,0.838,0.207l-0.004,0.264c-0.121-0.064-0.432-0.246-0.83-0.246
		c-0.543,0-1.045,0.453-1.045,1.075c0,0.613,0.476,1.075,1.045,1.075c0.42,0,0.713-0.173,0.843-0.246v0.255
		C207.371,97.333,207.285,97.385,207.15,97.432z"/>
	<path class="st1" d="M208.693,97.449h-0.777v-2.453h0.674c0.496,0,0.742,0.32,0.742,0.652c0,0.186-0.078,0.354-0.216,0.471
		c-0.026,0.026-0.048,0.039-0.073,0.061c0.271,0.125,0.401,0.346,0.401,0.596C209.444,97.194,209.125,97.449,208.693,97.449z
		 M208.547,95.212h-0.377v0.859h0.488c0.043,0,0.121,0.005,0.173,0.014c0.018-0.014,0.034-0.026,0.061-0.044
		c0.121-0.095,0.177-0.229,0.177-0.38C209.068,95.376,208.879,95.212,208.547,95.212z M208.58,96.283h-0.41v0.941h0.484
		c0.298,0,0.527-0.177,0.527-0.471C209.182,96.49,208.965,96.283,208.58,96.283z"/>
	<path class="st1" d="M211.686,97.432c-0.138,0.048-0.328,0.091-0.578,0.091c-0.682,0-1.305-0.535-1.305-1.295
		c0-0.761,0.635-1.305,1.305-1.305c0.397,0,0.721,0.147,0.838,0.207l-0.004,0.264c-0.121-0.064-0.432-0.246-0.83-0.246
		c-0.543,0-1.045,0.453-1.045,1.075c0,0.613,0.476,1.075,1.045,1.075c0.42,0,0.713-0.173,0.843-0.246v0.255
		C211.906,97.333,211.82,97.385,211.686,97.432z"/>
	<path class="st1" d="M213.481,95.226v0.872h0.843v0.225h-0.843v1.127h-0.255v-2.453h1.291v0.229H213.481z"/>
	<path class="st1" d="M216.438,97.449l-0.307-0.885h-0.843l-0.306,0.885h-0.273l0.873-2.453h0.255l0.872,2.453H216.438z
		 M215.819,95.64l-0.108-0.346L215.6,95.64l-0.242,0.717h0.704L215.819,95.64z"/>
	<path class="st1" d="M217.832,97.449h-0.764v-2.453h0.742c0.704,0,1.378,0.445,1.378,1.235
		C219.188,97.03,218.531,97.449,217.832,97.449z M217.824,95.226h-0.502v1.986h0.523c0.596,0,1.079-0.354,1.079-0.98
		C218.925,95.609,218.42,95.226,217.824,95.226z"/>
	<path class="st1" d="M221.258,97.449v-0.385c-0.065,0.091-0.295,0.428-0.791,0.428c-0.483,0-0.803-0.362-0.803-0.876v-1.62h0.259
		v1.62c0,0.389,0.225,0.656,0.579,0.656c0.453,0,0.664-0.389,0.756-0.54v-1.736h0.254v2.453H221.258z"/>
	<path class="st1" d="M222.819,96.654v-0.207h0.756v0.207H222.819z"/>
	<path class="st1" d="M225.648,97.449h-0.764v-2.453h0.742c0.704,0,1.378,0.445,1.378,1.235
		C227.005,97.03,226.348,97.449,225.648,97.449z M225.641,95.226h-0.502v1.986h0.523c0.596,0,1.079-0.354,1.079-0.98
		C226.741,95.609,226.236,95.226,225.641,95.226z"/>
	<path class="st1" d="M227.58,95.627l-0.199-0.194l0.194-0.194l0.198,0.194L227.58,95.627z M227.463,97.449v-1.524h0.232v1.524
		H227.463z"/>
	<path class="st1" d="M228.584,97.497c-0.233,0-0.385-0.082-0.445-0.112v-0.233c0.057,0.025,0.256,0.143,0.445,0.143
		c0.168,0,0.319-0.073,0.319-0.225c0-0.146-0.224-0.229-0.354-0.298c-0.15-0.082-0.422-0.212-0.422-0.462
		c0-0.269,0.22-0.433,0.525-0.433c0.225,0,0.381,0.087,0.424,0.112v0.221c-0.112-0.069-0.281-0.134-0.41-0.134
		c-0.194,0-0.311,0.095-0.311,0.212c0,0.142,0.189,0.22,0.319,0.28c0.143,0.069,0.458,0.203,0.458,0.488
		C229.133,97.35,228.882,97.497,228.584,97.497z"/>
	<path class="st1" d="M229.666,96.711c0.021,0.389,0.297,0.578,0.587,0.578c0.315,0,0.519-0.146,0.579-0.177v0.216
		c-0.044,0.026-0.251,0.169-0.605,0.169c-0.41,0-0.794-0.303-0.794-0.808c0-0.497,0.384-0.813,0.799-0.813
		c0.35,0,0.644,0.281,0.644,0.722v0.112H229.666z M230.209,96.085c-0.35,0-0.487,0.268-0.53,0.444h0.972
		C230.65,96.292,230.478,96.085,230.209,96.085z"/>
	<path class="st1" d="M232.318,97.449v-1.027c0-0.199-0.112-0.328-0.303-0.328c-0.275,0-0.457,0.254-0.492,0.298v1.058h-0.232
		v-1.524h0.232v0.216c0.035-0.039,0.203-0.264,0.527-0.264c0.276,0,0.501,0.187,0.501,0.527v1.045H232.318z M232.201,95.653
		c-0.232,0-0.422-0.194-0.53-0.194c-0.073,0-0.143,0.047-0.155,0.194l-0.195-0.005c0.014-0.203,0.135-0.397,0.354-0.397
		c0.216,0,0.38,0.19,0.526,0.19c0.07,0,0.143-0.052,0.147-0.182h0.194C232.539,95.459,232.418,95.653,232.201,95.653z"/>
	<path class="st1" d="M233.74,97.497c-0.443,0-0.803-0.351-0.803-0.808c0-0.458,0.359-0.813,0.803-0.813
		c0.445,0,0.804,0.354,0.804,0.813C234.544,97.146,234.186,97.497,233.74,97.497z M233.74,96.094c-0.314,0-0.564,0.259-0.564,0.596
		s0.25,0.592,0.564,0.592c0.316,0,0.566-0.255,0.566-0.592S234.057,96.094,233.74,96.094z"/>
	<path class="st1" d="M237.545,96.399h0.255v0.907c-0.048,0.026-0.134,0.078-0.269,0.125c-0.138,0.048-0.328,0.091-0.578,0.091
		c-0.682,0-1.305-0.535-1.305-1.295c0-0.761,0.635-1.305,1.305-1.305c0.397,0,0.717,0.147,0.834,0.207v0.264
		c-0.121-0.064-0.432-0.246-0.83-0.246c-0.543,0-1.045,0.453-1.045,1.075c0,0.613,0.476,1.075,1.045,1.075
		c0.238,0,0.437-0.056,0.588-0.116V96.399z"/>
	<path class="st1" d="M238.961,96.098c-0.193,0-0.375,0.182-0.418,0.225v1.127h-0.234v-1.524h0.234v0.221
		c0.047-0.052,0.203-0.269,0.453-0.269c0.068,0,0.107,0.009,0.134,0.018v0.221C239.104,96.115,239.048,96.098,238.961,96.098z"/>
	<path class="st1" d="M240.221,97.449l-0.021-0.13c-0.047,0.039-0.177,0.173-0.453,0.173c-0.26,0-0.488-0.186-0.488-0.487
		c0-0.333,0.255-0.519,0.644-0.562l0.285-0.03v-0.29h-0.833l0.043-0.198h1.019v1.524H240.221z M240.187,96.59l-0.251,0.03
		c-0.285,0.034-0.444,0.16-0.444,0.371c0,0.178,0.134,0.312,0.319,0.312c0.194,0,0.324-0.139,0.376-0.19V96.59z"/>
	<path class="st1" d="M241.838,95.277c-0.065-0.061-0.174-0.143-0.303-0.143c-0.173,0-0.328,0.138-0.328,0.397v0.393h0.483
		l-0.069,0.177h-0.414v1.348h-0.233v-1.348h-0.268l0.065-0.177h0.202v-0.389c0-0.389,0.285-0.613,0.558-0.613
		c0.225,0,0.375,0.134,0.453,0.207L241.838,95.277z"/>
	<path class="st1" d="M242.117,95.627l-0.199-0.194l0.194-0.194l0.198,0.194L242.117,95.627z M242,97.449v-1.524h0.232v1.524H242z"
		/>
	<path class="st1" d="M243.484,97.497c-0.453,0-0.82-0.333-0.82-0.804c0-0.466,0.358-0.812,0.82-0.812
		c0.25,0,0.467,0.112,0.531,0.146v0.225c-0.057-0.03-0.26-0.151-0.527-0.151c-0.346,0-0.582,0.26-0.582,0.592
		c0,0.35,0.258,0.583,0.582,0.583c0.277,0,0.488-0.125,0.535-0.151v0.216C243.968,97.376,243.791,97.497,243.484,97.497z"/>
	<path class="st1" d="M245.127,97.497c-0.445,0-0.803-0.351-0.803-0.808c0-0.458,0.357-0.813,0.803-0.813
		c0.444,0,0.803,0.354,0.803,0.813C245.93,97.146,245.571,97.497,245.127,97.497z M245.127,96.094c-0.315,0-0.566,0.259-0.566,0.596
		s0.251,0.592,0.566,0.592c0.314,0,0.565-0.255,0.565-0.592S245.441,96.094,245.127,96.094z"/>
</g>
<line class="st2" x1="144.764" y1="87.515" x2="330.464" y2="87.515"/>
<rect x="146.139" y="85.116" transform="matrix(0.7071 -0.7071 0.7071 0.7071 -18.3768 130.6646)" class="st3" width="4.798" height="4.798"/>
<rect x="146.139" y="85.116" transform="matrix(0.7071 -0.7071 0.7071 0.7071 -18.3768 130.6646)" class="st2" width="4.798" height="4.798"/>
<rect x="183.581" y="88.753" transform="matrix(0.7071 -0.7071 0.7071 0.7071 -9.6919 157.5059)" class="st3" width="3.399" height="3.399"/>
<rect x="183.581" y="88.753" transform="matrix(0.7071 -0.7071 0.7071 0.7071 -9.6919 157.5059)" class="st4" width="3.399" height="3.399"/>
<rect x="265.386" y="88.753" transform="matrix(0.7071 -0.7071 0.7071 0.7071 14.2682 215.3505)" class="st3" width="3.399" height="3.399"/>
<rect x="265.386" y="88.753" transform="matrix(0.7071 -0.7071 0.7071 0.7071 14.2682 215.3505)" class="st4" width="3.399" height="3.399"/>
<rect x="234.615" y="85.116" transform="matrix(0.7071 -0.7071 0.7071 0.7071 7.5372 193.2264)" class="st3" width="4.798" height="4.798"/>
<rect x="234.615" y="85.116" transform="matrix(0.7071 -0.7071 0.7071 0.7071 7.5372 193.2264)" class="st2" width="4.798" height="4.798"/>
<rect x="320.365" y="85.116" transform="matrix(0.7071 -0.7071 0.7071 0.7071 32.6527 253.8609)" class="st3" width="4.798" height="4.798"/>
<rect x="320.365" y="85.116" transform="matrix(0.7071 -0.7071 0.7071 0.7071 32.6527 253.8609)" class="st5" width="4.798" height="4.798"/>
<rect x="238.605" y="85.116" transform="matrix(0.7071 -0.7071 0.7071 0.7071 8.706 196.0482)" class="st3" width="4.798" height="4.798"/>
<rect x="238.605" y="85.116" transform="matrix(0.7071 -0.7071 0.7071 0.7071 8.706 196.0482)" class="st5" width="4.798" height="4.798"/>
<line class="st6" x1="186.357" y1="92.556" x2="266.547" y2="92.556"/>
<path class="st7" d="M267.085,92.556L267.085,92.556 M185.281,92.556L185.281,92.556"/>
<g>
	<path class="st1" d="M234.705,82.477v-0.248l1.002-1.093c0.27-0.291,0.475-0.561,0.475-0.83c0-0.285-0.194-0.474-0.48-0.474
		c-0.264,0-0.484,0.178-0.517,0.549h-0.528c0.033-0.651,0.496-1.066,1.051-1.066c0.598,0,1.045,0.394,1.045,0.991
		c0,0.426-0.323,0.835-0.582,1.109c-0.092,0.098-0.431,0.447-0.543,0.556h1.141v0.506H234.705z"/>
	<path class="st1" d="M238.412,82.568c-0.748,0-1.104-0.856-1.104-1.616s0.355-1.627,1.104-1.627c0.743,0,1.094,0.867,1.094,1.627
		S239.155,82.568,238.412,82.568z M238.412,79.864c-0.291,0-0.539,0.469-0.539,1.088s0.248,1.083,0.539,1.083
		s0.527-0.464,0.527-1.083S238.703,79.864,238.412,79.864z"/>
	<path class="st1" d="M240.229,82.477v-3l0.582-0.173v3.173H240.229z"/>
	<path class="st1" d="M242.357,80.526c0.08-0.011,0.161-0.026,0.258-0.026c0.55,0,1.121,0.377,1.121,1.039
		c0,0.565-0.49,1.029-1.072,1.029c-0.77,0-1.131-0.62-1.131-1.218c0-1.099,0.975-1.906,2.246-2.004V79.8
		C243.144,79.902,242.653,80.123,242.357,80.526z M242.567,80.958c-0.27,0-0.372,0.059-0.442,0.091
		c-0.016,0.049-0.037,0.162-0.037,0.291c0,0.409,0.199,0.732,0.592,0.732c0.297,0,0.512-0.264,0.512-0.533
		C243.191,81.243,242.955,80.958,242.567,80.958z"/>
</g>
<g>
	<path class="st1" d="M263.629,97.449v-0.198l0.804-0.877c0.216-0.233,0.38-0.449,0.38-0.665c0-0.229-0.155-0.38-0.385-0.38
		c-0.211,0-0.389,0.143-0.414,0.44h-0.424c0.026-0.522,0.398-0.855,0.843-0.855c0.479,0,0.838,0.315,0.838,0.795
		c0,0.341-0.259,0.669-0.467,0.89c-0.073,0.077-0.345,0.358-0.437,0.444h0.916v0.406H263.629z"/>
	<path class="st1" d="M266.597,97.522c-0.601,0-0.886-0.687-0.886-1.295c0-0.609,0.285-1.305,0.886-1.305
		c0.597,0,0.876,0.695,0.876,1.305C267.473,96.836,267.193,97.522,266.597,97.522z M266.597,95.354
		c-0.233,0-0.432,0.376-0.432,0.873c0,0.496,0.198,0.867,0.432,0.867s0.423-0.371,0.423-0.867
		C267.02,95.73,266.83,95.354,266.597,95.354z"/>
	<path class="st1" d="M268.049,97.449v-2.405l0.467-0.138v2.543H268.049z"/>
	<path class="st1" d="M270.461,96.845v0.604h-0.463v-0.604h-1.001l-0.078-0.198l1.157-1.65h0.385v1.442h0.346v0.406H270.461z
		 M269.998,95.601l-0.202,0.315l-0.358,0.522h0.561V95.601z"/>
</g>
<g>
	<path class="st1" d="M181.426,97.449v-0.198l0.803-0.877c0.216-0.233,0.38-0.449,0.38-0.665c0-0.229-0.155-0.38-0.384-0.38
		c-0.212,0-0.389,0.143-0.415,0.44h-0.423c0.025-0.522,0.396-0.855,0.842-0.855c0.479,0,0.838,0.315,0.838,0.795
		c0,0.341-0.26,0.669-0.467,0.89c-0.073,0.077-0.346,0.358-0.436,0.444h0.915v0.406H181.426z"/>
	<path class="st1" d="M184.393,97.522c-0.6,0-0.885-0.687-0.885-1.295c0-0.609,0.285-1.305,0.885-1.305
		c0.596,0,0.877,0.695,0.877,1.305C185.27,96.836,184.988,97.522,184.393,97.522z M184.393,95.354c-0.232,0-0.432,0.376-0.432,0.873
		c0,0.496,0.199,0.867,0.432,0.867c0.233,0,0.424-0.371,0.424-0.867C184.816,95.73,184.626,95.354,184.393,95.354z"/>
	<path class="st1" d="M185.845,97.449v-2.405l0.466-0.138v2.543H185.845z"/>
	<path class="st1" d="M187.424,97.449h-0.492l0.937-2.047h-1.11v-0.406h1.568l0.104,0.164L187.424,97.449z"/>
</g>
<g>
	<path class="st1" d="M144.21,82.477v-0.248l1.002-1.093c0.27-0.291,0.474-0.561,0.474-0.83c0-0.285-0.193-0.474-0.479-0.474
		c-0.265,0-0.485,0.178-0.518,0.549h-0.527c0.031-0.651,0.495-1.066,1.05-1.066c0.598,0,1.045,0.394,1.045,0.991
		c0,0.426-0.323,0.835-0.581,1.109c-0.092,0.098-0.432,0.447-0.545,0.556h1.143v0.506H144.21z"/>
	<path class="st1" d="M147.917,82.568c-0.749,0-1.104-0.856-1.104-1.616s0.355-1.627,1.104-1.627c0.743,0,1.093,0.867,1.093,1.627
		S148.66,82.568,147.917,82.568z M147.917,79.864c-0.291,0-0.538,0.469-0.538,1.088s0.247,1.083,0.538,1.083
		s0.528-0.464,0.528-1.083S148.208,79.864,147.917,79.864z"/>
	<path class="st1" d="M149.734,82.477v-3l0.581-0.173v3.173H149.734z"/>
	<path class="st1" d="M152.039,82.568c-0.555,0-1.001-0.383-1.001-0.878c0-0.318,0.167-0.587,0.528-0.819
		c-0.334-0.21-0.485-0.457-0.485-0.743c0-0.463,0.437-0.803,0.964-0.803c0.522,0,0.959,0.334,0.959,0.798
		c0,0.279-0.15,0.522-0.479,0.732c0.355,0.231,0.522,0.506,0.522,0.824C153.047,82.181,152.6,82.568,152.039,82.568z
		 M152.029,81.076c-0.227,0.146-0.426,0.317-0.426,0.565c0,0.216,0.167,0.42,0.441,0.42c0.27,0,0.441-0.199,0.441-0.409
		S152.277,81.222,152.029,81.076z M152.039,79.832c-0.269,0-0.398,0.172-0.398,0.317c0,0.221,0.26,0.388,0.421,0.485
		c0.155-0.103,0.382-0.27,0.382-0.469C152.443,80.004,152.314,79.832,152.039,79.832z"/>
</g>
<g>
	<path class="st1" d="M317.891,80.569v-0.248l1.002-1.093c0.27-0.291,0.475-0.561,0.475-0.83c0-0.285-0.193-0.474-0.479-0.474
		c-0.265,0-0.485,0.178-0.517,0.549h-0.528c0.032-0.651,0.495-1.066,1.05-1.066c0.599,0,1.045,0.394,1.045,0.991
		c0,0.426-0.322,0.835-0.581,1.109c-0.092,0.098-0.431,0.447-0.544,0.556h1.142v0.506H317.891z"/>
	<path class="st1" d="M321.598,80.661c-0.748,0-1.104-0.856-1.104-1.616s0.355-1.627,1.104-1.627c0.744,0,1.094,0.867,1.094,1.627
		S322.342,80.661,321.598,80.661z M321.598,77.957c-0.291,0-0.538,0.469-0.538,1.088s0.247,1.083,0.538,1.083
		s0.528-0.464,0.528-1.083S321.889,77.957,321.598,77.957z"/>
	<path class="st1" d="M323.415,80.569v-3l0.581-0.173v3.173H323.415z"/>
	<path class="st1" d="M325.494,80.655c-0.479,0-0.764-0.199-0.937-0.371l0.334-0.415c0.069,0.054,0.274,0.264,0.581,0.264
		c0.264,0,0.533-0.188,0.533-0.538c0-0.302-0.236-0.464-0.484-0.464c-0.075,0-0.167,0.027-0.328,0.092l-0.232-0.317
		c0.372-0.205,0.749-0.447,0.943-0.867h-1.213V77.51h1.843v0.296c-0.069,0.469-0.317,0.776-0.501,0.948
		c0.248,0.113,0.561,0.361,0.561,0.835C326.594,80.241,326.07,80.655,325.494,80.655z"/>
</g>
<line class="st8" x1="149.618" y1="84.123" x2="236.59" y2="84.123"/>
<path class="st9" d="M237.13,84.123L237.13,84.123 M148.538,84.123L148.538,84.123"/>
<polyline class="st3" points="237.399,83.985 238.896,85.544 241.188,83.741 237.644,83.863 "/>
<line class="st10" x1="242.204" y1="84.123" x2="322.879" y2="84.123"/>
<path class="st7" d="M323.42,84.123L323.42,84.123 M241.121,84.123L241.121,84.123"/>
<g>
	<path class="st11" d="M1.194,40.201c-0.261,0-0.505,0.243-0.563,0.301v1.514H0.318v-2.047h0.313v0.296
		c0.063-0.069,0.272-0.359,0.608-0.359c0.094,0,0.146,0.012,0.18,0.023v0.295C1.386,40.224,1.311,40.201,1.194,40.201z"/>
	<path class="st11" d="M1.936,41.024c0.029,0.521,0.4,0.776,0.789,0.776c0.423,0,0.695-0.197,0.776-0.237v0.29
		c-0.058,0.034-0.337,0.226-0.812,0.226c-0.551,0-1.066-0.405-1.066-1.084c0-0.667,0.516-1.09,1.072-1.09
		c0.469,0,0.863,0.377,0.863,0.968v0.151H1.936z M2.666,40.184c-0.47,0-0.655,0.359-0.713,0.597h1.305
		C3.258,40.462,3.025,40.184,2.666,40.184z"/>
	<path class="st11" d="M4.804,42.079c-0.296,0-0.597-0.156-0.597-0.725v-1.148H3.771l0.088-0.237h0.348v-0.806H4.52v0.806h0.754
		l-0.087,0.237H4.52v1.16c0,0.319,0.128,0.423,0.354,0.423c0.18,0,0.354-0.104,0.418-0.133v0.284
		C5.238,41.97,5.064,42.079,4.804,42.079z"/>
	<path class="st11" d="M6.629,42.079c-0.598,0-1.078-0.47-1.078-1.084s0.48-1.09,1.078-1.09s1.078,0.476,1.078,1.09
		S7.227,42.079,6.629,42.079z M6.629,40.195c-0.423,0-0.76,0.348-0.76,0.8s0.337,0.794,0.76,0.794c0.424,0,0.76-0.342,0.76-0.794
		S7.053,40.195,6.629,40.195z"/>
	<path class="st11" d="M9.752,43.332v-1.438c-0.047,0.029-0.243,0.186-0.62,0.186c-0.54,0-1.021-0.47-1.021-1.09
		c0-0.614,0.464-1.084,1.043-1.084c0.354,0,0.563,0.174,0.627,0.22l0.047-0.156h0.237v3.363H9.752z M9.207,41.789
		c0.29,0,0.492-0.162,0.545-0.202v-1.178c-0.058-0.046-0.261-0.214-0.545-0.214c-0.44,0-0.771,0.348-0.771,0.794
		C8.436,41.441,8.761,41.789,9.207,41.789z"/>
	<path class="st11" d="M12.052,42.016v-0.261c-0.058,0.075-0.237,0.324-0.655,0.324c-0.406,0-0.695-0.284-0.695-0.776v-1.334h0.313
		v1.305c0,0.33,0.191,0.511,0.458,0.511c0.366,0,0.54-0.343,0.58-0.412v-1.403h0.313v2.047H12.052z"/>
	<path class="st11" d="M13.198,41.024c0.028,0.521,0.399,0.776,0.788,0.776c0.424,0,0.696-0.197,0.777-0.237v0.29
		c-0.059,0.034-0.336,0.226-0.812,0.226c-0.551,0-1.067-0.405-1.067-1.084c0-0.667,0.517-1.09,1.073-1.09
		c0.47,0,0.864,0.377,0.864,0.968v0.151H13.198z M13.929,40.184c-0.47,0-0.655,0.359-0.713,0.597h1.304
		C14.52,40.462,14.288,40.184,13.929,40.184z"/>
</g>
<polygon class="st12" points="87.997,1.201 87.997,1.08 40.571,1.08 16.822,42.271 40.571,83.464 88.068,83.464 111.817,42.271 
	88.068,1.08 87.997,1.08 87.997,1.201 87.892,1.262 111.535,42.271 87.927,83.22 40.712,83.22 17.104,42.271 40.712,1.323 
	87.997,1.323 87.997,1.201 87.892,1.262 "/>
<polygon class="st13" points="85.577,6.892 85.577,6.77 45.533,6.77 25.476,41.559 45.533,76.349 85.647,76.349 105.704,41.559 
	85.647,6.77 85.577,6.77 85.577,6.892 85.471,6.953 105.423,41.559 85.507,76.105 45.674,76.105 25.758,41.559 45.674,7.014 
	85.577,7.014 85.577,6.892 85.471,6.953 "/>
<polygon class="st13" points="80.412,13.846 80.412,13.724 48.806,13.724 32.968,41.196 48.806,68.668 80.483,68.668 96.321,41.196 
	80.483,13.724 80.412,13.724 80.412,13.846 80.307,13.907 96.04,41.196 80.342,68.424 48.947,68.424 33.249,41.196 48.947,13.968 
	80.412,13.968 80.412,13.846 80.307,13.907 "/>
<polygon class="st13" points="76.31,21.189 76.31,21.067 52.57,21.067 40.665,41.717 52.57,62.367 76.38,62.367 88.286,41.717 
	76.38,21.067 76.31,21.067 76.31,21.189 76.204,21.25 88.004,41.717 76.24,62.123 52.711,62.123 40.946,41.717 52.711,21.311 
	76.31,21.311 76.31,21.189 76.204,21.25 "/>
<polygon class="st13" points="73.995,25.393 73.995,25.271 55.396,25.271 46.062,41.462 55.396,57.652 74.065,57.652 83.399,41.462 
	74.065,25.271 73.995,25.271 73.995,25.393 73.889,25.454 83.117,41.462 73.924,57.408 55.537,57.408 46.343,41.462 55.537,25.514 
	73.995,25.514 73.995,25.393 73.889,25.454 "/>
<polyline class="st13" points="40.38,84.378 55.572,57.59 55.361,57.469 40.169,84.258 "/>
<polyline class="st13" points="74.1,25.455 88.955,0.124 88.745,0.001 73.89,25.331 "/>
<polyline class="st13" points="83.255,41.583 113.135,42.313 113.141,42.068 83.261,41.339 "/>
<polyline class="st13" points="73.887,57.587 88.037,84.375 88.252,84.261 74.102,57.473 "/>
<polyline class="st13" points="15.989,42.312 46.205,41.736 46.2,41.492 15.984,42.068 "/>
<polyline class="st13" points="40.17,0.125 55.362,25.456 55.571,25.33 40.379,0 "/>
</svg>