<!-- Generator: Adobe Illustrator 21.1.0, SVG Export Plug-In  -->
<svg version="1.1"
	 xmlns="http://www.w3.org/2000/svg" xmlns:xlink="http://www.w3.org/1999/xlink" xmlns:a="http://ns.adobe.com/AdobeSVGViewerExtensions/3.0/"
	 x="0px" y="0px" width="93.929px" height="57.926px" viewBox="0 0 93.929 57.926"
	 style="overflow:scroll;enable-background:new 0 0 93.929 57.926;" xml:space="preserve">
<style type="text/css">
	.st0{fill:none;stroke:#000000;stroke-width:2;stroke-linecap:round;stroke-linejoin:round;stroke-miterlimit:10;}
</style>
<defs>
</defs>
<g>
	<path d="M7.226,2.601c-1.694,0-3.203,0-4.879,0c0,0.54,0,1.043,0,1.545c0,17.239,0,34.478,0,51.716c0,0.36,0.122,0.793-0.034,1.063
		c-0.241,0.416-0.665,0.986-1.03,1c-0.394,0.015-0.872-0.483-1.188-0.861c-0.163-0.195-0.066-0.616-0.067-0.935
		C0.026,38.211,0.026,20.292,0.027,2.374c0-1.742,0.242-1.973,2.023-1.973C7.57,0.4,13.09,0.398,18.609,0.4
		C32.148,0.408,44.576,11.545,46.36,24.967c2.101,15.804-8.53,30.004-24.092,32.422c-2.902,0.451-5.898,0.299-8.851,0.407
		c-1.398,0.051-2.797,0.061-4.196,0.084c-1.648,0.027-1.991-0.297-1.993-1.921c-0.006-3.32-0.002-6.64-0.002-9.959
		c0-13.959,0-27.918,0-41.877C7.226,3.65,7.226,3.178,7.226,2.601z M9.639,2.557c0,17.76,0,35.367,0,53.247
		c4.283-0.223,8.52-0.08,12.632-0.727c11.739-1.846,21.364-11.938,22.032-24.629c0.563-10.7-5.628-22.114-17.727-26.473
		C21.056,1.987,15.375,2.693,9.639,2.557z"/>
	<path d="M62.147,28.284c0.994-0.997,1.779-1.782,2.562-2.57c8.092-8.136,16.184-16.272,24.277-24.409
		c0.169-0.17,0.323-0.456,0.514-0.485c0.566-0.085,1.29-0.296,1.69-0.042c0.701,0.444,0.515,1.164-0.052,1.734
		c-0.226,0.227-0.451,0.453-0.678,0.68c-9.162,9.161-18.319,18.326-27.497,27.471c-0.58,0.578-0.869,1.139-0.836,1.976
		c0.066,1.668,0.02,3.341,0.02,5.359c1.076-1.11,1.929-2.021,2.816-2.897c2.217-2.19,4.42-4.395,6.687-6.533
		c1.27-1.198,1.649-1.103,2.64,0.277c6.227,8.663,12.457,17.324,18.681,25.99c0.349,0.486,0.77,0.974,0.925,1.527
		c0.12,0.427-0.123,0.957-0.204,1.441c-0.526-0.096-1.242-0.01-1.539-0.323c-0.764-0.803-1.341-1.783-1.993-2.693
		c-5.753-8.02-11.506-16.039-17.318-24.14c-0.284,0.247-0.553,0.454-0.791,0.692c-3.057,3.051-6.129,6.086-9.14,9.182
		c-0.414,0.425-0.723,1.151-0.73,1.742c-0.06,4.518-0.04,9.037-0.026,13.555c0.003,0.862-0.034,1.682-1.166,1.687
		c-1.117,0.005-1.206-0.8-1.206-1.67C59.788,38,59.786,20.166,59.788,2.331c0-1.232,0.431-1.779,1.313-1.682
		c0.957,0.105,1.055,0.776,1.053,1.568c-0.014,5.318-0.007,10.637-0.007,15.955C62.147,21.445,62.147,24.718,62.147,28.284z"/>
	<path class="st0" d="M72.887,28.36c0.02,0.28,0.04,0.56,0.06,0.84"/>
	<path class="st0" d="M90.407,1c0.02,0.2,0.04,0.4,0.06,0.6"/>
</g>
</svg>