<svg xmlns="http://www.w3.org/2000/svg" viewBox="0 0 730 579"><defs><style>.cls-1{fill:none;stroke:#263680;stroke-miterlimit:10;stroke-width:2px;}.cls-2{fill:#fff;}</style></defs><title>0inteactivos0</title><g id="Capa_2" data-name="Capa 2"><g id="Capa_1-2" data-name="Capa 1"><g id="soporte"><path class="cls-1" d="M441,500s2,36,15,49c0,0,18.31,14.79,23,21,1.35,1.78,4,8,4,8h16"/><path class="cls-1" d="M278,500s-2,36-15,49c0,0-18.31,14.79-23,21-1.35,1.78-4,8-4,8H220"/><rect class="cls-1" x="1" y="1" width="728" height="500" rx="32.5" ry="32.5"/></g><g id="imagen"><line class="cls-2" x1="266" y1="262" x2="269" y2="267"/><rect class="cls-2" x="164.6" y="211" width="2.8" height="6" transform="translate(-94.76 140.82) rotate(-36.52)"/><rect class="cls-1" x="62.41" y="99.5" width="253.75" height="290" rx="33" ry="33"/><polyline class="cls-1" points="272 284 118 284 158 215 209 284 271 284 205 183 173 230 208 214 230 221"/></g><g id="secciones"><rect class="cls-1" x="364" y="146" width="306" height="61" rx="11.75" ry="11.75"/><rect class="cls-1" x="364" y="110" width="306" height="14" rx="3.42" ry="3.42"/><rect class="cls-1" x="364" y="303" width="306" height="84" rx="11.75" ry="11.75"/><rect class="cls-1" x="525" y="227" width="143" height="61" rx="11.75" ry="11.75"/><rect class="cls-1" x="364" y="227" width="152" height="61" rx="11.75" ry="11.75"/></g><rect id="pantalla" class="cls-1" x="34" y="47" width="661" height="373"/></g></g></svg>